G04 #@! TF.FileFunction,Paste,Top*
%FSLAX46Y46*%
G04 Gerber Fmt 4.6, Leading zero omitted, Abs format (unit mm)*
G04 Created by KiCad (PCBNEW 4.0.2-stable) date 27/07/2016 9:39:40 PM*
%MOMM*%
G01*
G04 APERTURE LIST*
%ADD10C,0.100000*%
%ADD11R,1.220000X0.910000*%
%ADD12R,0.450000X1.450000*%
G04 APERTURE END LIST*
D10*
D11*
X173500000Y-136865000D03*
X173500000Y-140135000D03*
X170500000Y-136865000D03*
X170500000Y-140135000D03*
D12*
X173950000Y-143550000D03*
X173300000Y-143550000D03*
X172650000Y-143550000D03*
X172000000Y-143550000D03*
X171350000Y-143550000D03*
X170700000Y-143550000D03*
X170050000Y-143550000D03*
X170050000Y-149450000D03*
X170700000Y-149450000D03*
X171350000Y-149450000D03*
X172000000Y-149450000D03*
X172650000Y-149450000D03*
X173300000Y-149450000D03*
X173950000Y-149450000D03*
X173950000Y-109550000D03*
X173300000Y-109550000D03*
X172650000Y-109550000D03*
X172000000Y-109550000D03*
X171350000Y-109550000D03*
X170700000Y-109550000D03*
X170050000Y-109550000D03*
X170050000Y-115450000D03*
X170700000Y-115450000D03*
X171350000Y-115450000D03*
X172000000Y-115450000D03*
X172650000Y-115450000D03*
X173300000Y-115450000D03*
X173950000Y-115450000D03*
D11*
X170500000Y-102865000D03*
X170500000Y-106135000D03*
X173500000Y-102865000D03*
X173500000Y-106135000D03*
X173500000Y-119865000D03*
X173500000Y-123135000D03*
X170500000Y-119865000D03*
X170500000Y-123135000D03*
D12*
X173950000Y-126550000D03*
X173300000Y-126550000D03*
X172650000Y-126550000D03*
X172000000Y-126550000D03*
X171350000Y-126550000D03*
X170700000Y-126550000D03*
X170050000Y-126550000D03*
X170050000Y-132450000D03*
X170700000Y-132450000D03*
X171350000Y-132450000D03*
X172000000Y-132450000D03*
X172650000Y-132450000D03*
X173300000Y-132450000D03*
X173950000Y-132450000D03*
X136550000Y-127450000D03*
X137200000Y-127450000D03*
X137850000Y-127450000D03*
X138500000Y-127450000D03*
X139150000Y-127450000D03*
X139800000Y-127450000D03*
X140450000Y-127450000D03*
X140450000Y-121550000D03*
X139800000Y-121550000D03*
X139150000Y-121550000D03*
X138500000Y-121550000D03*
X137850000Y-121550000D03*
X137200000Y-121550000D03*
X136550000Y-121550000D03*
D11*
X140000000Y-134135000D03*
X140000000Y-130865000D03*
X137000000Y-134135000D03*
X137000000Y-130865000D03*
X137000000Y-151135000D03*
X137000000Y-147865000D03*
X140000000Y-151135000D03*
X140000000Y-147865000D03*
D12*
X136550000Y-144450000D03*
X137200000Y-144450000D03*
X137850000Y-144450000D03*
X138500000Y-144450000D03*
X139150000Y-144450000D03*
X139800000Y-144450000D03*
X140450000Y-144450000D03*
X140450000Y-138550000D03*
X139800000Y-138550000D03*
X139150000Y-138550000D03*
X138500000Y-138550000D03*
X137850000Y-138550000D03*
X137200000Y-138550000D03*
X136550000Y-138550000D03*
X136550000Y-110450000D03*
X137200000Y-110450000D03*
X137850000Y-110450000D03*
X138500000Y-110450000D03*
X139150000Y-110450000D03*
X139800000Y-110450000D03*
X140450000Y-110450000D03*
X140450000Y-104550000D03*
X139800000Y-104550000D03*
X139150000Y-104550000D03*
X138500000Y-104550000D03*
X137850000Y-104550000D03*
X137200000Y-104550000D03*
X136550000Y-104550000D03*
D11*
X140000000Y-117135000D03*
X140000000Y-113865000D03*
X137000000Y-117135000D03*
X137000000Y-113865000D03*
M02*
