M48
;DRILL file {KiCad 4.0.2-stable} date 27/07/2016 9:40:44 PM
;FORMAT={-:-/ absolute / inch / decimal}
FMAT,2
INCH,TZ
T1C0.016
T2C0.040
T3C0.060
T4C0.120
T5C0.020
T6C0.126
%
G90
G05
M72
T1
X5.313Y-4.3857
X5.313Y-5.055
X5.313Y-5.7243
X5.315Y-4.0846
X5.315Y-4.6063
X5.315Y-4.7539
X5.315Y-5.2756
X5.315Y-5.4232
X5.315Y-5.9449
X5.318Y-4.3007
X5.318Y-4.97
X5.318Y-5.6393
X5.3248Y-4.1339
X5.3248Y-4.8031
X5.3248Y-5.4724
X5.3346Y-4.2323
X5.3346Y-4.9016
X5.3346Y-5.5709
X5.3445Y-4.5276
X5.3445Y-5.1969
X5.3445Y-5.8661
X5.374Y-4.2323
X5.374Y-4.9016
X5.374Y-5.5709
X5.3937Y-4.0551
X5.3937Y-4.7244
X5.3937Y-5.3937
X5.4626Y-4.4252
X5.4626Y-5.0945
X5.4626Y-5.7638
X5.4724Y-4.065
X5.4724Y-4.2323
X5.4724Y-4.7343
X5.4724Y-4.9016
X5.4724Y-5.4035
X5.4724Y-5.5709
X5.4823Y-4.1732
X5.4823Y-4.8425
X5.4823Y-5.5118
X5.4921Y-4.5472
X5.4921Y-5.2165
X5.4921Y-5.8858
X5.5413Y-4.2618
X5.5413Y-4.9311
X5.5413Y-5.6004
X5.5561Y-4.188
X5.5561Y-4.8573
X5.5561Y-5.5266
X5.5768Y-4.5276
X5.5768Y-5.1969
X5.5768Y-5.8661
X6.6476Y-4.1339
X6.6476Y-4.8031
X6.6476Y-5.4724
X6.6683Y-4.4734
X6.6683Y-5.1427
X6.6683Y-5.812
X6.6831Y-4.3996
X6.6831Y-5.0689
X6.6831Y-5.7382
X6.7323Y-4.1142
X6.7323Y-4.7835
X6.7323Y-5.4528
X6.7421Y-4.4882
X6.7421Y-5.1575
X6.7421Y-5.8268
X6.752Y-4.4291
X6.752Y-4.5965
X6.752Y-5.0984
X6.752Y-5.2657
X6.752Y-5.7677
X6.752Y-5.935
X6.7618Y-4.2362
X6.7618Y-4.9055
X6.7618Y-5.5748
X6.8307Y-4.6063
X6.8307Y-5.2756
X6.8307Y-5.9449
X6.8504Y-4.4291
X6.8504Y-5.0984
X6.8504Y-5.7677
X6.8799Y-4.1339
X6.8799Y-4.8031
X6.8799Y-5.4724
X6.8898Y-4.4291
X6.8898Y-5.0984
X6.8898Y-5.7677
X6.8996Y-4.5276
X6.8996Y-5.1969
X6.8996Y-5.8661
X6.9065Y-4.3607
X6.9065Y-5.03
X6.9065Y-5.6993
X6.9094Y-4.0551
X6.9094Y-4.5768
X6.9094Y-4.7244
X6.9094Y-5.2461
X6.9094Y-5.3937
X6.9094Y-5.9154
X6.9115Y-4.2757
X6.9115Y-4.945
X6.9115Y-5.6143
T2
X5.653Y-4.0807
X5.653Y-4.1807
X5.653Y-4.2807
X5.653Y-4.3807
X5.653Y-4.4807
X5.653Y-4.5807
X5.653Y-4.75
X5.653Y-4.85
X5.653Y-4.95
X5.653Y-5.05
X5.653Y-5.15
X5.653Y-5.25
X5.653Y-5.4193
X5.653Y-5.5193
X5.653Y-5.6193
X5.653Y-5.7193
X5.653Y-5.8193
X5.653Y-5.9193
X6.5715Y-4.0807
X6.5715Y-4.1807
X6.5715Y-4.2807
X6.5715Y-4.3807
X6.5715Y-4.4807
X6.5715Y-4.5807
X6.5715Y-4.75
X6.5715Y-4.85
X6.5715Y-4.95
X6.5715Y-5.05
X6.5715Y-5.15
X6.5715Y-5.25
X6.5715Y-5.4193
X6.5715Y-5.5193
X6.5715Y-5.6193
X6.5715Y-5.7193
X6.5715Y-5.8193
X6.5715Y-5.9193
T3
X6.0572Y-4.785
X6.0572Y-4.89
X6.0572Y-5.
X6.0572Y-5.105
X6.0572Y-5.215
X6.1672Y-4.835
X6.1672Y-4.945
X6.1672Y-5.05
X6.1672Y-5.16
T4
X6.1122Y-4.505
X6.1122Y-5.49
T5
X5.187Y-4.626
X5.187Y-4.7047
X5.187Y-5.2953
X5.187Y-5.374
X5.2264Y-4.626
X5.2264Y-4.7047
X5.2264Y-5.2953
X5.2264Y-5.374
X5.2657Y-4.626
X5.2657Y-4.7047
X5.2657Y-5.2953
X5.2657Y-5.374
X5.7283Y-4.2717
X5.7283Y-4.311
X5.7283Y-4.3504
X5.7283Y-4.3898
X5.7283Y-4.9409
X5.7283Y-4.9803
X5.7283Y-5.0197
X5.7283Y-5.0591
X5.7283Y-5.6102
X5.7283Y-5.6496
X5.7283Y-5.689
X5.7283Y-5.7283
X6.4961Y-4.2717
X6.4961Y-4.311
X6.4961Y-4.3504
X6.4961Y-4.3898
X6.4961Y-4.9409
X6.4961Y-4.9803
X6.4961Y-5.0197
X6.4961Y-5.0591
X6.4961Y-5.6102
X6.4961Y-5.6496
X6.4961Y-5.689
X6.4961Y-5.7283
X6.9587Y-4.626
X6.9587Y-4.7047
X6.9587Y-5.2953
X6.9587Y-5.374
X6.998Y-4.626
X6.998Y-4.7047
X6.998Y-5.2953
X6.998Y-5.374
X7.0374Y-4.626
X7.0374Y-4.7047
X7.0374Y-5.2953
X7.0374Y-5.374
T6
X6.1122Y-4.1732
X6.1122Y-5.8268
T0
M30
