G04 #@! TF.FileFunction,Copper,L2,Bot,Signal*
%FSLAX46Y46*%
G04 Gerber Fmt 4.6, Leading zero omitted, Abs format (unit mm)*
G04 Created by KiCad (PCBNEW 4.0.2-stable) date 27/07/2016 9:39:40 PM*
%MOMM*%
G01*
G04 APERTURE LIST*
%ADD10C,0.100000*%
%ADD11R,1.250000X1.000000*%
%ADD12C,3.810000*%
%ADD13C,2.024000*%
%ADD14R,1.300000X0.700000*%
%ADD15R,0.700000X1.300000*%
%ADD16R,4.080000X1.778000*%
%ADD17R,2.032000X1.727200*%
%ADD18O,2.032000X1.727200*%
%ADD19C,0.800000*%
%ADD20C,0.600000*%
%ADD21C,0.450000*%
%ADD22C,0.250000*%
%ADD23C,0.500000*%
G04 APERTURE END LIST*
D10*
D11*
X170250000Y-116500000D03*
X170250000Y-114500000D03*
X170250000Y-133500000D03*
X170250000Y-131500000D03*
X140250000Y-137500000D03*
X140250000Y-139500000D03*
X140250000Y-120500000D03*
X140250000Y-122500000D03*
X140250000Y-103500000D03*
X140250000Y-105500000D03*
X170250000Y-150500000D03*
X170250000Y-148500000D03*
D12*
X155250000Y-139446000D03*
X155250000Y-114427000D03*
D13*
X153853000Y-132461000D03*
X153853000Y-129667000D03*
X153853000Y-127000000D03*
X153853000Y-124206000D03*
X153853000Y-121539000D03*
X156647000Y-131064000D03*
X156647000Y-128270000D03*
X156647000Y-125603000D03*
X156647000Y-122809000D03*
D14*
X170250000Y-141050000D03*
X170250000Y-142950000D03*
D15*
X174450000Y-150250000D03*
X172550000Y-150250000D03*
D14*
X170250000Y-137550000D03*
X170250000Y-139450000D03*
X170250000Y-146700000D03*
X170250000Y-144800000D03*
D15*
X172550000Y-140250000D03*
X174450000Y-140250000D03*
X172550000Y-137750000D03*
X174450000Y-137750000D03*
X172550000Y-147750000D03*
X174450000Y-147750000D03*
X172550000Y-145250000D03*
X174450000Y-145250000D03*
X172550000Y-142750000D03*
X174450000Y-142750000D03*
D16*
X178083000Y-141206000D03*
X178083000Y-144000000D03*
X178083000Y-146794000D03*
X178083000Y-149588000D03*
X178083000Y-138412000D03*
D17*
X166915000Y-150350000D03*
D18*
X166915000Y-147810000D03*
X166915000Y-145270000D03*
X166915000Y-142730000D03*
X166915000Y-140190000D03*
X166915000Y-137650000D03*
D17*
X166915000Y-116350000D03*
D18*
X166915000Y-113810000D03*
X166915000Y-111270000D03*
X166915000Y-108730000D03*
X166915000Y-106190000D03*
X166915000Y-103650000D03*
D16*
X178083000Y-107206000D03*
X178083000Y-110000000D03*
X178083000Y-112794000D03*
X178083000Y-115588000D03*
X178083000Y-104412000D03*
D15*
X172550000Y-108750000D03*
X174450000Y-108750000D03*
X172550000Y-111250000D03*
X174450000Y-111250000D03*
X172550000Y-113750000D03*
X174450000Y-113750000D03*
X172550000Y-103750000D03*
X174450000Y-103750000D03*
X172550000Y-106250000D03*
X174450000Y-106250000D03*
D14*
X170250000Y-112700000D03*
X170250000Y-110800000D03*
X170250000Y-103550000D03*
X170250000Y-105450000D03*
D15*
X174450000Y-116250000D03*
X172550000Y-116250000D03*
D14*
X170250000Y-107050000D03*
X170250000Y-108950000D03*
X170250000Y-124050000D03*
X170250000Y-125950000D03*
D15*
X174450000Y-133250000D03*
X172550000Y-133250000D03*
D14*
X170250000Y-120550000D03*
X170250000Y-122450000D03*
X170250000Y-129700000D03*
X170250000Y-127800000D03*
D15*
X172550000Y-123250000D03*
X174450000Y-123250000D03*
X172550000Y-120750000D03*
X174450000Y-120750000D03*
X172550000Y-130750000D03*
X174450000Y-130750000D03*
X172550000Y-128250000D03*
X174450000Y-128250000D03*
X172550000Y-125750000D03*
X174450000Y-125750000D03*
D16*
X178083000Y-124206000D03*
X178083000Y-127000000D03*
X178083000Y-129794000D03*
X178083000Y-132588000D03*
X178083000Y-121412000D03*
D17*
X166915000Y-133350000D03*
D18*
X166915000Y-130810000D03*
X166915000Y-128270000D03*
X166915000Y-125730000D03*
X166915000Y-123190000D03*
X166915000Y-120650000D03*
D17*
X143585000Y-120650000D03*
D18*
X143585000Y-123190000D03*
X143585000Y-125730000D03*
X143585000Y-128270000D03*
X143585000Y-130810000D03*
X143585000Y-133350000D03*
D16*
X132417000Y-129794000D03*
X132417000Y-127000000D03*
X132417000Y-124206000D03*
X132417000Y-121412000D03*
X132417000Y-132588000D03*
D15*
X137950000Y-128250000D03*
X136050000Y-128250000D03*
X137950000Y-125750000D03*
X136050000Y-125750000D03*
X137950000Y-123250000D03*
X136050000Y-123250000D03*
X137950000Y-133250000D03*
X136050000Y-133250000D03*
X137950000Y-130750000D03*
X136050000Y-130750000D03*
D14*
X140250000Y-124300000D03*
X140250000Y-126200000D03*
X140250000Y-133450000D03*
X140250000Y-131550000D03*
D15*
X136050000Y-120750000D03*
X137950000Y-120750000D03*
D14*
X140250000Y-129950000D03*
X140250000Y-128050000D03*
X140250000Y-146950000D03*
X140250000Y-145050000D03*
D15*
X136050000Y-137750000D03*
X137950000Y-137750000D03*
D14*
X140250000Y-150450000D03*
X140250000Y-148550000D03*
X140250000Y-141300000D03*
X140250000Y-143200000D03*
D15*
X137950000Y-147750000D03*
X136050000Y-147750000D03*
X137950000Y-150250000D03*
X136050000Y-150250000D03*
X137950000Y-140250000D03*
X136050000Y-140250000D03*
X137950000Y-142750000D03*
X136050000Y-142750000D03*
X137950000Y-145250000D03*
X136050000Y-145250000D03*
D16*
X132417000Y-146794000D03*
X132417000Y-144000000D03*
X132417000Y-141206000D03*
X132417000Y-138412000D03*
X132417000Y-149588000D03*
D17*
X143585000Y-137650000D03*
D18*
X143585000Y-140190000D03*
X143585000Y-142730000D03*
X143585000Y-145270000D03*
X143585000Y-147810000D03*
X143585000Y-150350000D03*
D17*
X143585000Y-103650000D03*
D18*
X143585000Y-106190000D03*
X143585000Y-108730000D03*
X143585000Y-111270000D03*
X143585000Y-113810000D03*
X143585000Y-116350000D03*
D16*
X132417000Y-112794000D03*
X132417000Y-110000000D03*
X132417000Y-107206000D03*
X132417000Y-104412000D03*
X132417000Y-115588000D03*
D15*
X137950000Y-111250000D03*
X136050000Y-111250000D03*
X137950000Y-108750000D03*
X136050000Y-108750000D03*
X137950000Y-106250000D03*
X136050000Y-106250000D03*
X137950000Y-116250000D03*
X136050000Y-116250000D03*
X137950000Y-113750000D03*
X136050000Y-113750000D03*
D14*
X140250000Y-107300000D03*
X140250000Y-109200000D03*
X140250000Y-116450000D03*
X140250000Y-114550000D03*
D15*
X136050000Y-103750000D03*
X137950000Y-103750000D03*
D14*
X140250000Y-112950000D03*
X140250000Y-111050000D03*
D19*
X175500000Y-150250000D03*
X175500000Y-116250000D03*
X175500000Y-133250000D03*
X135000000Y-120750000D03*
X135000000Y-137750000D03*
X135000000Y-103750000D03*
X171250000Y-148000000D03*
X169375000Y-147625000D03*
X169375000Y-113625000D03*
X171250000Y-114000000D03*
X171250000Y-131000000D03*
X169375000Y-130625000D03*
X141125000Y-123375000D03*
X139250000Y-123000000D03*
X139250000Y-140000000D03*
X141125000Y-140375000D03*
X141125000Y-106375000D03*
X139250000Y-106000000D03*
D20*
X175250000Y-149000000D03*
X175500000Y-103000000D03*
X175250000Y-115000000D03*
X175250000Y-132000000D03*
X175500000Y-120000000D03*
X175500000Y-137000000D03*
X135000000Y-117000000D03*
X135000000Y-134000000D03*
X135250000Y-122000000D03*
X135250000Y-139000000D03*
X135000000Y-151000000D03*
X135250000Y-105000000D03*
X174000000Y-146500000D03*
X174000000Y-112500000D03*
X174000000Y-129500000D03*
X136500000Y-124500000D03*
X136500000Y-141500000D03*
X136500000Y-107500000D03*
X175000000Y-146500000D03*
X175000000Y-112500000D03*
X175000000Y-129500000D03*
X135500000Y-124500000D03*
X135500000Y-141500000D03*
X135500000Y-107500000D03*
X175424000Y-144762000D03*
X175424000Y-110762000D03*
X175424000Y-127762000D03*
X135076000Y-126238000D03*
X135076000Y-143238000D03*
X135076000Y-109238000D03*
X174750000Y-139000000D03*
X171000000Y-138500000D03*
X168850000Y-139000000D03*
X168850000Y-105000000D03*
X171000000Y-104500000D03*
X174750000Y-105000000D03*
X174750000Y-122000000D03*
X171000000Y-121500000D03*
X168850000Y-122000000D03*
X141650000Y-132000000D03*
X139500000Y-132500000D03*
X135750000Y-132000000D03*
X135750000Y-149000000D03*
X139500000Y-149500000D03*
X141650000Y-149000000D03*
X141650000Y-115000000D03*
X139500000Y-115500000D03*
X135750000Y-115000000D03*
X175551000Y-142603000D03*
X175551000Y-108603000D03*
X175551000Y-125603000D03*
X134949000Y-128397000D03*
X134949000Y-145397000D03*
X134949000Y-111397000D03*
X171500000Y-150750000D03*
X171500000Y-116750000D03*
X171500000Y-133750000D03*
X139000000Y-120250000D03*
X139000000Y-137250000D03*
X139000000Y-103250000D03*
X169750000Y-145750000D03*
X169750000Y-111750000D03*
X169750000Y-128750000D03*
X140750000Y-125250000D03*
X140750000Y-142250000D03*
X140750000Y-108250000D03*
X171750000Y-141600000D03*
X171750000Y-107600000D03*
X171750000Y-124600000D03*
X138750000Y-129400000D03*
X138750000Y-146400000D03*
X138750000Y-112400000D03*
X173500000Y-151000000D03*
X173500000Y-117000000D03*
X173500000Y-134000000D03*
X137000000Y-120000000D03*
X137000000Y-137000000D03*
X137000000Y-103000000D03*
X171500000Y-146500000D03*
X171500000Y-112500000D03*
X171500000Y-129500000D03*
X139000000Y-124500000D03*
X139000000Y-141500000D03*
X139000000Y-107500000D03*
D21*
X172550000Y-137750000D02*
X172550000Y-140250000D01*
X172550000Y-140250000D02*
X172550000Y-142750000D01*
X172550000Y-142750000D02*
X172550000Y-145250000D01*
X172550000Y-145250000D02*
X172550000Y-147750000D01*
D22*
X172490000Y-140190000D02*
X172550000Y-140250000D01*
D21*
X172550000Y-148492000D02*
X172550000Y-147750000D01*
X172779000Y-148721000D02*
X172550000Y-148492000D01*
X174450000Y-150392000D02*
X172779000Y-148721000D01*
D22*
X174450000Y-150250000D02*
X174450000Y-150392000D01*
X172550000Y-147750000D02*
X172550000Y-148200000D01*
D21*
X172550000Y-137300000D02*
X172550000Y-137750000D01*
X172000000Y-136750000D02*
X172550000Y-137300000D01*
X169250000Y-136750000D02*
X172000000Y-136750000D01*
X168750000Y-137250000D02*
X169250000Y-136750000D01*
X168750000Y-138000000D02*
X168750000Y-137250000D01*
X175500000Y-150250000D02*
X174450000Y-150250000D01*
D22*
X174450000Y-150250000D02*
X174450000Y-150550000D01*
X176162000Y-149588000D02*
X178083000Y-149588000D01*
D21*
X175500000Y-150250000D02*
X176162000Y-149588000D01*
D23*
X172550000Y-148200000D02*
X172550000Y-147750000D01*
D22*
X170700000Y-146700000D02*
X171250000Y-147250000D01*
X172050000Y-147250000D02*
X172550000Y-147750000D01*
X171250000Y-147250000D02*
X172050000Y-147250000D01*
D21*
X166915000Y-140085000D02*
X166915000Y-140190000D01*
X168750000Y-138000000D02*
X167040000Y-139710000D01*
D22*
X172550000Y-147500002D02*
X172550000Y-147750000D01*
X172299998Y-147250000D02*
X172550000Y-147500002D01*
X171250000Y-147250000D02*
X172299998Y-147250000D01*
D21*
X170542000Y-150500000D02*
X170250000Y-150500000D01*
X172271000Y-148771000D02*
X170542000Y-150500000D01*
X172550000Y-148492000D02*
X172271000Y-148771000D01*
X172321000Y-148721000D02*
X172779000Y-148721000D01*
X172271000Y-148771000D02*
X172321000Y-148721000D01*
X177671000Y-150000000D02*
X178083000Y-149588000D01*
X175750000Y-150000000D02*
X177671000Y-150000000D01*
X175500000Y-150250000D02*
X175750000Y-150000000D01*
X175500000Y-116250000D02*
X175750000Y-116000000D01*
X175750000Y-116000000D02*
X177671000Y-116000000D01*
X177671000Y-116000000D02*
X178083000Y-115588000D01*
X172271000Y-114771000D02*
X172321000Y-114721000D01*
X172321000Y-114721000D02*
X172779000Y-114721000D01*
X172550000Y-114492000D02*
X172271000Y-114771000D01*
X172271000Y-114771000D02*
X170542000Y-116500000D01*
X170542000Y-116500000D02*
X170250000Y-116500000D01*
D22*
X171250000Y-113250000D02*
X172299998Y-113250000D01*
X172299998Y-113250000D02*
X172550000Y-113500002D01*
X172550000Y-113500002D02*
X172550000Y-113750000D01*
D21*
X168750000Y-104000000D02*
X167040000Y-105710000D01*
X166915000Y-106085000D02*
X166915000Y-106190000D01*
D22*
X171250000Y-113250000D02*
X172050000Y-113250000D01*
X172050000Y-113250000D02*
X172550000Y-113750000D01*
X170700000Y-112700000D02*
X171250000Y-113250000D01*
D23*
X172550000Y-114200000D02*
X172550000Y-113750000D01*
D21*
X175500000Y-116250000D02*
X176162000Y-115588000D01*
D22*
X176162000Y-115588000D02*
X178083000Y-115588000D01*
X174450000Y-116250000D02*
X174450000Y-116550000D01*
D21*
X175500000Y-116250000D02*
X174450000Y-116250000D01*
X168750000Y-104000000D02*
X168750000Y-103250000D01*
X168750000Y-103250000D02*
X169250000Y-102750000D01*
X169250000Y-102750000D02*
X172000000Y-102750000D01*
X172000000Y-102750000D02*
X172550000Y-103300000D01*
X172550000Y-103300000D02*
X172550000Y-103750000D01*
D22*
X172550000Y-113750000D02*
X172550000Y-114200000D01*
X174450000Y-116250000D02*
X174450000Y-116392000D01*
D21*
X174450000Y-116392000D02*
X172779000Y-114721000D01*
X172779000Y-114721000D02*
X172550000Y-114492000D01*
X172550000Y-114492000D02*
X172550000Y-113750000D01*
D22*
X172490000Y-106190000D02*
X172550000Y-106250000D01*
D21*
X172550000Y-111250000D02*
X172550000Y-113750000D01*
X172550000Y-108750000D02*
X172550000Y-111250000D01*
X172550000Y-106250000D02*
X172550000Y-108750000D01*
X172550000Y-103750000D02*
X172550000Y-106250000D01*
X172550000Y-120750000D02*
X172550000Y-123250000D01*
X172550000Y-123250000D02*
X172550000Y-125750000D01*
X172550000Y-125750000D02*
X172550000Y-128250000D01*
X172550000Y-128250000D02*
X172550000Y-130750000D01*
D22*
X172490000Y-123190000D02*
X172550000Y-123250000D01*
D21*
X172550000Y-131492000D02*
X172550000Y-130750000D01*
X172779000Y-131721000D02*
X172550000Y-131492000D01*
X174450000Y-133392000D02*
X172779000Y-131721000D01*
D22*
X174450000Y-133250000D02*
X174450000Y-133392000D01*
X172550000Y-130750000D02*
X172550000Y-131200000D01*
D21*
X172550000Y-120300000D02*
X172550000Y-120750000D01*
X172000000Y-119750000D02*
X172550000Y-120300000D01*
X169250000Y-119750000D02*
X172000000Y-119750000D01*
X168750000Y-120250000D02*
X169250000Y-119750000D01*
X168750000Y-121000000D02*
X168750000Y-120250000D01*
X175500000Y-133250000D02*
X174450000Y-133250000D01*
D22*
X174450000Y-133250000D02*
X174450000Y-133550000D01*
X176162000Y-132588000D02*
X178083000Y-132588000D01*
D21*
X175500000Y-133250000D02*
X176162000Y-132588000D01*
D23*
X172550000Y-131200000D02*
X172550000Y-130750000D01*
D22*
X170700000Y-129700000D02*
X171250000Y-130250000D01*
X172050000Y-130250000D02*
X172550000Y-130750000D01*
X171250000Y-130250000D02*
X172050000Y-130250000D01*
D21*
X166915000Y-123085000D02*
X166915000Y-123190000D01*
X168750000Y-121000000D02*
X167040000Y-122710000D01*
D22*
X172550000Y-130500002D02*
X172550000Y-130750000D01*
X172299998Y-130250000D02*
X172550000Y-130500002D01*
X171250000Y-130250000D02*
X172299998Y-130250000D01*
D21*
X170542000Y-133500000D02*
X170250000Y-133500000D01*
X172271000Y-131771000D02*
X170542000Y-133500000D01*
X172550000Y-131492000D02*
X172271000Y-131771000D01*
X172321000Y-131721000D02*
X172779000Y-131721000D01*
X172271000Y-131771000D02*
X172321000Y-131721000D01*
X177671000Y-133000000D02*
X178083000Y-132588000D01*
X175750000Y-133000000D02*
X177671000Y-133000000D01*
X175500000Y-133250000D02*
X175750000Y-133000000D01*
X135000000Y-120750000D02*
X134750000Y-121000000D01*
X134750000Y-121000000D02*
X132829000Y-121000000D01*
X132829000Y-121000000D02*
X132417000Y-121412000D01*
X138229000Y-122229000D02*
X138179000Y-122279000D01*
X138179000Y-122279000D02*
X137721000Y-122279000D01*
X137950000Y-122508000D02*
X138229000Y-122229000D01*
X138229000Y-122229000D02*
X139958000Y-120500000D01*
X139958000Y-120500000D02*
X140250000Y-120500000D01*
D22*
X139250000Y-123750000D02*
X138200002Y-123750000D01*
X138200002Y-123750000D02*
X137950000Y-123499998D01*
X137950000Y-123499998D02*
X137950000Y-123250000D01*
D21*
X141750000Y-133000000D02*
X143460000Y-131290000D01*
X143585000Y-130915000D02*
X143585000Y-130810000D01*
D22*
X139250000Y-123750000D02*
X138450000Y-123750000D01*
X138450000Y-123750000D02*
X137950000Y-123250000D01*
X139800000Y-124300000D02*
X139250000Y-123750000D01*
D23*
X137950000Y-122800000D02*
X137950000Y-123250000D01*
D21*
X135000000Y-120750000D02*
X134338000Y-121412000D01*
D22*
X134338000Y-121412000D02*
X132417000Y-121412000D01*
X136050000Y-120750000D02*
X136050000Y-120450000D01*
D21*
X135000000Y-120750000D02*
X136050000Y-120750000D01*
X141750000Y-133000000D02*
X141750000Y-133750000D01*
X141750000Y-133750000D02*
X141250000Y-134250000D01*
X141250000Y-134250000D02*
X138500000Y-134250000D01*
X138500000Y-134250000D02*
X137950000Y-133700000D01*
X137950000Y-133700000D02*
X137950000Y-133250000D01*
D22*
X137950000Y-123250000D02*
X137950000Y-122800000D01*
X136050000Y-120750000D02*
X136050000Y-120608000D01*
D21*
X136050000Y-120608000D02*
X137721000Y-122279000D01*
X137721000Y-122279000D02*
X137950000Y-122508000D01*
X137950000Y-122508000D02*
X137950000Y-123250000D01*
D22*
X138010000Y-130810000D02*
X137950000Y-130750000D01*
D21*
X137950000Y-125750000D02*
X137950000Y-123250000D01*
X137950000Y-128250000D02*
X137950000Y-125750000D01*
X137950000Y-130750000D02*
X137950000Y-128250000D01*
X137950000Y-133250000D02*
X137950000Y-130750000D01*
X137950000Y-150250000D02*
X137950000Y-147750000D01*
X137950000Y-147750000D02*
X137950000Y-145250000D01*
X137950000Y-145250000D02*
X137950000Y-142750000D01*
X137950000Y-142750000D02*
X137950000Y-140250000D01*
D22*
X138010000Y-147810000D02*
X137950000Y-147750000D01*
D21*
X137950000Y-139508000D02*
X137950000Y-140250000D01*
X137721000Y-139279000D02*
X137950000Y-139508000D01*
X136050000Y-137608000D02*
X137721000Y-139279000D01*
D22*
X136050000Y-137750000D02*
X136050000Y-137608000D01*
X137950000Y-140250000D02*
X137950000Y-139800000D01*
D21*
X137950000Y-150700000D02*
X137950000Y-150250000D01*
X138500000Y-151250000D02*
X137950000Y-150700000D01*
X141250000Y-151250000D02*
X138500000Y-151250000D01*
X141750000Y-150750000D02*
X141250000Y-151250000D01*
X141750000Y-150000000D02*
X141750000Y-150750000D01*
X135000000Y-137750000D02*
X136050000Y-137750000D01*
D22*
X136050000Y-137750000D02*
X136050000Y-137450000D01*
X134338000Y-138412000D02*
X132417000Y-138412000D01*
D21*
X135000000Y-137750000D02*
X134338000Y-138412000D01*
D23*
X137950000Y-139800000D02*
X137950000Y-140250000D01*
D22*
X139800000Y-141300000D02*
X139250000Y-140750000D01*
X138450000Y-140750000D02*
X137950000Y-140250000D01*
X139250000Y-140750000D02*
X138450000Y-140750000D01*
D21*
X143585000Y-147915000D02*
X143585000Y-147810000D01*
X141750000Y-150000000D02*
X143460000Y-148290000D01*
D22*
X137950000Y-140499998D02*
X137950000Y-140250000D01*
X138200002Y-140750000D02*
X137950000Y-140499998D01*
X139250000Y-140750000D02*
X138200002Y-140750000D01*
D21*
X139958000Y-137500000D02*
X140250000Y-137500000D01*
X138229000Y-139229000D02*
X139958000Y-137500000D01*
X137950000Y-139508000D02*
X138229000Y-139229000D01*
X138179000Y-139279000D02*
X137721000Y-139279000D01*
X138229000Y-139229000D02*
X138179000Y-139279000D01*
X132829000Y-138000000D02*
X132417000Y-138412000D01*
X134750000Y-138000000D02*
X132829000Y-138000000D01*
X135000000Y-137750000D02*
X134750000Y-138000000D01*
X135000000Y-103750000D02*
X134750000Y-104000000D01*
X134750000Y-104000000D02*
X132829000Y-104000000D01*
X132829000Y-104000000D02*
X132417000Y-104412000D01*
X138229000Y-105229000D02*
X138179000Y-105279000D01*
X138179000Y-105279000D02*
X137721000Y-105279000D01*
X137950000Y-105508000D02*
X138229000Y-105229000D01*
X138229000Y-105229000D02*
X139958000Y-103500000D01*
X139958000Y-103500000D02*
X140250000Y-103500000D01*
D22*
X139250000Y-106750000D02*
X138200002Y-106750000D01*
X138200002Y-106750000D02*
X137950000Y-106499998D01*
X137950000Y-106499998D02*
X137950000Y-106250000D01*
D21*
X141750000Y-116000000D02*
X143460000Y-114290000D01*
X143585000Y-113915000D02*
X143585000Y-113810000D01*
D22*
X139250000Y-106750000D02*
X138450000Y-106750000D01*
X138450000Y-106750000D02*
X137950000Y-106250000D01*
X139800000Y-107300000D02*
X139250000Y-106750000D01*
D23*
X137950000Y-105800000D02*
X137950000Y-106250000D01*
D21*
X135000000Y-103750000D02*
X134338000Y-104412000D01*
D22*
X134338000Y-104412000D02*
X132417000Y-104412000D01*
X136050000Y-103750000D02*
X136050000Y-103450000D01*
D21*
X135000000Y-103750000D02*
X136050000Y-103750000D01*
X141750000Y-116000000D02*
X141750000Y-116750000D01*
X141750000Y-116750000D02*
X141250000Y-117250000D01*
X141250000Y-117250000D02*
X138500000Y-117250000D01*
X138500000Y-117250000D02*
X137950000Y-116700000D01*
X137950000Y-116700000D02*
X137950000Y-116250000D01*
D22*
X137950000Y-106250000D02*
X137950000Y-105800000D01*
X136050000Y-103750000D02*
X136050000Y-103608000D01*
D21*
X136050000Y-103608000D02*
X137721000Y-105279000D01*
X137721000Y-105279000D02*
X137950000Y-105508000D01*
X137950000Y-105508000D02*
X137950000Y-106250000D01*
D22*
X138010000Y-113810000D02*
X137950000Y-113750000D01*
D21*
X137950000Y-108750000D02*
X137950000Y-106250000D01*
X137950000Y-111250000D02*
X137950000Y-108750000D01*
X137950000Y-113750000D02*
X137950000Y-111250000D01*
X137950000Y-116250000D02*
X137950000Y-113750000D01*
D22*
X166915000Y-145270000D02*
X167020000Y-145270000D01*
X170750000Y-148500000D02*
X170250000Y-148500000D01*
D21*
X170250000Y-139450000D02*
X170050000Y-139450000D01*
X170750000Y-148500000D02*
X171250000Y-148000000D01*
X169800000Y-139450000D02*
X170250000Y-139450000D01*
X169000000Y-147250000D02*
X170250000Y-148500000D01*
X169000000Y-146250000D02*
X169000000Y-147250000D01*
X169000000Y-146000000D02*
X169000000Y-146250000D01*
X169000000Y-145250000D02*
X169000000Y-146000000D01*
X169000000Y-140250000D02*
X169800000Y-139450000D01*
X169000000Y-144500000D02*
X169000000Y-145250000D01*
X169000000Y-144250000D02*
X169000000Y-144500000D01*
X169000000Y-143000000D02*
X169000000Y-144250000D01*
X169000000Y-140250000D02*
X169000000Y-143000000D01*
X169000000Y-145270000D02*
X169000000Y-145250000D01*
X166915000Y-145270000D02*
X169000000Y-145270000D01*
X168500000Y-145500000D02*
X169000000Y-146000000D01*
X168250000Y-145500000D02*
X168500000Y-145500000D01*
X167145000Y-145500000D02*
X168250000Y-145500000D01*
X166915000Y-145270000D02*
X167145000Y-145500000D01*
X168500000Y-145000000D02*
X169000000Y-144500000D01*
X168250000Y-145000000D02*
X168500000Y-145000000D01*
X167185000Y-145000000D02*
X168250000Y-145000000D01*
X166915000Y-145270000D02*
X167185000Y-145000000D01*
X168750000Y-146750000D02*
X168750000Y-140500000D01*
X168750000Y-147000000D02*
X168750000Y-146750000D01*
X168750000Y-140500000D02*
X169000000Y-140250000D01*
X169000000Y-147250000D02*
X168750000Y-147000000D01*
X168750000Y-147250000D02*
X168750000Y-146750000D01*
X169125000Y-147625000D02*
X168750000Y-147250000D01*
X170000000Y-148500000D02*
X169125000Y-147625000D01*
X170250000Y-148500000D02*
X170000000Y-148500000D01*
X168250000Y-145500000D02*
X169000000Y-146250000D01*
X168250000Y-145000000D02*
X169000000Y-144250000D01*
X169000000Y-142950000D02*
X169000000Y-143000000D01*
X170250000Y-142950000D02*
X169000000Y-142950000D01*
D22*
X169125000Y-147625000D02*
X169375000Y-147625000D01*
D21*
X169750000Y-148000000D02*
X170250000Y-148500000D01*
X169000000Y-148000000D02*
X169750000Y-148000000D01*
X168750000Y-147750000D02*
X169000000Y-148000000D01*
X168750000Y-147250000D02*
X168750000Y-147750000D01*
X167770000Y-145270000D02*
X166915000Y-145270000D01*
X168500000Y-146000000D02*
X167770000Y-145270000D01*
X168500000Y-147500000D02*
X168500000Y-146000000D01*
X169000000Y-148000000D02*
X168500000Y-147500000D01*
X167730000Y-145270000D02*
X166915000Y-145270000D01*
X168500000Y-144500000D02*
X167730000Y-145270000D01*
X168500000Y-140750000D02*
X168500000Y-144500000D01*
X168750000Y-140500000D02*
X168500000Y-140750000D01*
X168750000Y-106500000D02*
X168500000Y-106750000D01*
X168500000Y-106750000D02*
X168500000Y-110500000D01*
X168500000Y-110500000D02*
X167730000Y-111270000D01*
X167730000Y-111270000D02*
X166915000Y-111270000D01*
X169000000Y-114000000D02*
X168500000Y-113500000D01*
X168500000Y-113500000D02*
X168500000Y-112000000D01*
X168500000Y-112000000D02*
X167770000Y-111270000D01*
X167770000Y-111270000D02*
X166915000Y-111270000D01*
X168750000Y-113250000D02*
X168750000Y-113750000D01*
X168750000Y-113750000D02*
X169000000Y-114000000D01*
X169000000Y-114000000D02*
X169750000Y-114000000D01*
X169750000Y-114000000D02*
X170250000Y-114500000D01*
D22*
X169125000Y-113625000D02*
X169375000Y-113625000D01*
D21*
X170250000Y-108950000D02*
X169000000Y-108950000D01*
X169000000Y-108950000D02*
X169000000Y-109000000D01*
X168250000Y-111000000D02*
X169000000Y-110250000D01*
X168250000Y-111500000D02*
X169000000Y-112250000D01*
X170250000Y-114500000D02*
X170000000Y-114500000D01*
X170000000Y-114500000D02*
X169125000Y-113625000D01*
X169125000Y-113625000D02*
X168750000Y-113250000D01*
X168750000Y-113250000D02*
X168750000Y-112750000D01*
X169000000Y-113250000D02*
X168750000Y-113000000D01*
X168750000Y-106500000D02*
X169000000Y-106250000D01*
X168750000Y-113000000D02*
X168750000Y-112750000D01*
X168750000Y-112750000D02*
X168750000Y-106500000D01*
X166915000Y-111270000D02*
X167185000Y-111000000D01*
X167185000Y-111000000D02*
X168250000Y-111000000D01*
X168250000Y-111000000D02*
X168500000Y-111000000D01*
X168500000Y-111000000D02*
X169000000Y-110500000D01*
X166915000Y-111270000D02*
X167145000Y-111500000D01*
X167145000Y-111500000D02*
X168250000Y-111500000D01*
X168250000Y-111500000D02*
X168500000Y-111500000D01*
X168500000Y-111500000D02*
X169000000Y-112000000D01*
X166915000Y-111270000D02*
X169000000Y-111270000D01*
X169000000Y-111270000D02*
X169000000Y-111250000D01*
X169000000Y-106250000D02*
X169000000Y-109000000D01*
X169000000Y-109000000D02*
X169000000Y-110250000D01*
X169000000Y-110250000D02*
X169000000Y-110500000D01*
X169000000Y-110500000D02*
X169000000Y-111250000D01*
X169000000Y-106250000D02*
X169800000Y-105450000D01*
X169000000Y-111250000D02*
X169000000Y-112000000D01*
X169000000Y-112000000D02*
X169000000Y-112250000D01*
X169000000Y-112250000D02*
X169000000Y-113250000D01*
X169000000Y-113250000D02*
X170250000Y-114500000D01*
X169800000Y-105450000D02*
X170250000Y-105450000D01*
X170750000Y-114500000D02*
X171250000Y-114000000D01*
X170250000Y-105450000D02*
X170050000Y-105450000D01*
D22*
X170750000Y-114500000D02*
X170250000Y-114500000D01*
X166915000Y-111270000D02*
X167020000Y-111270000D01*
X166915000Y-128270000D02*
X167020000Y-128270000D01*
X170750000Y-131500000D02*
X170250000Y-131500000D01*
D21*
X170250000Y-122450000D02*
X170050000Y-122450000D01*
X170750000Y-131500000D02*
X171250000Y-131000000D01*
X169800000Y-122450000D02*
X170250000Y-122450000D01*
X169000000Y-130250000D02*
X170250000Y-131500000D01*
X169000000Y-129250000D02*
X169000000Y-130250000D01*
X169000000Y-129000000D02*
X169000000Y-129250000D01*
X169000000Y-128250000D02*
X169000000Y-129000000D01*
X169000000Y-123250000D02*
X169800000Y-122450000D01*
X169000000Y-127500000D02*
X169000000Y-128250000D01*
X169000000Y-127250000D02*
X169000000Y-127500000D01*
X169000000Y-126000000D02*
X169000000Y-127250000D01*
X169000000Y-123250000D02*
X169000000Y-126000000D01*
X169000000Y-128270000D02*
X169000000Y-128250000D01*
X166915000Y-128270000D02*
X169000000Y-128270000D01*
X168500000Y-128500000D02*
X169000000Y-129000000D01*
X168250000Y-128500000D02*
X168500000Y-128500000D01*
X167145000Y-128500000D02*
X168250000Y-128500000D01*
X166915000Y-128270000D02*
X167145000Y-128500000D01*
X168500000Y-128000000D02*
X169000000Y-127500000D01*
X168250000Y-128000000D02*
X168500000Y-128000000D01*
X167185000Y-128000000D02*
X168250000Y-128000000D01*
X166915000Y-128270000D02*
X167185000Y-128000000D01*
X168750000Y-129750000D02*
X168750000Y-123500000D01*
X168750000Y-130000000D02*
X168750000Y-129750000D01*
X168750000Y-123500000D02*
X169000000Y-123250000D01*
X169000000Y-130250000D02*
X168750000Y-130000000D01*
X168750000Y-130250000D02*
X168750000Y-129750000D01*
X169125000Y-130625000D02*
X168750000Y-130250000D01*
X170000000Y-131500000D02*
X169125000Y-130625000D01*
X170250000Y-131500000D02*
X170000000Y-131500000D01*
X168250000Y-128500000D02*
X169000000Y-129250000D01*
X168250000Y-128000000D02*
X169000000Y-127250000D01*
X169000000Y-125950000D02*
X169000000Y-126000000D01*
X170250000Y-125950000D02*
X169000000Y-125950000D01*
D22*
X169125000Y-130625000D02*
X169375000Y-130625000D01*
D21*
X169750000Y-131000000D02*
X170250000Y-131500000D01*
X169000000Y-131000000D02*
X169750000Y-131000000D01*
X168750000Y-130750000D02*
X169000000Y-131000000D01*
X168750000Y-130250000D02*
X168750000Y-130750000D01*
X167770000Y-128270000D02*
X166915000Y-128270000D01*
X168500000Y-129000000D02*
X167770000Y-128270000D01*
X168500000Y-130500000D02*
X168500000Y-129000000D01*
X169000000Y-131000000D02*
X168500000Y-130500000D01*
X167730000Y-128270000D02*
X166915000Y-128270000D01*
X168500000Y-127500000D02*
X167730000Y-128270000D01*
X168500000Y-123750000D02*
X168500000Y-127500000D01*
X168750000Y-123500000D02*
X168500000Y-123750000D01*
X141750000Y-130500000D02*
X142000000Y-130250000D01*
X142000000Y-130250000D02*
X142000000Y-126500000D01*
X142000000Y-126500000D02*
X142770000Y-125730000D01*
X142770000Y-125730000D02*
X143585000Y-125730000D01*
X141500000Y-123000000D02*
X142000000Y-123500000D01*
X142000000Y-123500000D02*
X142000000Y-125000000D01*
X142000000Y-125000000D02*
X142730000Y-125730000D01*
X142730000Y-125730000D02*
X143585000Y-125730000D01*
X141750000Y-123750000D02*
X141750000Y-123250000D01*
X141750000Y-123250000D02*
X141500000Y-123000000D01*
X141500000Y-123000000D02*
X140750000Y-123000000D01*
X140750000Y-123000000D02*
X140250000Y-122500000D01*
D22*
X141375000Y-123375000D02*
X141125000Y-123375000D01*
D21*
X140250000Y-128050000D02*
X141500000Y-128050000D01*
X141500000Y-128050000D02*
X141500000Y-128000000D01*
X142250000Y-126000000D02*
X141500000Y-126750000D01*
X142250000Y-125500000D02*
X141500000Y-124750000D01*
X140250000Y-122500000D02*
X140500000Y-122500000D01*
X140500000Y-122500000D02*
X141375000Y-123375000D01*
X141375000Y-123375000D02*
X141750000Y-123750000D01*
X141750000Y-123750000D02*
X141750000Y-124250000D01*
X141500000Y-123750000D02*
X141750000Y-124000000D01*
X141750000Y-130500000D02*
X141500000Y-130750000D01*
X141750000Y-124000000D02*
X141750000Y-124250000D01*
X141750000Y-124250000D02*
X141750000Y-130500000D01*
X143585000Y-125730000D02*
X143315000Y-126000000D01*
X143315000Y-126000000D02*
X142250000Y-126000000D01*
X142250000Y-126000000D02*
X142000000Y-126000000D01*
X142000000Y-126000000D02*
X141500000Y-126500000D01*
X143585000Y-125730000D02*
X143355000Y-125500000D01*
X143355000Y-125500000D02*
X142250000Y-125500000D01*
X142250000Y-125500000D02*
X142000000Y-125500000D01*
X142000000Y-125500000D02*
X141500000Y-125000000D01*
X143585000Y-125730000D02*
X141500000Y-125730000D01*
X141500000Y-125730000D02*
X141500000Y-125750000D01*
X141500000Y-130750000D02*
X141500000Y-128000000D01*
X141500000Y-128000000D02*
X141500000Y-126750000D01*
X141500000Y-126750000D02*
X141500000Y-126500000D01*
X141500000Y-126500000D02*
X141500000Y-125750000D01*
X141500000Y-130750000D02*
X140700000Y-131550000D01*
X141500000Y-125750000D02*
X141500000Y-125000000D01*
X141500000Y-125000000D02*
X141500000Y-124750000D01*
X141500000Y-124750000D02*
X141500000Y-123750000D01*
X141500000Y-123750000D02*
X140250000Y-122500000D01*
X140700000Y-131550000D02*
X140250000Y-131550000D01*
X139750000Y-122500000D02*
X139250000Y-123000000D01*
X140250000Y-131550000D02*
X140450000Y-131550000D01*
D22*
X139750000Y-122500000D02*
X140250000Y-122500000D01*
X143585000Y-125730000D02*
X143480000Y-125730000D01*
X143585000Y-142730000D02*
X143480000Y-142730000D01*
X139750000Y-139500000D02*
X140250000Y-139500000D01*
D21*
X140250000Y-148550000D02*
X140450000Y-148550000D01*
X139750000Y-139500000D02*
X139250000Y-140000000D01*
X140700000Y-148550000D02*
X140250000Y-148550000D01*
X141500000Y-140750000D02*
X140250000Y-139500000D01*
X141500000Y-141750000D02*
X141500000Y-140750000D01*
X141500000Y-142000000D02*
X141500000Y-141750000D01*
X141500000Y-142750000D02*
X141500000Y-142000000D01*
X141500000Y-147750000D02*
X140700000Y-148550000D01*
X141500000Y-143500000D02*
X141500000Y-142750000D01*
X141500000Y-143750000D02*
X141500000Y-143500000D01*
X141500000Y-145000000D02*
X141500000Y-143750000D01*
X141500000Y-147750000D02*
X141500000Y-145000000D01*
X141500000Y-142730000D02*
X141500000Y-142750000D01*
X143585000Y-142730000D02*
X141500000Y-142730000D01*
X142000000Y-142500000D02*
X141500000Y-142000000D01*
X142250000Y-142500000D02*
X142000000Y-142500000D01*
X143355000Y-142500000D02*
X142250000Y-142500000D01*
X143585000Y-142730000D02*
X143355000Y-142500000D01*
X142000000Y-143000000D02*
X141500000Y-143500000D01*
X142250000Y-143000000D02*
X142000000Y-143000000D01*
X143315000Y-143000000D02*
X142250000Y-143000000D01*
X143585000Y-142730000D02*
X143315000Y-143000000D01*
X141750000Y-141250000D02*
X141750000Y-147500000D01*
X141750000Y-141000000D02*
X141750000Y-141250000D01*
X141750000Y-147500000D02*
X141500000Y-147750000D01*
X141500000Y-140750000D02*
X141750000Y-141000000D01*
X141750000Y-140750000D02*
X141750000Y-141250000D01*
X141375000Y-140375000D02*
X141750000Y-140750000D01*
X140500000Y-139500000D02*
X141375000Y-140375000D01*
X140250000Y-139500000D02*
X140500000Y-139500000D01*
X142250000Y-142500000D02*
X141500000Y-141750000D01*
X142250000Y-143000000D02*
X141500000Y-143750000D01*
X141500000Y-145050000D02*
X141500000Y-145000000D01*
X140250000Y-145050000D02*
X141500000Y-145050000D01*
D22*
X141375000Y-140375000D02*
X141125000Y-140375000D01*
D21*
X140750000Y-140000000D02*
X140250000Y-139500000D01*
X141500000Y-140000000D02*
X140750000Y-140000000D01*
X141750000Y-140250000D02*
X141500000Y-140000000D01*
X141750000Y-140750000D02*
X141750000Y-140250000D01*
X142730000Y-142730000D02*
X143585000Y-142730000D01*
X142000000Y-142000000D02*
X142730000Y-142730000D01*
X142000000Y-140500000D02*
X142000000Y-142000000D01*
X141500000Y-140000000D02*
X142000000Y-140500000D01*
X142770000Y-142730000D02*
X143585000Y-142730000D01*
X142000000Y-143500000D02*
X142770000Y-142730000D01*
X142000000Y-147250000D02*
X142000000Y-143500000D01*
X141750000Y-147500000D02*
X142000000Y-147250000D01*
X141750000Y-113500000D02*
X142000000Y-113250000D01*
X142000000Y-113250000D02*
X142000000Y-109500000D01*
X142000000Y-109500000D02*
X142770000Y-108730000D01*
X142770000Y-108730000D02*
X143585000Y-108730000D01*
X141500000Y-106000000D02*
X142000000Y-106500000D01*
X142000000Y-106500000D02*
X142000000Y-108000000D01*
X142000000Y-108000000D02*
X142730000Y-108730000D01*
X142730000Y-108730000D02*
X143585000Y-108730000D01*
X141750000Y-106750000D02*
X141750000Y-106250000D01*
X141750000Y-106250000D02*
X141500000Y-106000000D01*
X141500000Y-106000000D02*
X140750000Y-106000000D01*
X140750000Y-106000000D02*
X140250000Y-105500000D01*
D22*
X141375000Y-106375000D02*
X141125000Y-106375000D01*
D21*
X140250000Y-111050000D02*
X141500000Y-111050000D01*
X141500000Y-111050000D02*
X141500000Y-111000000D01*
X142250000Y-109000000D02*
X141500000Y-109750000D01*
X142250000Y-108500000D02*
X141500000Y-107750000D01*
X140250000Y-105500000D02*
X140500000Y-105500000D01*
X140500000Y-105500000D02*
X141375000Y-106375000D01*
X141375000Y-106375000D02*
X141750000Y-106750000D01*
X141750000Y-106750000D02*
X141750000Y-107250000D01*
X141500000Y-106750000D02*
X141750000Y-107000000D01*
X141750000Y-113500000D02*
X141500000Y-113750000D01*
X141750000Y-107000000D02*
X141750000Y-107250000D01*
X141750000Y-107250000D02*
X141750000Y-113500000D01*
X143585000Y-108730000D02*
X143315000Y-109000000D01*
X143315000Y-109000000D02*
X142250000Y-109000000D01*
X142250000Y-109000000D02*
X142000000Y-109000000D01*
X142000000Y-109000000D02*
X141500000Y-109500000D01*
X143585000Y-108730000D02*
X143355000Y-108500000D01*
X143355000Y-108500000D02*
X142250000Y-108500000D01*
X142250000Y-108500000D02*
X142000000Y-108500000D01*
X142000000Y-108500000D02*
X141500000Y-108000000D01*
X143585000Y-108730000D02*
X141500000Y-108730000D01*
X141500000Y-108730000D02*
X141500000Y-108750000D01*
X141500000Y-113750000D02*
X141500000Y-111000000D01*
X141500000Y-111000000D02*
X141500000Y-109750000D01*
X141500000Y-109750000D02*
X141500000Y-109500000D01*
X141500000Y-109500000D02*
X141500000Y-108750000D01*
X141500000Y-113750000D02*
X140700000Y-114550000D01*
X141500000Y-108750000D02*
X141500000Y-108000000D01*
X141500000Y-108000000D02*
X141500000Y-107750000D01*
X141500000Y-107750000D02*
X141500000Y-106750000D01*
X141500000Y-106750000D02*
X140250000Y-105500000D01*
X140700000Y-114550000D02*
X140250000Y-114550000D01*
X139750000Y-105500000D02*
X139250000Y-106000000D01*
X140250000Y-114550000D02*
X140450000Y-114550000D01*
D22*
X139750000Y-105500000D02*
X140250000Y-105500000D01*
X143585000Y-108730000D02*
X143480000Y-108730000D01*
X173865000Y-136635000D02*
X173250000Y-137250000D01*
X174000000Y-149000000D02*
X175250000Y-149000000D01*
X173250000Y-148250000D02*
X174000000Y-149000000D01*
X173250000Y-140500000D02*
X173250000Y-148250000D01*
X173250000Y-138250000D02*
X173250000Y-140500000D01*
X173250000Y-137250000D02*
X173250000Y-138250000D01*
X175135000Y-102635000D02*
X173865000Y-102635000D01*
X175500000Y-103000000D02*
X175135000Y-102635000D01*
X173250000Y-103250000D02*
X173250000Y-104250000D01*
X173250000Y-104250000D02*
X173250000Y-106500000D01*
X173250000Y-106500000D02*
X173250000Y-114250000D01*
X173250000Y-114250000D02*
X174000000Y-115000000D01*
X174000000Y-115000000D02*
X175250000Y-115000000D01*
X173865000Y-102635000D02*
X173250000Y-103250000D01*
X173865000Y-119635000D02*
X173250000Y-120250000D01*
X174000000Y-132000000D02*
X175250000Y-132000000D01*
X173250000Y-131250000D02*
X174000000Y-132000000D01*
X173250000Y-123500000D02*
X173250000Y-131250000D01*
X173250000Y-121250000D02*
X173250000Y-123500000D01*
X173250000Y-120250000D02*
X173250000Y-121250000D01*
X175500000Y-120000000D02*
X175135000Y-119635000D01*
X175135000Y-119635000D02*
X173865000Y-119635000D01*
X175500000Y-137000000D02*
X175135000Y-136635000D01*
X175135000Y-136635000D02*
X173865000Y-136635000D01*
X135365000Y-117365000D02*
X136635000Y-117365000D01*
X135000000Y-117000000D02*
X135365000Y-117365000D01*
X135365000Y-134365000D02*
X136635000Y-134365000D01*
X135000000Y-134000000D02*
X135365000Y-134365000D01*
X137250000Y-133750000D02*
X137250000Y-132750000D01*
X137250000Y-132750000D02*
X137250000Y-130500000D01*
X137250000Y-130500000D02*
X137250000Y-122750000D01*
X137250000Y-122750000D02*
X136500000Y-122000000D01*
X136500000Y-122000000D02*
X135250000Y-122000000D01*
X136635000Y-134365000D02*
X137250000Y-133750000D01*
X136635000Y-151365000D02*
X137250000Y-150750000D01*
X136500000Y-139000000D02*
X135250000Y-139000000D01*
X137250000Y-139750000D02*
X136500000Y-139000000D01*
X137250000Y-147500000D02*
X137250000Y-139750000D01*
X137250000Y-149750000D02*
X137250000Y-147500000D01*
X137250000Y-150750000D02*
X137250000Y-149750000D01*
X135000000Y-151000000D02*
X135365000Y-151365000D01*
X135365000Y-151365000D02*
X136635000Y-151365000D01*
X137250000Y-116750000D02*
X137250000Y-115750000D01*
X137250000Y-115750000D02*
X137250000Y-113500000D01*
X137250000Y-113500000D02*
X137250000Y-105750000D01*
X137250000Y-105750000D02*
X136500000Y-105000000D01*
X136500000Y-105000000D02*
X135250000Y-105000000D01*
X136635000Y-117365000D02*
X137250000Y-116750000D01*
X175406000Y-141206000D02*
X178083000Y-141206000D01*
X174450000Y-140250000D02*
X175406000Y-141206000D01*
X173750000Y-146250000D02*
X173750000Y-141750000D01*
X174000000Y-146500000D02*
X173750000Y-146250000D01*
X173750000Y-141750000D02*
X173750000Y-141750000D01*
X173750000Y-140950000D02*
X174450000Y-140250000D01*
X173750000Y-146250000D02*
X173750000Y-140950000D01*
X173750000Y-112250000D02*
X173750000Y-106950000D01*
X173750000Y-106950000D02*
X174450000Y-106250000D01*
X173750000Y-107750000D02*
X173750000Y-107750000D01*
X174000000Y-112500000D02*
X173750000Y-112250000D01*
X173750000Y-112250000D02*
X173750000Y-107750000D01*
X174450000Y-106250000D02*
X175406000Y-107206000D01*
X175406000Y-107206000D02*
X178083000Y-107206000D01*
X175406000Y-124206000D02*
X178083000Y-124206000D01*
X174450000Y-123250000D02*
X175406000Y-124206000D01*
X173750000Y-129250000D02*
X173750000Y-124750000D01*
X174000000Y-129500000D02*
X173750000Y-129250000D01*
X173750000Y-124750000D02*
X173750000Y-124750000D01*
X173750000Y-123950000D02*
X174450000Y-123250000D01*
X173750000Y-129250000D02*
X173750000Y-123950000D01*
X136750000Y-124750000D02*
X136750000Y-130050000D01*
X136750000Y-130050000D02*
X136050000Y-130750000D01*
X136750000Y-129250000D02*
X136750000Y-129250000D01*
X136500000Y-124500000D02*
X136750000Y-124750000D01*
X136750000Y-124750000D02*
X136750000Y-129250000D01*
X136050000Y-130750000D02*
X135094000Y-129794000D01*
X135094000Y-129794000D02*
X132417000Y-129794000D01*
X135094000Y-146794000D02*
X132417000Y-146794000D01*
X136050000Y-147750000D02*
X135094000Y-146794000D01*
X136750000Y-141750000D02*
X136750000Y-146250000D01*
X136500000Y-141500000D02*
X136750000Y-141750000D01*
X136750000Y-146250000D02*
X136750000Y-146250000D01*
X136750000Y-147050000D02*
X136050000Y-147750000D01*
X136750000Y-141750000D02*
X136750000Y-147050000D01*
X136750000Y-107750000D02*
X136750000Y-113050000D01*
X136750000Y-113050000D02*
X136050000Y-113750000D01*
X136750000Y-112250000D02*
X136750000Y-112250000D01*
X136500000Y-107500000D02*
X136750000Y-107750000D01*
X136750000Y-107750000D02*
X136750000Y-112250000D01*
X136050000Y-113750000D02*
X135094000Y-112794000D01*
X135094000Y-112794000D02*
X132417000Y-112794000D01*
X174450000Y-145450000D02*
X174450000Y-145250000D01*
X174450000Y-145950000D02*
X175000000Y-146500000D01*
X174450000Y-145250000D02*
X174450000Y-145950000D01*
X174662000Y-144000000D02*
X174450000Y-144212000D01*
X174450000Y-144212000D02*
X174450000Y-145250000D01*
X178083000Y-144000000D02*
X174662000Y-144000000D01*
X178083000Y-110000000D02*
X174662000Y-110000000D01*
X174450000Y-110212000D02*
X174450000Y-111250000D01*
X174662000Y-110000000D02*
X174450000Y-110212000D01*
X174450000Y-111250000D02*
X174450000Y-111950000D01*
X174450000Y-111950000D02*
X175000000Y-112500000D01*
X174450000Y-111450000D02*
X174450000Y-111250000D01*
X174450000Y-128450000D02*
X174450000Y-128250000D01*
X174450000Y-128950000D02*
X175000000Y-129500000D01*
X174450000Y-128250000D02*
X174450000Y-128950000D01*
X174662000Y-127000000D02*
X174450000Y-127212000D01*
X174450000Y-127212000D02*
X174450000Y-128250000D01*
X178083000Y-127000000D02*
X174662000Y-127000000D01*
X132417000Y-127000000D02*
X135838000Y-127000000D01*
X136050000Y-126788000D02*
X136050000Y-125750000D01*
X135838000Y-127000000D02*
X136050000Y-126788000D01*
X136050000Y-125750000D02*
X136050000Y-125050000D01*
X136050000Y-125050000D02*
X135500000Y-124500000D01*
X136050000Y-125550000D02*
X136050000Y-125750000D01*
X136050000Y-142550000D02*
X136050000Y-142750000D01*
X136050000Y-142050000D02*
X135500000Y-141500000D01*
X136050000Y-142750000D02*
X136050000Y-142050000D01*
X135838000Y-144000000D02*
X136050000Y-143788000D01*
X136050000Y-143788000D02*
X136050000Y-142750000D01*
X132417000Y-144000000D02*
X135838000Y-144000000D01*
X132417000Y-110000000D02*
X135838000Y-110000000D01*
X136050000Y-109788000D02*
X136050000Y-108750000D01*
X135838000Y-110000000D02*
X136050000Y-109788000D01*
X136050000Y-108750000D02*
X136050000Y-108050000D01*
X136050000Y-108050000D02*
X135500000Y-107500000D01*
X136050000Y-108550000D02*
X136050000Y-108750000D01*
X176456000Y-146794000D02*
X178083000Y-146794000D01*
X175500000Y-147750000D02*
X176456000Y-146794000D01*
X174450000Y-147750000D02*
X175500000Y-147750000D01*
X176794000Y-146794000D02*
X178083000Y-146794000D01*
X175424000Y-145778000D02*
X175424000Y-144762000D01*
X176440000Y-146794000D02*
X175424000Y-145778000D01*
X178083000Y-146794000D02*
X176440000Y-146794000D01*
X178083000Y-112794000D02*
X176440000Y-112794000D01*
X176440000Y-112794000D02*
X175424000Y-111778000D01*
X175424000Y-111778000D02*
X175424000Y-110762000D01*
X176794000Y-112794000D02*
X178083000Y-112794000D01*
X174450000Y-113750000D02*
X175500000Y-113750000D01*
X175500000Y-113750000D02*
X176456000Y-112794000D01*
X176456000Y-112794000D02*
X178083000Y-112794000D01*
X176456000Y-129794000D02*
X178083000Y-129794000D01*
X175500000Y-130750000D02*
X176456000Y-129794000D01*
X174450000Y-130750000D02*
X175500000Y-130750000D01*
X176794000Y-129794000D02*
X178083000Y-129794000D01*
X175424000Y-128778000D02*
X175424000Y-127762000D01*
X176440000Y-129794000D02*
X175424000Y-128778000D01*
X178083000Y-129794000D02*
X176440000Y-129794000D01*
X132417000Y-124206000D02*
X134060000Y-124206000D01*
X134060000Y-124206000D02*
X135076000Y-125222000D01*
X135076000Y-125222000D02*
X135076000Y-126238000D01*
X133706000Y-124206000D02*
X132417000Y-124206000D01*
X136050000Y-123250000D02*
X135000000Y-123250000D01*
X135000000Y-123250000D02*
X134044000Y-124206000D01*
X134044000Y-124206000D02*
X132417000Y-124206000D01*
X134044000Y-141206000D02*
X132417000Y-141206000D01*
X135000000Y-140250000D02*
X134044000Y-141206000D01*
X136050000Y-140250000D02*
X135000000Y-140250000D01*
X133706000Y-141206000D02*
X132417000Y-141206000D01*
X135076000Y-142222000D02*
X135076000Y-143238000D01*
X134060000Y-141206000D02*
X135076000Y-142222000D01*
X132417000Y-141206000D02*
X134060000Y-141206000D01*
X132417000Y-107206000D02*
X134060000Y-107206000D01*
X134060000Y-107206000D02*
X135076000Y-108222000D01*
X135076000Y-108222000D02*
X135076000Y-109238000D01*
X133706000Y-107206000D02*
X132417000Y-107206000D01*
X136050000Y-106250000D02*
X135000000Y-106250000D01*
X135000000Y-106250000D02*
X134044000Y-107206000D01*
X134044000Y-107206000D02*
X132417000Y-107206000D01*
X175112000Y-138412000D02*
X178083000Y-138412000D01*
X174450000Y-137750000D02*
X175112000Y-138412000D01*
X174450000Y-138700000D02*
X174750000Y-139000000D01*
X174450000Y-137750000D02*
X174450000Y-138700000D01*
X169350000Y-138500000D02*
X171000000Y-138500000D01*
X168850000Y-139000000D02*
X169350000Y-138500000D01*
X168850000Y-105000000D02*
X169350000Y-104500000D01*
X169350000Y-104500000D02*
X171000000Y-104500000D01*
X174450000Y-103750000D02*
X174450000Y-104700000D01*
X174450000Y-104700000D02*
X174750000Y-105000000D01*
X174450000Y-103750000D02*
X175112000Y-104412000D01*
X175112000Y-104412000D02*
X178083000Y-104412000D01*
X175112000Y-121412000D02*
X178083000Y-121412000D01*
X174450000Y-120750000D02*
X175112000Y-121412000D01*
X174450000Y-121700000D02*
X174750000Y-122000000D01*
X174450000Y-120750000D02*
X174450000Y-121700000D01*
X169350000Y-121500000D02*
X171000000Y-121500000D01*
X168850000Y-122000000D02*
X169350000Y-121500000D01*
X141650000Y-132000000D02*
X141150000Y-132500000D01*
X141150000Y-132500000D02*
X139500000Y-132500000D01*
X136050000Y-133250000D02*
X136050000Y-132300000D01*
X136050000Y-132300000D02*
X135750000Y-132000000D01*
X136050000Y-133250000D02*
X135388000Y-132588000D01*
X135388000Y-132588000D02*
X132417000Y-132588000D01*
X135388000Y-149588000D02*
X132417000Y-149588000D01*
X136050000Y-150250000D02*
X135388000Y-149588000D01*
X136050000Y-149300000D02*
X135750000Y-149000000D01*
X136050000Y-150250000D02*
X136050000Y-149300000D01*
X141150000Y-149500000D02*
X139500000Y-149500000D01*
X141650000Y-149000000D02*
X141150000Y-149500000D01*
X141650000Y-115000000D02*
X141150000Y-115500000D01*
X141150000Y-115500000D02*
X139500000Y-115500000D01*
X136050000Y-116250000D02*
X136050000Y-115300000D01*
X136050000Y-115300000D02*
X135750000Y-115000000D01*
X136050000Y-116250000D02*
X135388000Y-115588000D01*
X135388000Y-115588000D02*
X132417000Y-115588000D01*
X174450000Y-142750000D02*
X174700000Y-142500000D01*
X174597000Y-142603000D02*
X174450000Y-142750000D01*
X175551000Y-142603000D02*
X174597000Y-142603000D01*
X175551000Y-108603000D02*
X174597000Y-108603000D01*
X174597000Y-108603000D02*
X174450000Y-108750000D01*
X174450000Y-108750000D02*
X174700000Y-108500000D01*
X174450000Y-125750000D02*
X174700000Y-125500000D01*
X174597000Y-125603000D02*
X174450000Y-125750000D01*
X175551000Y-125603000D02*
X174597000Y-125603000D01*
X134949000Y-128397000D02*
X135903000Y-128397000D01*
X135903000Y-128397000D02*
X136050000Y-128250000D01*
X136050000Y-128250000D02*
X135800000Y-128500000D01*
X136050000Y-145250000D02*
X135800000Y-145500000D01*
X135903000Y-145397000D02*
X136050000Y-145250000D01*
X134949000Y-145397000D02*
X135903000Y-145397000D01*
X134949000Y-111397000D02*
X135903000Y-111397000D01*
X135903000Y-111397000D02*
X136050000Y-111250000D01*
X136050000Y-111250000D02*
X135800000Y-111500000D01*
X167560000Y-147810000D02*
X166915000Y-147810000D01*
X171260000Y-151490000D02*
X171500000Y-151250000D01*
X171500000Y-151250000D02*
X171500000Y-150750000D01*
X169000000Y-151250000D02*
X169000000Y-149250000D01*
X169240000Y-151490000D02*
X169000000Y-151250000D01*
X171260000Y-151490000D02*
X169240000Y-151490000D01*
X169000000Y-149250000D02*
X167560000Y-147810000D01*
X169000000Y-115250000D02*
X167560000Y-113810000D01*
X171260000Y-117490000D02*
X169240000Y-117490000D01*
X169240000Y-117490000D02*
X169000000Y-117250000D01*
X169000000Y-117250000D02*
X169000000Y-115250000D01*
X171500000Y-117250000D02*
X171500000Y-116750000D01*
X171260000Y-117490000D02*
X171500000Y-117250000D01*
X167560000Y-113810000D02*
X166915000Y-113810000D01*
X167560000Y-130810000D02*
X166915000Y-130810000D01*
X171260000Y-134490000D02*
X171500000Y-134250000D01*
X171500000Y-134250000D02*
X171500000Y-133750000D01*
X169000000Y-134250000D02*
X169000000Y-132250000D01*
X169240000Y-134490000D02*
X169000000Y-134250000D01*
X171260000Y-134490000D02*
X169240000Y-134490000D01*
X169000000Y-132250000D02*
X167560000Y-130810000D01*
X141500000Y-121750000D02*
X142940000Y-123190000D01*
X139240000Y-119510000D02*
X141260000Y-119510000D01*
X141260000Y-119510000D02*
X141500000Y-119750000D01*
X141500000Y-119750000D02*
X141500000Y-121750000D01*
X139000000Y-119750000D02*
X139000000Y-120250000D01*
X139240000Y-119510000D02*
X139000000Y-119750000D01*
X142940000Y-123190000D02*
X143585000Y-123190000D01*
X142940000Y-140190000D02*
X143585000Y-140190000D01*
X139240000Y-136510000D02*
X139000000Y-136750000D01*
X139000000Y-136750000D02*
X139000000Y-137250000D01*
X141500000Y-136750000D02*
X141500000Y-138750000D01*
X141260000Y-136510000D02*
X141500000Y-136750000D01*
X139240000Y-136510000D02*
X141260000Y-136510000D01*
X141500000Y-138750000D02*
X142940000Y-140190000D01*
X141500000Y-104750000D02*
X142940000Y-106190000D01*
X139240000Y-102510000D02*
X141260000Y-102510000D01*
X141260000Y-102510000D02*
X141500000Y-102750000D01*
X141500000Y-102750000D02*
X141500000Y-104750000D01*
X139000000Y-102750000D02*
X139000000Y-103250000D01*
X139240000Y-102510000D02*
X139000000Y-102750000D01*
X142940000Y-106190000D02*
X143585000Y-106190000D01*
X169950000Y-144800000D02*
X170250000Y-144800000D01*
X170250000Y-145250000D02*
X170250000Y-144800000D01*
X169750000Y-145750000D02*
X170250000Y-145250000D01*
X169750000Y-111750000D02*
X170250000Y-111250000D01*
X170250000Y-111250000D02*
X170250000Y-110800000D01*
X169950000Y-110800000D02*
X170250000Y-110800000D01*
X169950000Y-127800000D02*
X170250000Y-127800000D01*
X170250000Y-128250000D02*
X170250000Y-127800000D01*
X169750000Y-128750000D02*
X170250000Y-128250000D01*
X140750000Y-125250000D02*
X140250000Y-125750000D01*
X140250000Y-125750000D02*
X140250000Y-126200000D01*
X140550000Y-126200000D02*
X140250000Y-126200000D01*
X140550000Y-143200000D02*
X140250000Y-143200000D01*
X140250000Y-142750000D02*
X140250000Y-143200000D01*
X140750000Y-142250000D02*
X140250000Y-142750000D01*
X140750000Y-108250000D02*
X140250000Y-108750000D01*
X140250000Y-108750000D02*
X140250000Y-109200000D01*
X140550000Y-109200000D02*
X140250000Y-109200000D01*
X171750000Y-139000000D02*
X171500000Y-139250000D01*
X171750000Y-138000000D02*
X171750000Y-139000000D01*
X171500000Y-141350000D02*
X171500000Y-139250000D01*
X171750000Y-141600000D02*
X171500000Y-141350000D01*
X171300000Y-137550000D02*
X171750000Y-138000000D01*
X170250000Y-137550000D02*
X171300000Y-137550000D01*
X170250000Y-103550000D02*
X171300000Y-103550000D01*
X171300000Y-103550000D02*
X171750000Y-104000000D01*
X171750000Y-107600000D02*
X171500000Y-107350000D01*
X171500000Y-107350000D02*
X171500000Y-105250000D01*
X171750000Y-104000000D02*
X171750000Y-105000000D01*
X171750000Y-105000000D02*
X171500000Y-105250000D01*
X171750000Y-122000000D02*
X171500000Y-122250000D01*
X171750000Y-121000000D02*
X171750000Y-122000000D01*
X171500000Y-124350000D02*
X171500000Y-122250000D01*
X171750000Y-124600000D02*
X171500000Y-124350000D01*
X171300000Y-120550000D02*
X171750000Y-121000000D01*
X170250000Y-120550000D02*
X171300000Y-120550000D01*
X140250000Y-133450000D02*
X139200000Y-133450000D01*
X139200000Y-133450000D02*
X138750000Y-133000000D01*
X138750000Y-129400000D02*
X139000000Y-129650000D01*
X139000000Y-129650000D02*
X139000000Y-131750000D01*
X138750000Y-133000000D02*
X138750000Y-132000000D01*
X138750000Y-132000000D02*
X139000000Y-131750000D01*
X138750000Y-149000000D02*
X139000000Y-148750000D01*
X138750000Y-150000000D02*
X138750000Y-149000000D01*
X139000000Y-146650000D02*
X139000000Y-148750000D01*
X138750000Y-146400000D02*
X139000000Y-146650000D01*
X139200000Y-150450000D02*
X138750000Y-150000000D01*
X140250000Y-150450000D02*
X139200000Y-150450000D01*
X140250000Y-116450000D02*
X139200000Y-116450000D01*
X139200000Y-116450000D02*
X138750000Y-116000000D01*
X138750000Y-112400000D02*
X139000000Y-112650000D01*
X139000000Y-112650000D02*
X139000000Y-114750000D01*
X138750000Y-116000000D02*
X138750000Y-115000000D01*
X138750000Y-115000000D02*
X139000000Y-114750000D01*
X172550000Y-150250000D02*
X172500000Y-150250000D01*
X172750000Y-150250000D02*
X172550000Y-150250000D01*
X173500000Y-151000000D02*
X172750000Y-150250000D01*
X173500000Y-117000000D02*
X172750000Y-116250000D01*
X172750000Y-116250000D02*
X172550000Y-116250000D01*
X172550000Y-116250000D02*
X172500000Y-116250000D01*
X172550000Y-133250000D02*
X172500000Y-133250000D01*
X172750000Y-133250000D02*
X172550000Y-133250000D01*
X173500000Y-134000000D02*
X172750000Y-133250000D01*
X137000000Y-120000000D02*
X137750000Y-120750000D01*
X137750000Y-120750000D02*
X137950000Y-120750000D01*
X137950000Y-120750000D02*
X138000000Y-120750000D01*
X137950000Y-137750000D02*
X138000000Y-137750000D01*
X137750000Y-137750000D02*
X137950000Y-137750000D01*
X137000000Y-137000000D02*
X137750000Y-137750000D01*
X137000000Y-103000000D02*
X137750000Y-103750000D01*
X137750000Y-103750000D02*
X137950000Y-103750000D01*
X137950000Y-103750000D02*
X138000000Y-103750000D01*
X170250000Y-141250000D02*
X170250000Y-141050000D01*
X171500000Y-142500000D02*
X170250000Y-141250000D01*
X171500000Y-146500000D02*
X171500000Y-142500000D01*
X171500000Y-112500000D02*
X171500000Y-108500000D01*
X171500000Y-108500000D02*
X170250000Y-107250000D01*
X170250000Y-107250000D02*
X170250000Y-107050000D01*
X170250000Y-124250000D02*
X170250000Y-124050000D01*
X171500000Y-125500000D02*
X170250000Y-124250000D01*
X171500000Y-129500000D02*
X171500000Y-125500000D01*
X139000000Y-124500000D02*
X139000000Y-128500000D01*
X139000000Y-128500000D02*
X140250000Y-129750000D01*
X140250000Y-129750000D02*
X140250000Y-129950000D01*
X140250000Y-146750000D02*
X140250000Y-146950000D01*
X139000000Y-145500000D02*
X140250000Y-146750000D01*
X139000000Y-141500000D02*
X139000000Y-145500000D01*
X139000000Y-107500000D02*
X139000000Y-111500000D01*
X139000000Y-111500000D02*
X140250000Y-112750000D01*
X140250000Y-112750000D02*
X140250000Y-112950000D01*
M02*
