G04 #@! TF.FileFunction,Paste,Bot*
%FSLAX46Y46*%
G04 Gerber Fmt 4.6, Leading zero omitted, Abs format (unit mm)*
G04 Created by KiCad (PCBNEW 4.0.2-stable) date 27/07/2016 9:39:40 PM*
%MOMM*%
G01*
G04 APERTURE LIST*
%ADD10C,0.100000*%
%ADD11R,1.250000X1.000000*%
%ADD12R,1.300000X0.700000*%
%ADD13R,0.700000X1.300000*%
G04 APERTURE END LIST*
D10*
D11*
X170250000Y-116500000D03*
X170250000Y-133500000D03*
X140250000Y-137500000D03*
X140250000Y-120500000D03*
X140250000Y-103500000D03*
X170250000Y-150500000D03*
D12*
X170250000Y-141050000D03*
X170250000Y-142950000D03*
D13*
X174450000Y-150250000D03*
X172550000Y-150250000D03*
D12*
X170250000Y-137550000D03*
X170250000Y-139450000D03*
X170250000Y-146700000D03*
X170250000Y-144800000D03*
D13*
X172550000Y-140250000D03*
X174450000Y-140250000D03*
X172550000Y-137750000D03*
X174450000Y-137750000D03*
X172550000Y-147750000D03*
X174450000Y-147750000D03*
X172550000Y-145250000D03*
X174450000Y-145250000D03*
X172550000Y-142750000D03*
X174450000Y-142750000D03*
X172550000Y-108750000D03*
X174450000Y-108750000D03*
X172550000Y-111250000D03*
X174450000Y-111250000D03*
X172550000Y-113750000D03*
X174450000Y-113750000D03*
X172550000Y-103750000D03*
X174450000Y-103750000D03*
X172550000Y-106250000D03*
X174450000Y-106250000D03*
D12*
X170250000Y-112700000D03*
X170250000Y-110800000D03*
X170250000Y-103550000D03*
X170250000Y-105450000D03*
D13*
X174450000Y-116250000D03*
X172550000Y-116250000D03*
D12*
X170250000Y-107050000D03*
X170250000Y-108950000D03*
X170250000Y-124050000D03*
X170250000Y-125950000D03*
D13*
X174450000Y-133250000D03*
X172550000Y-133250000D03*
D12*
X170250000Y-120550000D03*
X170250000Y-122450000D03*
X170250000Y-129700000D03*
X170250000Y-127800000D03*
D13*
X172550000Y-123250000D03*
X174450000Y-123250000D03*
X172550000Y-120750000D03*
X174450000Y-120750000D03*
X172550000Y-130750000D03*
X174450000Y-130750000D03*
X172550000Y-128250000D03*
X174450000Y-128250000D03*
X172550000Y-125750000D03*
X174450000Y-125750000D03*
X137950000Y-128250000D03*
X136050000Y-128250000D03*
X137950000Y-125750000D03*
X136050000Y-125750000D03*
X137950000Y-123250000D03*
X136050000Y-123250000D03*
X137950000Y-133250000D03*
X136050000Y-133250000D03*
X137950000Y-130750000D03*
X136050000Y-130750000D03*
D12*
X140250000Y-124300000D03*
X140250000Y-126200000D03*
X140250000Y-133450000D03*
X140250000Y-131550000D03*
D13*
X136050000Y-120750000D03*
X137950000Y-120750000D03*
D12*
X140250000Y-129950000D03*
X140250000Y-128050000D03*
X140250000Y-146950000D03*
X140250000Y-145050000D03*
D13*
X136050000Y-137750000D03*
X137950000Y-137750000D03*
D12*
X140250000Y-150450000D03*
X140250000Y-148550000D03*
X140250000Y-141300000D03*
X140250000Y-143200000D03*
D13*
X137950000Y-147750000D03*
X136050000Y-147750000D03*
X137950000Y-150250000D03*
X136050000Y-150250000D03*
X137950000Y-140250000D03*
X136050000Y-140250000D03*
X137950000Y-142750000D03*
X136050000Y-142750000D03*
X137950000Y-145250000D03*
X136050000Y-145250000D03*
X137950000Y-111250000D03*
X136050000Y-111250000D03*
X137950000Y-108750000D03*
X136050000Y-108750000D03*
X137950000Y-106250000D03*
X136050000Y-106250000D03*
X137950000Y-116250000D03*
X136050000Y-116250000D03*
X137950000Y-113750000D03*
X136050000Y-113750000D03*
D12*
X140250000Y-107300000D03*
X140250000Y-109200000D03*
X140250000Y-116450000D03*
X140250000Y-114550000D03*
D13*
X136050000Y-103750000D03*
X137950000Y-103750000D03*
D12*
X140250000Y-112950000D03*
X140250000Y-111050000D03*
M02*
