G04 #@! TF.FileFunction,Profile,NP*
%FSLAX46Y46*%
G04 Gerber Fmt 4.6, Leading zero omitted, Abs format (unit mm)*
G04 Created by KiCad (PCBNEW 4.0.2-stable) date 27/07/2016 9:39:40 PM*
%MOMM*%
G01*
G04 APERTURE LIST*
%ADD10C,0.100000*%
%ADD11C,0.150000*%
G04 APERTURE END LIST*
D10*
D11*
X135500000Y-119250000D02*
X135000000Y-119250000D01*
X135750000Y-119000000D02*
X135500000Y-119250000D01*
X144750000Y-119000000D02*
X135750000Y-119000000D01*
X135750000Y-118000000D02*
X144750000Y-118000000D01*
X135500000Y-117750000D02*
X135750000Y-118000000D01*
X135000000Y-117750000D02*
X135500000Y-117750000D01*
X134250000Y-118500000D02*
G75*
G03X135000000Y-119250000I750000J0D01*
G01*
X135000000Y-117750000D02*
G75*
G03X134250000Y-118500000I0J-750000D01*
G01*
X130250000Y-119500000D02*
G75*
G03X131250000Y-118500000I0J1000000D01*
G01*
X131250000Y-118500000D02*
G75*
G03X130250000Y-117500000I-1000000J0D01*
G01*
X175000000Y-119250000D02*
X175500000Y-119250000D01*
X174750000Y-119000000D02*
X175000000Y-119250000D01*
X165750000Y-119000000D02*
X174750000Y-119000000D01*
X174750000Y-118000000D02*
X165750000Y-118000000D01*
X175000000Y-117750000D02*
X174750000Y-118000000D01*
X175500000Y-117750000D02*
X175000000Y-117750000D01*
X175500000Y-119250000D02*
G75*
G03X176250000Y-118500000I0J750000D01*
G01*
X176250000Y-118500000D02*
G75*
G03X175500000Y-117750000I-750000J0D01*
G01*
X179250000Y-118500000D02*
G75*
G03X180250000Y-119500000I1000000J0D01*
G01*
X180250000Y-117500000D02*
G75*
G03X179250000Y-118500000I0J-1000000D01*
G01*
X175000000Y-136250000D02*
X175500000Y-136250000D01*
X174750000Y-136000000D02*
X175000000Y-136250000D01*
X165750000Y-136000000D02*
X174750000Y-136000000D01*
X174750000Y-135000000D02*
X165750000Y-135000000D01*
X175000000Y-134750000D02*
X174750000Y-135000000D01*
X175500000Y-134750000D02*
X175000000Y-134750000D01*
X175500000Y-136250000D02*
G75*
G03X176250000Y-135500000I0J750000D01*
G01*
X176250000Y-135500000D02*
G75*
G03X175500000Y-134750000I-750000J0D01*
G01*
X179250000Y-135500000D02*
G75*
G03X180250000Y-136500000I1000000J0D01*
G01*
X180250000Y-134500000D02*
G75*
G03X179250000Y-135500000I0J-1000000D01*
G01*
X130250000Y-136500000D02*
G75*
G03X131250000Y-135500000I0J1000000D01*
G01*
X131250000Y-135500000D02*
G75*
G03X130250000Y-134500000I-1000000J0D01*
G01*
X135500000Y-136250000D02*
X135000000Y-136250000D01*
X135750000Y-136000000D02*
X135500000Y-136250000D01*
X144750000Y-136000000D02*
X135750000Y-136000000D01*
X135750000Y-135000000D02*
X144750000Y-135000000D01*
X135500000Y-134750000D02*
X135750000Y-135000000D01*
X135000000Y-134750000D02*
X135500000Y-134750000D01*
X134250000Y-135500000D02*
G75*
G03X135000000Y-136250000I750000J0D01*
G01*
X135000000Y-134750000D02*
G75*
G03X134250000Y-135500000I0J-750000D01*
G01*
X162750000Y-152000000D02*
G75*
G03X163250000Y-151500000I0J500000D01*
G01*
X145250000Y-113000000D02*
X145250000Y-117500000D01*
X147250000Y-124000000D02*
X147250000Y-113000000D01*
X145250000Y-119500000D02*
X145250000Y-124000000D01*
X147250000Y-141000000D02*
X147250000Y-130000000D01*
X145250000Y-130000000D02*
X145250000Y-134500000D01*
X145250000Y-136500000D02*
X145250000Y-141000000D01*
X147250000Y-151500000D02*
X147250000Y-147000000D01*
X145250000Y-147000000D02*
X145250000Y-151500000D01*
X163250000Y-147000000D02*
X163250000Y-151500000D01*
X165250000Y-134500000D02*
X165250000Y-130000000D01*
X165250000Y-141000000D02*
X165250000Y-136500000D01*
X163250000Y-130000000D02*
X163250000Y-141000000D01*
X165250000Y-124000000D02*
X165250000Y-119500000D01*
X163250000Y-113000000D02*
X163250000Y-124000000D01*
X165250000Y-113000000D02*
X165250000Y-117500000D01*
X163250000Y-107000000D02*
X163250000Y-102500000D01*
X165250000Y-102500000D02*
X165250000Y-107000000D01*
X165250000Y-151500000D02*
G75*
G03X165750000Y-152000000I500000J0D01*
G01*
X165750000Y-136000000D02*
G75*
G03X165250000Y-136500000I0J-500000D01*
G01*
X179750000Y-152000000D02*
G75*
G03X180250000Y-151500000I0J500000D01*
G01*
X179750000Y-152000000D02*
X165750000Y-152000000D01*
X180250000Y-136500000D02*
X180250000Y-151500000D01*
X180250000Y-102500000D02*
X180250000Y-117500000D01*
X165750000Y-102000000D02*
X179750000Y-102000000D01*
X180250000Y-102500000D02*
G75*
G03X179750000Y-102000000I-500000J0D01*
G01*
X165750000Y-102000000D02*
G75*
G03X165250000Y-102500000I0J-500000D01*
G01*
X165250000Y-117500000D02*
G75*
G03X165750000Y-118000000I500000J0D01*
G01*
X165250000Y-134500000D02*
G75*
G03X165750000Y-135000000I500000J0D01*
G01*
X165750000Y-119000000D02*
G75*
G03X165250000Y-119500000I0J-500000D01*
G01*
X180250000Y-119500000D02*
X180250000Y-134500000D01*
X165250000Y-147000000D02*
G75*
G03X164250000Y-146000000I-1000000J0D01*
G01*
X164250000Y-146000000D02*
G75*
G03X163250000Y-147000000I0J-1000000D01*
G01*
X164250000Y-142000000D02*
G75*
G03X165250000Y-141000000I0J1000000D01*
G01*
X163250000Y-141000000D02*
G75*
G03X164250000Y-142000000I1000000J0D01*
G01*
X165250000Y-151500000D02*
X165250000Y-147000000D01*
X163250000Y-107000000D02*
G75*
G03X164250000Y-108000000I1000000J0D01*
G01*
X164250000Y-108000000D02*
G75*
G03X165250000Y-107000000I0J1000000D01*
G01*
X164250000Y-112000000D02*
G75*
G03X163250000Y-113000000I0J-1000000D01*
G01*
X165250000Y-113000000D02*
G75*
G03X164250000Y-112000000I-1000000J0D01*
G01*
X165250000Y-130000000D02*
G75*
G03X164250000Y-129000000I-1000000J0D01*
G01*
X164250000Y-129000000D02*
G75*
G03X163250000Y-130000000I0J-1000000D01*
G01*
X164250000Y-125000000D02*
G75*
G03X165250000Y-124000000I0J1000000D01*
G01*
X163250000Y-124000000D02*
G75*
G03X164250000Y-125000000I1000000J0D01*
G01*
X147250000Y-130000000D02*
G75*
G03X146250000Y-129000000I-1000000J0D01*
G01*
X146250000Y-129000000D02*
G75*
G03X145250000Y-130000000I0J-1000000D01*
G01*
X146250000Y-125000000D02*
G75*
G03X147250000Y-124000000I0J1000000D01*
G01*
X145250000Y-124000000D02*
G75*
G03X146250000Y-125000000I1000000J0D01*
G01*
X145250000Y-141000000D02*
G75*
G03X146250000Y-142000000I1000000J0D01*
G01*
X146250000Y-142000000D02*
G75*
G03X147250000Y-141000000I0J1000000D01*
G01*
X146250000Y-146000000D02*
G75*
G03X145250000Y-147000000I0J-1000000D01*
G01*
X147250000Y-147000000D02*
G75*
G03X146250000Y-146000000I-1000000J0D01*
G01*
X147250000Y-107000000D02*
X147250000Y-102500000D01*
X145250000Y-102500000D02*
X145250000Y-107000000D01*
X147250000Y-113000000D02*
G75*
G03X146250000Y-112000000I-1000000J0D01*
G01*
X146250000Y-112000000D02*
G75*
G03X145250000Y-113000000I0J-1000000D01*
G01*
X146250000Y-108000000D02*
G75*
G03X147250000Y-107000000I0J1000000D01*
G01*
X145250000Y-107000000D02*
G75*
G03X146250000Y-108000000I1000000J0D01*
G01*
X162750000Y-102000000D02*
X147750000Y-102000000D01*
X163250000Y-102500000D02*
G75*
G03X162750000Y-102000000I-500000J0D01*
G01*
X147750000Y-152000000D02*
X162750000Y-152000000D01*
X147250000Y-151500000D02*
G75*
G03X147750000Y-152000000I500000J0D01*
G01*
X147750000Y-102000000D02*
G75*
G03X147250000Y-102500000I0J-500000D01*
G01*
X130250000Y-134500000D02*
X130250000Y-119500000D01*
X144750000Y-135000000D02*
G75*
G03X145250000Y-134500000I0J500000D01*
G01*
X145250000Y-119500000D02*
G75*
G03X144750000Y-119000000I-500000J0D01*
G01*
X145250000Y-136500000D02*
G75*
G03X144750000Y-136000000I-500000J0D01*
G01*
X144750000Y-152000000D02*
G75*
G03X145250000Y-151500000I0J500000D01*
G01*
X130250000Y-151500000D02*
G75*
G03X130750000Y-152000000I500000J0D01*
G01*
X144750000Y-152000000D02*
X130750000Y-152000000D01*
X130250000Y-151500000D02*
X130250000Y-136500000D01*
X130250000Y-117500000D02*
X130250000Y-102500000D01*
X130750000Y-102000000D02*
X144750000Y-102000000D01*
X130750000Y-102000000D02*
G75*
G03X130250000Y-102500000I0J-500000D01*
G01*
X144750000Y-118000000D02*
G75*
G03X145250000Y-117500000I0J500000D01*
G01*
X145250000Y-102500000D02*
G75*
G03X144750000Y-102000000I-500000J0D01*
G01*
M02*
