G04 #@! TF.FileFunction,Copper,L1,Top,Signal*
%FSLAX46Y46*%
G04 Gerber Fmt 4.6, Leading zero omitted, Abs format (unit mm)*
G04 Created by KiCad (PCBNEW 4.0.2-stable) date 27/07/2016 9:39:40 PM*
%MOMM*%
G01*
G04 APERTURE LIST*
%ADD10C,0.100000*%
%ADD11C,3.810000*%
%ADD12C,2.024000*%
%ADD13R,4.080000X1.778000*%
%ADD14R,1.220000X0.910000*%
%ADD15R,2.032000X1.727200*%
%ADD16O,2.032000X1.727200*%
%ADD17R,0.450000X1.450000*%
%ADD18C,0.800000*%
%ADD19C,0.600000*%
%ADD20C,0.450000*%
%ADD21C,0.449000*%
%ADD22C,0.425000*%
%ADD23C,0.250000*%
G04 APERTURE END LIST*
D10*
D11*
X155250000Y-139446000D03*
X155250000Y-114427000D03*
D12*
X153853000Y-132461000D03*
X153853000Y-129667000D03*
X153853000Y-127000000D03*
X153853000Y-124206000D03*
X153853000Y-121539000D03*
X156647000Y-131064000D03*
X156647000Y-128270000D03*
X156647000Y-125603000D03*
X156647000Y-122809000D03*
D13*
X178083000Y-148191000D03*
X178083000Y-145397000D03*
X178083000Y-142603000D03*
X178083000Y-139809000D03*
D14*
X173500000Y-136865000D03*
X173500000Y-140135000D03*
X170500000Y-136865000D03*
X170500000Y-140135000D03*
D15*
X166915000Y-150350000D03*
D16*
X166915000Y-147810000D03*
X166915000Y-145270000D03*
X166915000Y-142730000D03*
X166915000Y-140190000D03*
X166915000Y-137650000D03*
D17*
X173950000Y-143550000D03*
X173300000Y-143550000D03*
X172650000Y-143550000D03*
X172000000Y-143550000D03*
X171350000Y-143550000D03*
X170700000Y-143550000D03*
X170050000Y-143550000D03*
X170050000Y-149450000D03*
X170700000Y-149450000D03*
X171350000Y-149450000D03*
X172000000Y-149450000D03*
X172650000Y-149450000D03*
X173300000Y-149450000D03*
X173950000Y-149450000D03*
X173950000Y-109550000D03*
X173300000Y-109550000D03*
X172650000Y-109550000D03*
X172000000Y-109550000D03*
X171350000Y-109550000D03*
X170700000Y-109550000D03*
X170050000Y-109550000D03*
X170050000Y-115450000D03*
X170700000Y-115450000D03*
X171350000Y-115450000D03*
X172000000Y-115450000D03*
X172650000Y-115450000D03*
X173300000Y-115450000D03*
X173950000Y-115450000D03*
D15*
X166915000Y-116350000D03*
D16*
X166915000Y-113810000D03*
X166915000Y-111270000D03*
X166915000Y-108730000D03*
X166915000Y-106190000D03*
X166915000Y-103650000D03*
D14*
X170500000Y-102865000D03*
X170500000Y-106135000D03*
X173500000Y-102865000D03*
X173500000Y-106135000D03*
D13*
X178083000Y-114191000D03*
X178083000Y-111397000D03*
X178083000Y-108603000D03*
X178083000Y-105809000D03*
X178083000Y-131191000D03*
X178083000Y-128397000D03*
X178083000Y-125603000D03*
X178083000Y-122809000D03*
D14*
X173500000Y-119865000D03*
X173500000Y-123135000D03*
X170500000Y-119865000D03*
X170500000Y-123135000D03*
D15*
X166915000Y-133350000D03*
D16*
X166915000Y-130810000D03*
X166915000Y-128270000D03*
X166915000Y-125730000D03*
X166915000Y-123190000D03*
X166915000Y-120650000D03*
D17*
X173950000Y-126550000D03*
X173300000Y-126550000D03*
X172650000Y-126550000D03*
X172000000Y-126550000D03*
X171350000Y-126550000D03*
X170700000Y-126550000D03*
X170050000Y-126550000D03*
X170050000Y-132450000D03*
X170700000Y-132450000D03*
X171350000Y-132450000D03*
X172000000Y-132450000D03*
X172650000Y-132450000D03*
X173300000Y-132450000D03*
X173950000Y-132450000D03*
X136550000Y-127450000D03*
X137200000Y-127450000D03*
X137850000Y-127450000D03*
X138500000Y-127450000D03*
X139150000Y-127450000D03*
X139800000Y-127450000D03*
X140450000Y-127450000D03*
X140450000Y-121550000D03*
X139800000Y-121550000D03*
X139150000Y-121550000D03*
X138500000Y-121550000D03*
X137850000Y-121550000D03*
X137200000Y-121550000D03*
X136550000Y-121550000D03*
D15*
X143585000Y-120650000D03*
D16*
X143585000Y-123190000D03*
X143585000Y-125730000D03*
X143585000Y-128270000D03*
X143585000Y-130810000D03*
X143585000Y-133350000D03*
D14*
X140000000Y-134135000D03*
X140000000Y-130865000D03*
X137000000Y-134135000D03*
X137000000Y-130865000D03*
D13*
X132417000Y-122809000D03*
X132417000Y-125603000D03*
X132417000Y-128397000D03*
X132417000Y-131191000D03*
X132417000Y-139809000D03*
X132417000Y-142603000D03*
X132417000Y-145397000D03*
X132417000Y-148191000D03*
D14*
X137000000Y-151135000D03*
X137000000Y-147865000D03*
X140000000Y-151135000D03*
X140000000Y-147865000D03*
D15*
X143585000Y-137650000D03*
D16*
X143585000Y-140190000D03*
X143585000Y-142730000D03*
X143585000Y-145270000D03*
X143585000Y-147810000D03*
X143585000Y-150350000D03*
D17*
X136550000Y-144450000D03*
X137200000Y-144450000D03*
X137850000Y-144450000D03*
X138500000Y-144450000D03*
X139150000Y-144450000D03*
X139800000Y-144450000D03*
X140450000Y-144450000D03*
X140450000Y-138550000D03*
X139800000Y-138550000D03*
X139150000Y-138550000D03*
X138500000Y-138550000D03*
X137850000Y-138550000D03*
X137200000Y-138550000D03*
X136550000Y-138550000D03*
X136550000Y-110450000D03*
X137200000Y-110450000D03*
X137850000Y-110450000D03*
X138500000Y-110450000D03*
X139150000Y-110450000D03*
X139800000Y-110450000D03*
X140450000Y-110450000D03*
X140450000Y-104550000D03*
X139800000Y-104550000D03*
X139150000Y-104550000D03*
X138500000Y-104550000D03*
X137850000Y-104550000D03*
X137200000Y-104550000D03*
X136550000Y-104550000D03*
D15*
X143585000Y-103650000D03*
D16*
X143585000Y-106190000D03*
X143585000Y-108730000D03*
X143585000Y-111270000D03*
X143585000Y-113810000D03*
X143585000Y-116350000D03*
D14*
X140000000Y-117135000D03*
X140000000Y-113865000D03*
X137000000Y-117135000D03*
X137000000Y-113865000D03*
D13*
X132417000Y-105809000D03*
X132417000Y-108603000D03*
X132417000Y-111397000D03*
X132417000Y-114191000D03*
D18*
X175500000Y-150250000D03*
X175500000Y-116250000D03*
X175500000Y-133250000D03*
X135000000Y-120750000D03*
X135000000Y-137750000D03*
X135000000Y-103750000D03*
X171250000Y-148000000D03*
X169375000Y-147625000D03*
X169375000Y-113625000D03*
X171250000Y-114000000D03*
X171250000Y-131000000D03*
X169375000Y-130625000D03*
X141125000Y-123375000D03*
X139250000Y-123000000D03*
X139250000Y-140000000D03*
X141125000Y-140375000D03*
X141125000Y-106375000D03*
X139250000Y-106000000D03*
D19*
X175250000Y-149000000D03*
X175500000Y-103000000D03*
X175250000Y-115000000D03*
X175250000Y-132000000D03*
X175500000Y-120000000D03*
X175500000Y-137000000D03*
X135000000Y-117000000D03*
X135000000Y-134000000D03*
X135250000Y-122000000D03*
X135250000Y-139000000D03*
X135000000Y-151000000D03*
X135250000Y-105000000D03*
X174000000Y-146500000D03*
X174000000Y-112500000D03*
X174000000Y-129500000D03*
X136500000Y-124500000D03*
X136500000Y-141500000D03*
X136500000Y-107500000D03*
X175000000Y-146500000D03*
X175000000Y-112500000D03*
X175000000Y-129500000D03*
X135500000Y-124500000D03*
X135500000Y-141500000D03*
X135500000Y-107500000D03*
X175424000Y-144762000D03*
X175424000Y-110762000D03*
X175424000Y-127762000D03*
X135076000Y-126238000D03*
X135076000Y-143238000D03*
X135076000Y-109238000D03*
X174750000Y-139000000D03*
X171000000Y-138500000D03*
X168850000Y-139000000D03*
X168850000Y-105000000D03*
X171000000Y-104500000D03*
X174750000Y-105000000D03*
X174750000Y-122000000D03*
X171000000Y-121500000D03*
X168850000Y-122000000D03*
X141650000Y-132000000D03*
X139500000Y-132500000D03*
X135750000Y-132000000D03*
X135750000Y-149000000D03*
X139500000Y-149500000D03*
X141650000Y-149000000D03*
X141650000Y-115000000D03*
X139500000Y-115500000D03*
X135750000Y-115000000D03*
X175551000Y-142603000D03*
X175551000Y-108603000D03*
X175551000Y-125603000D03*
X134949000Y-128397000D03*
X134949000Y-145397000D03*
X134949000Y-111397000D03*
X171500000Y-150750000D03*
X171500000Y-116750000D03*
X171500000Y-133750000D03*
X139000000Y-120250000D03*
X139000000Y-137250000D03*
X139000000Y-103250000D03*
X169750000Y-145750000D03*
X169750000Y-111750000D03*
X169750000Y-128750000D03*
X140750000Y-125250000D03*
X140750000Y-142250000D03*
X140750000Y-108250000D03*
X171750000Y-141600000D03*
X171750000Y-107600000D03*
X171750000Y-124600000D03*
X138750000Y-129400000D03*
X138750000Y-146400000D03*
X138750000Y-112400000D03*
X173500000Y-151000000D03*
X173500000Y-117000000D03*
X173500000Y-134000000D03*
X137000000Y-120000000D03*
X137000000Y-137000000D03*
X137000000Y-103000000D03*
X171500000Y-146500000D03*
X171500000Y-112500000D03*
X171500000Y-129500000D03*
X139000000Y-124500000D03*
X139000000Y-141500000D03*
X139000000Y-107500000D03*
D20*
X174750000Y-150250000D02*
X175500000Y-150250000D01*
D21*
X174500000Y-150000000D02*
X174750000Y-150250000D01*
X173950000Y-149450000D02*
X174500000Y-150000000D01*
D22*
X175250000Y-150000000D02*
X174500000Y-150000000D01*
X175500000Y-150250000D02*
X175250000Y-150000000D01*
X173950000Y-149950000D02*
X173950000Y-149450000D01*
X174250000Y-150250000D02*
X173950000Y-149950000D01*
X175500000Y-150250000D02*
X174250000Y-150250000D01*
X175500000Y-116250000D02*
X174250000Y-116250000D01*
X174250000Y-116250000D02*
X173950000Y-115950000D01*
X173950000Y-115950000D02*
X173950000Y-115450000D01*
X175500000Y-116250000D02*
X175250000Y-116000000D01*
X175250000Y-116000000D02*
X174500000Y-116000000D01*
D21*
X173950000Y-115450000D02*
X174500000Y-116000000D01*
X174500000Y-116000000D02*
X174750000Y-116250000D01*
D20*
X174750000Y-116250000D02*
X175500000Y-116250000D01*
X174750000Y-133250000D02*
X175500000Y-133250000D01*
D21*
X174500000Y-133000000D02*
X174750000Y-133250000D01*
X173950000Y-132450000D02*
X174500000Y-133000000D01*
D22*
X175250000Y-133000000D02*
X174500000Y-133000000D01*
X175500000Y-133250000D02*
X175250000Y-133000000D01*
X173950000Y-132950000D02*
X173950000Y-132450000D01*
X174250000Y-133250000D02*
X173950000Y-132950000D01*
X175500000Y-133250000D02*
X174250000Y-133250000D01*
X135000000Y-120750000D02*
X136250000Y-120750000D01*
X136250000Y-120750000D02*
X136550000Y-121050000D01*
X136550000Y-121050000D02*
X136550000Y-121550000D01*
X135000000Y-120750000D02*
X135250000Y-121000000D01*
X135250000Y-121000000D02*
X136000000Y-121000000D01*
D21*
X136550000Y-121550000D02*
X136000000Y-121000000D01*
X136000000Y-121000000D02*
X135750000Y-120750000D01*
D20*
X135750000Y-120750000D02*
X135000000Y-120750000D01*
X135750000Y-137750000D02*
X135000000Y-137750000D01*
D21*
X136000000Y-138000000D02*
X135750000Y-137750000D01*
X136550000Y-138550000D02*
X136000000Y-138000000D01*
D22*
X135250000Y-138000000D02*
X136000000Y-138000000D01*
X135000000Y-137750000D02*
X135250000Y-138000000D01*
X136550000Y-138050000D02*
X136550000Y-138550000D01*
X136250000Y-137750000D02*
X136550000Y-138050000D01*
X135000000Y-137750000D02*
X136250000Y-137750000D01*
X135000000Y-103750000D02*
X136250000Y-103750000D01*
X136250000Y-103750000D02*
X136550000Y-104050000D01*
X136550000Y-104050000D02*
X136550000Y-104550000D01*
X135000000Y-103750000D02*
X135250000Y-104000000D01*
X135250000Y-104000000D02*
X136000000Y-104000000D01*
D21*
X136550000Y-104550000D02*
X136000000Y-104000000D01*
X136000000Y-104000000D02*
X135750000Y-103750000D01*
D20*
X135750000Y-103750000D02*
X135000000Y-103750000D01*
D23*
X178083000Y-145397000D02*
X177956000Y-145524000D01*
D20*
X177980000Y-145500000D02*
X178083000Y-145397000D01*
X173250000Y-145500000D02*
X177980000Y-145500000D01*
D21*
X173000000Y-145750000D02*
X173250000Y-145500000D01*
X168635000Y-143550000D02*
X166915000Y-145270000D01*
X170050000Y-143550000D02*
X168635000Y-143550000D01*
D20*
X177730000Y-145750000D02*
X178083000Y-145397000D01*
X173500000Y-145750000D02*
X177730000Y-145750000D01*
X173000000Y-145750000D02*
X173500000Y-145750000D01*
X170500000Y-147250000D02*
X171250000Y-148000000D01*
X171000000Y-148000000D02*
X171250000Y-148000000D01*
X170250000Y-147250000D02*
X171000000Y-148000000D01*
D22*
X171000000Y-148250000D02*
X170750000Y-148250000D01*
X170750000Y-148250000D02*
X170250000Y-147750000D01*
X171250000Y-148000000D02*
X171000000Y-148250000D01*
X170000000Y-147250000D02*
X170750000Y-148000000D01*
X170750000Y-148000000D02*
X171250000Y-148000000D01*
X170000000Y-146750000D02*
X170000000Y-147250000D01*
X173250000Y-146000000D02*
X172249996Y-146000000D01*
X173500000Y-145750000D02*
X173250000Y-146000000D01*
X173250000Y-146000000D02*
X173000000Y-146250000D01*
X173000000Y-146250000D02*
X172750000Y-146250000D01*
X172750000Y-146250000D02*
X172499996Y-146250000D01*
X172499996Y-146250000D02*
X172000000Y-145750004D01*
X170500000Y-146250000D02*
X170000000Y-146750000D01*
X171000000Y-145750000D02*
X170500000Y-146250000D01*
X173000000Y-145750000D02*
X171000000Y-145750000D01*
X170500000Y-146500000D02*
X170500000Y-146250000D01*
X170500000Y-146250000D02*
X170500000Y-146500000D01*
X170500000Y-146750000D02*
X170500000Y-146250000D01*
X170500000Y-147250000D02*
X170500000Y-146750000D01*
X170250000Y-147500000D02*
X170250000Y-147750000D01*
X170250000Y-147750000D02*
X170250000Y-147500000D01*
X170250000Y-146500000D02*
X170250000Y-147750000D01*
X170500000Y-146250000D02*
X170250000Y-146500000D01*
X170250000Y-147750000D02*
X170000000Y-147500000D01*
X170000000Y-147500000D02*
X170000000Y-146750000D01*
D21*
X167230000Y-145270000D02*
X166915000Y-145270000D01*
X168750000Y-143750000D02*
X167230000Y-145270000D01*
X169850000Y-143750000D02*
X168750000Y-143750000D01*
X170050000Y-143550000D02*
X169850000Y-143750000D01*
D23*
X169375000Y-147625000D02*
X169250000Y-147500000D01*
D22*
X169375000Y-147375000D02*
X169375000Y-147625000D01*
X170000000Y-146750000D02*
X169375000Y-147375000D01*
X170250000Y-148250000D02*
X170750000Y-148250000D01*
X170000000Y-148250000D02*
X170250000Y-148250000D01*
X169375000Y-147625000D02*
X170000000Y-148250000D01*
X170000000Y-147000000D02*
X170000000Y-147250000D01*
X169375000Y-147625000D02*
X170000000Y-147000000D01*
X169625000Y-147625000D02*
X170250000Y-148250000D01*
X169375000Y-147625000D02*
X169625000Y-147625000D01*
X169750000Y-148250000D02*
X170750000Y-148250000D01*
X169375000Y-147875000D02*
X169750000Y-148250000D01*
X169375000Y-147625000D02*
X169375000Y-147875000D01*
X170500000Y-147000000D02*
X170500000Y-146750000D01*
X171250000Y-147750000D02*
X170500000Y-147000000D01*
X171250000Y-148000000D02*
X171250000Y-147750000D01*
X171000000Y-148250000D02*
X171250000Y-148000000D01*
X169750000Y-148250000D02*
X171000000Y-148250000D01*
X171250000Y-148212498D02*
X171250000Y-148000000D01*
X171212498Y-148250000D02*
X171250000Y-148212498D01*
X169750000Y-148250000D02*
X171212498Y-148250000D01*
X169750000Y-114250000D02*
X171212498Y-114250000D01*
X171212498Y-114250000D02*
X171250000Y-114212498D01*
X171250000Y-114212498D02*
X171250000Y-114000000D01*
X169750000Y-114250000D02*
X171000000Y-114250000D01*
X171000000Y-114250000D02*
X171250000Y-114000000D01*
X171250000Y-114000000D02*
X171250000Y-113750000D01*
X171250000Y-113750000D02*
X170500000Y-113000000D01*
X170500000Y-113000000D02*
X170500000Y-112750000D01*
X169375000Y-113625000D02*
X169375000Y-113875000D01*
X169375000Y-113875000D02*
X169750000Y-114250000D01*
X169750000Y-114250000D02*
X170750000Y-114250000D01*
X169375000Y-113625000D02*
X169625000Y-113625000D01*
X169625000Y-113625000D02*
X170250000Y-114250000D01*
X169375000Y-113625000D02*
X170000000Y-113000000D01*
X170000000Y-113000000D02*
X170000000Y-113250000D01*
X169375000Y-113625000D02*
X170000000Y-114250000D01*
X170000000Y-114250000D02*
X170250000Y-114250000D01*
X170250000Y-114250000D02*
X170750000Y-114250000D01*
X170000000Y-112750000D02*
X169375000Y-113375000D01*
X169375000Y-113375000D02*
X169375000Y-113625000D01*
D23*
X169375000Y-113625000D02*
X169250000Y-113500000D01*
D21*
X170050000Y-109550000D02*
X169850000Y-109750000D01*
X169850000Y-109750000D02*
X168750000Y-109750000D01*
X168750000Y-109750000D02*
X167230000Y-111270000D01*
X167230000Y-111270000D02*
X166915000Y-111270000D01*
D22*
X170000000Y-113500000D02*
X170000000Y-112750000D01*
X170250000Y-113750000D02*
X170000000Y-113500000D01*
X170500000Y-112250000D02*
X170250000Y-112500000D01*
X170250000Y-112500000D02*
X170250000Y-113750000D01*
X170250000Y-113750000D02*
X170250000Y-113500000D01*
X170250000Y-113500000D02*
X170250000Y-113750000D01*
X170500000Y-113250000D02*
X170500000Y-112750000D01*
X170500000Y-112750000D02*
X170500000Y-112250000D01*
X170500000Y-112250000D02*
X170500000Y-112500000D01*
X170500000Y-112500000D02*
X170500000Y-112250000D01*
X173000000Y-111750000D02*
X171000000Y-111750000D01*
X171000000Y-111750000D02*
X170500000Y-112250000D01*
X170500000Y-112250000D02*
X170000000Y-112750000D01*
X172499996Y-112250000D02*
X172000000Y-111750004D01*
X172750000Y-112250000D02*
X172499996Y-112250000D01*
X173000000Y-112250000D02*
X172750000Y-112250000D01*
X173250000Y-112000000D02*
X173000000Y-112250000D01*
X173500000Y-111750000D02*
X173250000Y-112000000D01*
X173250000Y-112000000D02*
X172249996Y-112000000D01*
X170000000Y-112750000D02*
X170000000Y-113250000D01*
X170750000Y-114000000D02*
X171250000Y-114000000D01*
X170000000Y-113250000D02*
X170750000Y-114000000D01*
X171250000Y-114000000D02*
X171000000Y-114250000D01*
X170750000Y-114250000D02*
X170250000Y-113750000D01*
X171000000Y-114250000D02*
X170750000Y-114250000D01*
D20*
X170250000Y-113250000D02*
X171000000Y-114000000D01*
X171000000Y-114000000D02*
X171250000Y-114000000D01*
X170500000Y-113250000D02*
X171250000Y-114000000D01*
X173000000Y-111750000D02*
X173500000Y-111750000D01*
X173500000Y-111750000D02*
X177730000Y-111750000D01*
X177730000Y-111750000D02*
X178083000Y-111397000D01*
D21*
X170050000Y-109550000D02*
X168635000Y-109550000D01*
X168635000Y-109550000D02*
X166915000Y-111270000D01*
X173000000Y-111750000D02*
X173250000Y-111500000D01*
D20*
X173250000Y-111500000D02*
X177980000Y-111500000D01*
X177980000Y-111500000D02*
X178083000Y-111397000D01*
D23*
X178083000Y-111397000D02*
X177956000Y-111524000D01*
X178083000Y-128397000D02*
X177956000Y-128524000D01*
D20*
X177980000Y-128500000D02*
X178083000Y-128397000D01*
X173250000Y-128500000D02*
X177980000Y-128500000D01*
D21*
X173000000Y-128750000D02*
X173250000Y-128500000D01*
X168635000Y-126550000D02*
X166915000Y-128270000D01*
X170050000Y-126550000D02*
X168635000Y-126550000D01*
D20*
X177730000Y-128750000D02*
X178083000Y-128397000D01*
X173500000Y-128750000D02*
X177730000Y-128750000D01*
X173000000Y-128750000D02*
X173500000Y-128750000D01*
X170500000Y-130250000D02*
X171250000Y-131000000D01*
X171000000Y-131000000D02*
X171250000Y-131000000D01*
X170250000Y-130250000D02*
X171000000Y-131000000D01*
D22*
X171000000Y-131250000D02*
X170750000Y-131250000D01*
X170750000Y-131250000D02*
X170250000Y-130750000D01*
X171250000Y-131000000D02*
X171000000Y-131250000D01*
X170000000Y-130250000D02*
X170750000Y-131000000D01*
X170750000Y-131000000D02*
X171250000Y-131000000D01*
X170000000Y-129750000D02*
X170000000Y-130250000D01*
X173250000Y-129000000D02*
X172249996Y-129000000D01*
X173500000Y-128750000D02*
X173250000Y-129000000D01*
X173250000Y-129000000D02*
X173000000Y-129250000D01*
X173000000Y-129250000D02*
X172750000Y-129250000D01*
X172750000Y-129250000D02*
X172499996Y-129250000D01*
X172499996Y-129250000D02*
X172000000Y-128750004D01*
X170500000Y-129250000D02*
X170000000Y-129750000D01*
X171000000Y-128750000D02*
X170500000Y-129250000D01*
X173000000Y-128750000D02*
X171000000Y-128750000D01*
X170500000Y-129500000D02*
X170500000Y-129250000D01*
X170500000Y-129250000D02*
X170500000Y-129500000D01*
X170500000Y-129750000D02*
X170500000Y-129250000D01*
X170500000Y-130250000D02*
X170500000Y-129750000D01*
X170250000Y-130500000D02*
X170250000Y-130750000D01*
X170250000Y-130750000D02*
X170250000Y-130500000D01*
X170250000Y-129500000D02*
X170250000Y-130750000D01*
X170500000Y-129250000D02*
X170250000Y-129500000D01*
X170250000Y-130750000D02*
X170000000Y-130500000D01*
X170000000Y-130500000D02*
X170000000Y-129750000D01*
D21*
X167230000Y-128270000D02*
X166915000Y-128270000D01*
X168750000Y-126750000D02*
X167230000Y-128270000D01*
X169850000Y-126750000D02*
X168750000Y-126750000D01*
X170050000Y-126550000D02*
X169850000Y-126750000D01*
D23*
X169375000Y-130625000D02*
X169250000Y-130500000D01*
D22*
X169375000Y-130375000D02*
X169375000Y-130625000D01*
X170000000Y-129750000D02*
X169375000Y-130375000D01*
X170250000Y-131250000D02*
X170750000Y-131250000D01*
X170000000Y-131250000D02*
X170250000Y-131250000D01*
X169375000Y-130625000D02*
X170000000Y-131250000D01*
X170000000Y-130000000D02*
X170000000Y-130250000D01*
X169375000Y-130625000D02*
X170000000Y-130000000D01*
X169625000Y-130625000D02*
X170250000Y-131250000D01*
X169375000Y-130625000D02*
X169625000Y-130625000D01*
X169750000Y-131250000D02*
X170750000Y-131250000D01*
X169375000Y-130875000D02*
X169750000Y-131250000D01*
X169375000Y-130625000D02*
X169375000Y-130875000D01*
X170500000Y-130000000D02*
X170500000Y-129750000D01*
X171250000Y-130750000D02*
X170500000Y-130000000D01*
X171250000Y-131000000D02*
X171250000Y-130750000D01*
X171000000Y-131250000D02*
X171250000Y-131000000D01*
X169750000Y-131250000D02*
X171000000Y-131250000D01*
X171250000Y-131212498D02*
X171250000Y-131000000D01*
X171212498Y-131250000D02*
X171250000Y-131212498D01*
X169750000Y-131250000D02*
X171212498Y-131250000D01*
X140750000Y-122750000D02*
X139287502Y-122750000D01*
X139287502Y-122750000D02*
X139250000Y-122787502D01*
X139250000Y-122787502D02*
X139250000Y-123000000D01*
X140750000Y-122750000D02*
X139500000Y-122750000D01*
X139500000Y-122750000D02*
X139250000Y-123000000D01*
X139250000Y-123000000D02*
X139250000Y-123250000D01*
X139250000Y-123250000D02*
X140000000Y-124000000D01*
X140000000Y-124000000D02*
X140000000Y-124250000D01*
X141125000Y-123375000D02*
X141125000Y-123125000D01*
X141125000Y-123125000D02*
X140750000Y-122750000D01*
X140750000Y-122750000D02*
X139750000Y-122750000D01*
X141125000Y-123375000D02*
X140875000Y-123375000D01*
X140875000Y-123375000D02*
X140250000Y-122750000D01*
X141125000Y-123375000D02*
X140500000Y-124000000D01*
X140500000Y-124000000D02*
X140500000Y-123750000D01*
X141125000Y-123375000D02*
X140500000Y-122750000D01*
X140500000Y-122750000D02*
X140250000Y-122750000D01*
X140250000Y-122750000D02*
X139750000Y-122750000D01*
X140500000Y-124250000D02*
X141125000Y-123625000D01*
X141125000Y-123625000D02*
X141125000Y-123375000D01*
D23*
X141125000Y-123375000D02*
X141250000Y-123500000D01*
D21*
X140450000Y-127450000D02*
X140650000Y-127250000D01*
X140650000Y-127250000D02*
X141750000Y-127250000D01*
X141750000Y-127250000D02*
X143270000Y-125730000D01*
X143270000Y-125730000D02*
X143585000Y-125730000D01*
D22*
X140500000Y-123500000D02*
X140500000Y-124250000D01*
X140250000Y-123250000D02*
X140500000Y-123500000D01*
X140000000Y-124750000D02*
X140250000Y-124500000D01*
X140250000Y-124500000D02*
X140250000Y-123250000D01*
X140250000Y-123250000D02*
X140250000Y-123500000D01*
X140250000Y-123500000D02*
X140250000Y-123250000D01*
X140000000Y-123750000D02*
X140000000Y-124250000D01*
X140000000Y-124250000D02*
X140000000Y-124750000D01*
X140000000Y-124750000D02*
X140000000Y-124500000D01*
X140000000Y-124500000D02*
X140000000Y-124750000D01*
X137500000Y-125250000D02*
X139500000Y-125250000D01*
X139500000Y-125250000D02*
X140000000Y-124750000D01*
X140000000Y-124750000D02*
X140500000Y-124250000D01*
X138000004Y-124750000D02*
X138500000Y-125249996D01*
X137750000Y-124750000D02*
X138000004Y-124750000D01*
X137500000Y-124750000D02*
X137750000Y-124750000D01*
X137250000Y-125000000D02*
X137500000Y-124750000D01*
X137000000Y-125250000D02*
X137250000Y-125000000D01*
X137250000Y-125000000D02*
X138250004Y-125000000D01*
X140500000Y-124250000D02*
X140500000Y-123750000D01*
X139750000Y-123000000D02*
X139250000Y-123000000D01*
X140500000Y-123750000D02*
X139750000Y-123000000D01*
X139250000Y-123000000D02*
X139500000Y-122750000D01*
X139750000Y-122750000D02*
X140250000Y-123250000D01*
X139500000Y-122750000D02*
X139750000Y-122750000D01*
D20*
X140250000Y-123750000D02*
X139500000Y-123000000D01*
X139500000Y-123000000D02*
X139250000Y-123000000D01*
X140000000Y-123750000D02*
X139250000Y-123000000D01*
X137500000Y-125250000D02*
X137000000Y-125250000D01*
X137000000Y-125250000D02*
X132770000Y-125250000D01*
X132770000Y-125250000D02*
X132417000Y-125603000D01*
D21*
X140450000Y-127450000D02*
X141865000Y-127450000D01*
X141865000Y-127450000D02*
X143585000Y-125730000D01*
X137500000Y-125250000D02*
X137250000Y-125500000D01*
D20*
X137250000Y-125500000D02*
X132520000Y-125500000D01*
X132520000Y-125500000D02*
X132417000Y-125603000D01*
D23*
X132417000Y-125603000D02*
X132544000Y-125476000D01*
X132417000Y-142603000D02*
X132544000Y-142476000D01*
D20*
X132520000Y-142500000D02*
X132417000Y-142603000D01*
X137250000Y-142500000D02*
X132520000Y-142500000D01*
D21*
X137500000Y-142250000D02*
X137250000Y-142500000D01*
X141865000Y-144450000D02*
X143585000Y-142730000D01*
X140450000Y-144450000D02*
X141865000Y-144450000D01*
D20*
X132770000Y-142250000D02*
X132417000Y-142603000D01*
X137000000Y-142250000D02*
X132770000Y-142250000D01*
X137500000Y-142250000D02*
X137000000Y-142250000D01*
X140000000Y-140750000D02*
X139250000Y-140000000D01*
X139500000Y-140000000D02*
X139250000Y-140000000D01*
X140250000Y-140750000D02*
X139500000Y-140000000D01*
D22*
X139500000Y-139750000D02*
X139750000Y-139750000D01*
X139750000Y-139750000D02*
X140250000Y-140250000D01*
X139250000Y-140000000D02*
X139500000Y-139750000D01*
X140500000Y-140750000D02*
X139750000Y-140000000D01*
X139750000Y-140000000D02*
X139250000Y-140000000D01*
X140500000Y-141250000D02*
X140500000Y-140750000D01*
X137250000Y-142000000D02*
X138250004Y-142000000D01*
X137000000Y-142250000D02*
X137250000Y-142000000D01*
X137250000Y-142000000D02*
X137500000Y-141750000D01*
X137500000Y-141750000D02*
X137750000Y-141750000D01*
X137750000Y-141750000D02*
X138000004Y-141750000D01*
X138000004Y-141750000D02*
X138500000Y-142249996D01*
X140000000Y-141750000D02*
X140500000Y-141250000D01*
X139500000Y-142250000D02*
X140000000Y-141750000D01*
X137500000Y-142250000D02*
X139500000Y-142250000D01*
X140000000Y-141500000D02*
X140000000Y-141750000D01*
X140000000Y-141750000D02*
X140000000Y-141500000D01*
X140000000Y-141250000D02*
X140000000Y-141750000D01*
X140000000Y-140750000D02*
X140000000Y-141250000D01*
X140250000Y-140500000D02*
X140250000Y-140250000D01*
X140250000Y-140250000D02*
X140250000Y-140500000D01*
X140250000Y-141500000D02*
X140250000Y-140250000D01*
X140000000Y-141750000D02*
X140250000Y-141500000D01*
X140250000Y-140250000D02*
X140500000Y-140500000D01*
X140500000Y-140500000D02*
X140500000Y-141250000D01*
D21*
X143270000Y-142730000D02*
X143585000Y-142730000D01*
X141750000Y-144250000D02*
X143270000Y-142730000D01*
X140650000Y-144250000D02*
X141750000Y-144250000D01*
X140450000Y-144450000D02*
X140650000Y-144250000D01*
D23*
X141125000Y-140375000D02*
X141250000Y-140500000D01*
D22*
X141125000Y-140625000D02*
X141125000Y-140375000D01*
X140500000Y-141250000D02*
X141125000Y-140625000D01*
X140250000Y-139750000D02*
X139750000Y-139750000D01*
X140500000Y-139750000D02*
X140250000Y-139750000D01*
X141125000Y-140375000D02*
X140500000Y-139750000D01*
X140500000Y-141000000D02*
X140500000Y-140750000D01*
X141125000Y-140375000D02*
X140500000Y-141000000D01*
X140875000Y-140375000D02*
X140250000Y-139750000D01*
X141125000Y-140375000D02*
X140875000Y-140375000D01*
X140750000Y-139750000D02*
X139750000Y-139750000D01*
X141125000Y-140125000D02*
X140750000Y-139750000D01*
X141125000Y-140375000D02*
X141125000Y-140125000D01*
X140000000Y-141000000D02*
X140000000Y-141250000D01*
X139250000Y-140250000D02*
X140000000Y-141000000D01*
X139250000Y-140000000D02*
X139250000Y-140250000D01*
X139500000Y-139750000D02*
X139250000Y-140000000D01*
X140750000Y-139750000D02*
X139500000Y-139750000D01*
X139250000Y-139787502D02*
X139250000Y-140000000D01*
X139287502Y-139750000D02*
X139250000Y-139787502D01*
X140750000Y-139750000D02*
X139287502Y-139750000D01*
X140750000Y-105750000D02*
X139287502Y-105750000D01*
X139287502Y-105750000D02*
X139250000Y-105787502D01*
X139250000Y-105787502D02*
X139250000Y-106000000D01*
X140750000Y-105750000D02*
X139500000Y-105750000D01*
X139500000Y-105750000D02*
X139250000Y-106000000D01*
X139250000Y-106000000D02*
X139250000Y-106250000D01*
X139250000Y-106250000D02*
X140000000Y-107000000D01*
X140000000Y-107000000D02*
X140000000Y-107250000D01*
X141125000Y-106375000D02*
X141125000Y-106125000D01*
X141125000Y-106125000D02*
X140750000Y-105750000D01*
X140750000Y-105750000D02*
X139750000Y-105750000D01*
X141125000Y-106375000D02*
X140875000Y-106375000D01*
X140875000Y-106375000D02*
X140250000Y-105750000D01*
X141125000Y-106375000D02*
X140500000Y-107000000D01*
X140500000Y-107000000D02*
X140500000Y-106750000D01*
X141125000Y-106375000D02*
X140500000Y-105750000D01*
X140500000Y-105750000D02*
X140250000Y-105750000D01*
X140250000Y-105750000D02*
X139750000Y-105750000D01*
X140500000Y-107250000D02*
X141125000Y-106625000D01*
X141125000Y-106625000D02*
X141125000Y-106375000D01*
D23*
X141125000Y-106375000D02*
X141250000Y-106500000D01*
D21*
X140450000Y-110450000D02*
X140650000Y-110250000D01*
X140650000Y-110250000D02*
X141750000Y-110250000D01*
X141750000Y-110250000D02*
X143270000Y-108730000D01*
X143270000Y-108730000D02*
X143585000Y-108730000D01*
D22*
X140500000Y-106500000D02*
X140500000Y-107250000D01*
X140250000Y-106250000D02*
X140500000Y-106500000D01*
X140000000Y-107750000D02*
X140250000Y-107500000D01*
X140250000Y-107500000D02*
X140250000Y-106250000D01*
X140250000Y-106250000D02*
X140250000Y-106500000D01*
X140250000Y-106500000D02*
X140250000Y-106250000D01*
X140000000Y-106750000D02*
X140000000Y-107250000D01*
X140000000Y-107250000D02*
X140000000Y-107750000D01*
X140000000Y-107750000D02*
X140000000Y-107500000D01*
X140000000Y-107500000D02*
X140000000Y-107750000D01*
X137500000Y-108250000D02*
X139500000Y-108250000D01*
X139500000Y-108250000D02*
X140000000Y-107750000D01*
X140000000Y-107750000D02*
X140500000Y-107250000D01*
X138000004Y-107750000D02*
X138500000Y-108249996D01*
X137750000Y-107750000D02*
X138000004Y-107750000D01*
X137500000Y-107750000D02*
X137750000Y-107750000D01*
X137250000Y-108000000D02*
X137500000Y-107750000D01*
X137000000Y-108250000D02*
X137250000Y-108000000D01*
X137250000Y-108000000D02*
X138250004Y-108000000D01*
X140500000Y-107250000D02*
X140500000Y-106750000D01*
X139750000Y-106000000D02*
X139250000Y-106000000D01*
X140500000Y-106750000D02*
X139750000Y-106000000D01*
X139250000Y-106000000D02*
X139500000Y-105750000D01*
X139750000Y-105750000D02*
X140250000Y-106250000D01*
X139500000Y-105750000D02*
X139750000Y-105750000D01*
D20*
X140250000Y-106750000D02*
X139500000Y-106000000D01*
X139500000Y-106000000D02*
X139250000Y-106000000D01*
X140000000Y-106750000D02*
X139250000Y-106000000D01*
X137500000Y-108250000D02*
X137000000Y-108250000D01*
X137000000Y-108250000D02*
X132770000Y-108250000D01*
X132770000Y-108250000D02*
X132417000Y-108603000D01*
D21*
X140450000Y-110450000D02*
X141865000Y-110450000D01*
X141865000Y-110450000D02*
X143585000Y-108730000D01*
X137500000Y-108250000D02*
X137250000Y-108500000D01*
D20*
X137250000Y-108500000D02*
X132520000Y-108500000D01*
X132520000Y-108500000D02*
X132417000Y-108603000D01*
D23*
X132417000Y-108603000D02*
X132544000Y-108476000D01*
X178024000Y-139750000D02*
X178083000Y-139809000D01*
X171365000Y-136865000D02*
X172500000Y-138000000D01*
X170500000Y-136865000D02*
X171365000Y-136865000D01*
X176809000Y-139809000D02*
X178083000Y-139809000D01*
X175000000Y-138000000D02*
X176809000Y-139809000D01*
X172500000Y-138000000D02*
X175000000Y-138000000D01*
X172500000Y-104000000D02*
X175000000Y-104000000D01*
X175000000Y-104000000D02*
X176809000Y-105809000D01*
X176809000Y-105809000D02*
X178083000Y-105809000D01*
X170500000Y-102865000D02*
X171365000Y-102865000D01*
X171365000Y-102865000D02*
X172500000Y-104000000D01*
X178024000Y-105750000D02*
X178083000Y-105809000D01*
X178024000Y-122750000D02*
X178083000Y-122809000D01*
X171365000Y-119865000D02*
X172500000Y-121000000D01*
X170500000Y-119865000D02*
X171365000Y-119865000D01*
X176809000Y-122809000D02*
X178083000Y-122809000D01*
X175000000Y-121000000D02*
X176809000Y-122809000D01*
X172500000Y-121000000D02*
X175000000Y-121000000D01*
X138000000Y-133000000D02*
X135500000Y-133000000D01*
X135500000Y-133000000D02*
X133691000Y-131191000D01*
X133691000Y-131191000D02*
X132417000Y-131191000D01*
X140000000Y-134135000D02*
X139135000Y-134135000D01*
X139135000Y-134135000D02*
X138000000Y-133000000D01*
X132476000Y-131250000D02*
X132417000Y-131191000D01*
X132476000Y-148250000D02*
X132417000Y-148191000D01*
X139135000Y-151135000D02*
X138000000Y-150000000D01*
X140000000Y-151135000D02*
X139135000Y-151135000D01*
X133691000Y-148191000D02*
X132417000Y-148191000D01*
X135500000Y-150000000D02*
X133691000Y-148191000D01*
X138000000Y-150000000D02*
X135500000Y-150000000D01*
X138000000Y-116000000D02*
X135500000Y-116000000D01*
X135500000Y-116000000D02*
X133691000Y-114191000D01*
X133691000Y-114191000D02*
X132417000Y-114191000D01*
X140000000Y-117135000D02*
X139135000Y-117135000D01*
X139135000Y-117135000D02*
X138000000Y-116000000D01*
X132476000Y-114250000D02*
X132417000Y-114191000D01*
X168000000Y-139250000D02*
X168000000Y-138750000D01*
X168500000Y-138250000D02*
X168000000Y-138750000D01*
X169750000Y-139000000D02*
X170550001Y-139800001D01*
X168500000Y-141780000D02*
X167804000Y-142476000D01*
X168500000Y-141750000D02*
X168500000Y-141780000D01*
X168500000Y-141780000D02*
X168500000Y-141750000D01*
X167520000Y-142730000D02*
X166915000Y-142730000D01*
X168750000Y-141500000D02*
X167520000Y-142730000D01*
X168750000Y-140000000D02*
X168750000Y-141500000D01*
X168000000Y-139250000D02*
X168750000Y-140000000D01*
X169750000Y-138750000D02*
X169250000Y-138250000D01*
X169750000Y-139000000D02*
X169750000Y-138750000D01*
X169250000Y-138250000D02*
X168500000Y-138250000D01*
X169250000Y-104250000D02*
X168500000Y-104250000D01*
X169750000Y-105000000D02*
X169750000Y-104750000D01*
X169750000Y-104750000D02*
X169250000Y-104250000D01*
X168000000Y-105250000D02*
X168750000Y-106000000D01*
X168750000Y-106000000D02*
X168750000Y-107500000D01*
X168750000Y-107500000D02*
X167520000Y-108730000D01*
X167520000Y-108730000D02*
X166915000Y-108730000D01*
X168500000Y-107780000D02*
X168500000Y-107750000D01*
X168500000Y-107750000D02*
X168500000Y-107780000D01*
X168500000Y-107780000D02*
X167804000Y-108476000D01*
X169750000Y-105000000D02*
X170550001Y-105800001D01*
X168500000Y-104250000D02*
X168000000Y-104750000D01*
X168000000Y-105250000D02*
X168000000Y-104750000D01*
X168000000Y-122250000D02*
X168000000Y-121750000D01*
X168500000Y-121250000D02*
X168000000Y-121750000D01*
X169750000Y-122000000D02*
X170550001Y-122800001D01*
X168500000Y-124780000D02*
X167804000Y-125476000D01*
X168500000Y-124750000D02*
X168500000Y-124780000D01*
X168500000Y-124780000D02*
X168500000Y-124750000D01*
X167520000Y-125730000D02*
X166915000Y-125730000D01*
X168750000Y-124500000D02*
X167520000Y-125730000D01*
X168750000Y-123000000D02*
X168750000Y-124500000D01*
X168000000Y-122250000D02*
X168750000Y-123000000D01*
X169750000Y-121750000D02*
X169250000Y-121250000D01*
X169750000Y-122000000D02*
X169750000Y-121750000D01*
X169250000Y-121250000D02*
X168500000Y-121250000D01*
X141250000Y-132750000D02*
X142000000Y-132750000D01*
X140750000Y-132000000D02*
X140750000Y-132250000D01*
X140750000Y-132250000D02*
X141250000Y-132750000D01*
X142500000Y-131750000D02*
X141750000Y-131000000D01*
X141750000Y-131000000D02*
X141750000Y-129500000D01*
X141750000Y-129500000D02*
X142980000Y-128270000D01*
X142980000Y-128270000D02*
X143585000Y-128270000D01*
X142000000Y-129220000D02*
X142000000Y-129250000D01*
X142000000Y-129250000D02*
X142000000Y-129220000D01*
X142000000Y-129220000D02*
X142696000Y-128524000D01*
X140750000Y-132000000D02*
X139949999Y-131199999D01*
X142000000Y-132750000D02*
X142500000Y-132250000D01*
X142500000Y-131750000D02*
X142500000Y-132250000D01*
X142500000Y-148750000D02*
X142500000Y-149250000D01*
X142000000Y-149750000D02*
X142500000Y-149250000D01*
X140750000Y-149000000D02*
X139949999Y-148199999D01*
X142000000Y-146220000D02*
X142696000Y-145524000D01*
X142000000Y-146250000D02*
X142000000Y-146220000D01*
X142000000Y-146220000D02*
X142000000Y-146250000D01*
X142980000Y-145270000D02*
X143585000Y-145270000D01*
X141750000Y-146500000D02*
X142980000Y-145270000D01*
X141750000Y-148000000D02*
X141750000Y-146500000D01*
X142500000Y-148750000D02*
X141750000Y-148000000D01*
X140750000Y-149250000D02*
X141250000Y-149750000D01*
X140750000Y-149000000D02*
X140750000Y-149250000D01*
X141250000Y-149750000D02*
X142000000Y-149750000D01*
X141250000Y-115750000D02*
X142000000Y-115750000D01*
X140750000Y-115000000D02*
X140750000Y-115250000D01*
X140750000Y-115250000D02*
X141250000Y-115750000D01*
X142500000Y-114750000D02*
X141750000Y-114000000D01*
X141750000Y-114000000D02*
X141750000Y-112500000D01*
X141750000Y-112500000D02*
X142980000Y-111270000D01*
X142980000Y-111270000D02*
X143585000Y-111270000D01*
X142000000Y-112220000D02*
X142000000Y-112250000D01*
X142000000Y-112250000D02*
X142000000Y-112220000D01*
X142000000Y-112220000D02*
X142696000Y-111524000D01*
X140750000Y-115000000D02*
X139949999Y-114199999D01*
X142000000Y-115750000D02*
X142500000Y-115250000D01*
X142500000Y-114750000D02*
X142500000Y-115250000D01*
X175365000Y-136865000D02*
X175500000Y-137000000D01*
X173500000Y-136865000D02*
X175365000Y-136865000D01*
X178024000Y-148250000D02*
X178083000Y-148191000D01*
X176059000Y-148191000D02*
X178083000Y-148191000D01*
X175250000Y-149000000D02*
X176059000Y-148191000D01*
X173500000Y-102865000D02*
X175365000Y-102865000D01*
X175365000Y-102865000D02*
X175500000Y-103000000D01*
X175250000Y-115000000D02*
X176059000Y-114191000D01*
X176059000Y-114191000D02*
X178083000Y-114191000D01*
X178024000Y-114250000D02*
X178083000Y-114191000D01*
X178024000Y-131250000D02*
X178083000Y-131191000D01*
X176059000Y-131191000D02*
X178083000Y-131191000D01*
X175250000Y-132000000D02*
X176059000Y-131191000D01*
X175365000Y-119865000D02*
X175500000Y-120000000D01*
X173500000Y-119865000D02*
X175365000Y-119865000D01*
X137000000Y-134135000D02*
X135135000Y-134135000D01*
X135135000Y-134135000D02*
X135000000Y-134000000D01*
X135250000Y-122000000D02*
X134441000Y-122809000D01*
X134441000Y-122809000D02*
X132417000Y-122809000D01*
X132476000Y-122750000D02*
X132417000Y-122809000D01*
X132476000Y-139750000D02*
X132417000Y-139809000D01*
X134441000Y-139809000D02*
X132417000Y-139809000D01*
X135250000Y-139000000D02*
X134441000Y-139809000D01*
X135135000Y-151135000D02*
X135000000Y-151000000D01*
X137000000Y-151135000D02*
X135135000Y-151135000D01*
X135250000Y-105000000D02*
X134441000Y-105809000D01*
X134441000Y-105809000D02*
X132417000Y-105809000D01*
X132476000Y-105750000D02*
X132417000Y-105809000D01*
X137000000Y-117135000D02*
X135135000Y-117135000D01*
X135135000Y-117135000D02*
X135000000Y-117000000D01*
X171750000Y-139250000D02*
X172635000Y-140135000D01*
X172635000Y-140135000D02*
X173500000Y-140135000D01*
X167065000Y-137500000D02*
X166915000Y-137650000D01*
X170750000Y-139250000D02*
X170250000Y-138750000D01*
X171750000Y-139250000D02*
X170750000Y-139250000D01*
X170250000Y-138250000D02*
X169750000Y-137750000D01*
X170250000Y-138750000D02*
X170250000Y-138250000D01*
X169500000Y-137750000D02*
X169250000Y-137500000D01*
X169250000Y-137500000D02*
X167065000Y-137500000D01*
X169750000Y-137750000D02*
X169500000Y-137750000D01*
X169750000Y-103750000D02*
X169500000Y-103750000D01*
X169250000Y-103500000D02*
X167065000Y-103500000D01*
X169500000Y-103750000D02*
X169250000Y-103500000D01*
X170250000Y-104750000D02*
X170250000Y-104250000D01*
X170250000Y-104250000D02*
X169750000Y-103750000D01*
X171750000Y-105250000D02*
X170750000Y-105250000D01*
X170750000Y-105250000D02*
X170250000Y-104750000D01*
X167065000Y-103500000D02*
X166915000Y-103650000D01*
X172635000Y-106135000D02*
X173500000Y-106135000D01*
X171750000Y-105250000D02*
X172635000Y-106135000D01*
X171750000Y-122250000D02*
X172635000Y-123135000D01*
X172635000Y-123135000D02*
X173500000Y-123135000D01*
X167065000Y-120500000D02*
X166915000Y-120650000D01*
X170750000Y-122250000D02*
X170250000Y-121750000D01*
X171750000Y-122250000D02*
X170750000Y-122250000D01*
X170250000Y-121250000D02*
X169750000Y-120750000D01*
X170250000Y-121750000D02*
X170250000Y-121250000D01*
X169500000Y-120750000D02*
X169250000Y-120500000D01*
X169250000Y-120500000D02*
X167065000Y-120500000D01*
X169750000Y-120750000D02*
X169500000Y-120750000D01*
X140750000Y-133250000D02*
X141000000Y-133250000D01*
X141250000Y-133500000D02*
X143435000Y-133500000D01*
X141000000Y-133250000D02*
X141250000Y-133500000D01*
X140250000Y-132250000D02*
X140250000Y-132750000D01*
X140250000Y-132750000D02*
X140750000Y-133250000D01*
X138750000Y-131750000D02*
X139750000Y-131750000D01*
X139750000Y-131750000D02*
X140250000Y-132250000D01*
X143435000Y-133500000D02*
X143585000Y-133350000D01*
X137865000Y-130865000D02*
X137000000Y-130865000D01*
X138750000Y-131750000D02*
X137865000Y-130865000D01*
X138750000Y-148750000D02*
X137865000Y-147865000D01*
X137865000Y-147865000D02*
X137000000Y-147865000D01*
X143435000Y-150500000D02*
X143585000Y-150350000D01*
X139750000Y-148750000D02*
X140250000Y-149250000D01*
X138750000Y-148750000D02*
X139750000Y-148750000D01*
X140250000Y-149750000D02*
X140750000Y-150250000D01*
X140250000Y-149250000D02*
X140250000Y-149750000D01*
X141000000Y-150250000D02*
X141250000Y-150500000D01*
X141250000Y-150500000D02*
X143435000Y-150500000D01*
X140750000Y-150250000D02*
X141000000Y-150250000D01*
X140750000Y-116250000D02*
X141000000Y-116250000D01*
X141250000Y-116500000D02*
X143435000Y-116500000D01*
X141000000Y-116250000D02*
X141250000Y-116500000D01*
X140250000Y-115250000D02*
X140250000Y-115750000D01*
X140250000Y-115750000D02*
X140750000Y-116250000D01*
X138750000Y-114750000D02*
X139750000Y-114750000D01*
X139750000Y-114750000D02*
X140250000Y-115250000D01*
X143435000Y-116500000D02*
X143585000Y-116350000D01*
X137865000Y-113865000D02*
X137000000Y-113865000D01*
X138750000Y-114750000D02*
X137865000Y-113865000D01*
X172650000Y-147850000D02*
X172650000Y-149450000D01*
X174000000Y-146500000D02*
X172650000Y-147850000D01*
X174000000Y-112500000D02*
X172650000Y-113850000D01*
X172650000Y-113850000D02*
X172650000Y-115450000D01*
X172650000Y-130850000D02*
X172650000Y-132450000D01*
X174000000Y-129500000D02*
X172650000Y-130850000D01*
X136500000Y-124500000D02*
X137850000Y-123150000D01*
X137850000Y-123150000D02*
X137850000Y-121550000D01*
X137850000Y-140150000D02*
X137850000Y-138550000D01*
X136500000Y-141500000D02*
X137850000Y-140150000D01*
X136500000Y-107500000D02*
X137850000Y-106150000D01*
X137850000Y-106150000D02*
X137850000Y-104550000D01*
X175000000Y-146750000D02*
X173300000Y-148450000D01*
X173300000Y-148450000D02*
X173300000Y-149450000D01*
X175000000Y-146500000D02*
X175000000Y-146750000D01*
X175000000Y-112500000D02*
X175000000Y-112750000D01*
X173300000Y-114450000D02*
X173300000Y-115450000D01*
X175000000Y-112750000D02*
X173300000Y-114450000D01*
X175000000Y-129750000D02*
X173300000Y-131450000D01*
X173300000Y-131450000D02*
X173300000Y-132450000D01*
X175000000Y-129500000D02*
X175000000Y-129750000D01*
X135500000Y-124500000D02*
X135500000Y-124250000D01*
X137200000Y-122550000D02*
X137200000Y-121550000D01*
X135500000Y-124250000D02*
X137200000Y-122550000D01*
X135500000Y-141250000D02*
X137200000Y-139550000D01*
X137200000Y-139550000D02*
X137200000Y-138550000D01*
X135500000Y-141500000D02*
X135500000Y-141250000D01*
X135500000Y-107500000D02*
X135500000Y-107250000D01*
X137200000Y-105550000D02*
X137200000Y-104550000D01*
X135500000Y-107250000D02*
X137200000Y-105550000D01*
X171350000Y-142350000D02*
X171350000Y-143550000D01*
X172250000Y-140750000D02*
X173000000Y-141500000D01*
X171600000Y-140750000D02*
X172250000Y-140750000D01*
X171000000Y-141350000D02*
X171600000Y-140750000D01*
X171000000Y-142000000D02*
X171000000Y-141350000D01*
X171350000Y-142350000D02*
X171000000Y-142000000D01*
X175424000Y-144762000D02*
X174750000Y-144088000D01*
X174750000Y-144088000D02*
X175424000Y-144762000D01*
X173214000Y-141714000D02*
X174154000Y-141714000D01*
X174154000Y-141714000D02*
X174750000Y-142310000D01*
X174750000Y-142310000D02*
X174750000Y-144088000D01*
X173000000Y-141500000D02*
X173214000Y-141714000D01*
X173000000Y-107500000D02*
X173214000Y-107714000D01*
X174750000Y-108310000D02*
X174750000Y-110088000D01*
X174154000Y-107714000D02*
X174750000Y-108310000D01*
X173214000Y-107714000D02*
X174154000Y-107714000D01*
X174750000Y-110088000D02*
X175424000Y-110762000D01*
X175424000Y-110762000D02*
X174750000Y-110088000D01*
X171350000Y-108350000D02*
X171000000Y-108000000D01*
X171000000Y-108000000D02*
X171000000Y-107350000D01*
X171000000Y-107350000D02*
X171600000Y-106750000D01*
X171600000Y-106750000D02*
X172250000Y-106750000D01*
X172250000Y-106750000D02*
X173000000Y-107500000D01*
X171350000Y-108350000D02*
X171350000Y-109550000D01*
X171350000Y-125350000D02*
X171350000Y-126550000D01*
X172250000Y-123750000D02*
X173000000Y-124500000D01*
X171600000Y-123750000D02*
X172250000Y-123750000D01*
X171000000Y-124350000D02*
X171600000Y-123750000D01*
X171000000Y-125000000D02*
X171000000Y-124350000D01*
X171350000Y-125350000D02*
X171000000Y-125000000D01*
X175424000Y-127762000D02*
X174750000Y-127088000D01*
X174750000Y-127088000D02*
X175424000Y-127762000D01*
X173214000Y-124714000D02*
X174154000Y-124714000D01*
X174154000Y-124714000D02*
X174750000Y-125310000D01*
X174750000Y-125310000D02*
X174750000Y-127088000D01*
X173000000Y-124500000D02*
X173214000Y-124714000D01*
X137500000Y-129500000D02*
X137286000Y-129286000D01*
X135750000Y-128690000D02*
X135750000Y-126912000D01*
X136346000Y-129286000D02*
X135750000Y-128690000D01*
X137286000Y-129286000D02*
X136346000Y-129286000D01*
X135750000Y-126912000D02*
X135076000Y-126238000D01*
X135076000Y-126238000D02*
X135750000Y-126912000D01*
X139150000Y-128650000D02*
X139500000Y-129000000D01*
X139500000Y-129000000D02*
X139500000Y-129650000D01*
X139500000Y-129650000D02*
X138900000Y-130250000D01*
X138900000Y-130250000D02*
X138250000Y-130250000D01*
X138250000Y-130250000D02*
X137500000Y-129500000D01*
X139150000Y-128650000D02*
X139150000Y-127450000D01*
X139150000Y-145650000D02*
X139150000Y-144450000D01*
X138250000Y-147250000D02*
X137500000Y-146500000D01*
X138900000Y-147250000D02*
X138250000Y-147250000D01*
X139500000Y-146650000D02*
X138900000Y-147250000D01*
X139500000Y-146000000D02*
X139500000Y-146650000D01*
X139150000Y-145650000D02*
X139500000Y-146000000D01*
X135076000Y-143238000D02*
X135750000Y-143912000D01*
X135750000Y-143912000D02*
X135076000Y-143238000D01*
X137286000Y-146286000D02*
X136346000Y-146286000D01*
X136346000Y-146286000D02*
X135750000Y-145690000D01*
X135750000Y-145690000D02*
X135750000Y-143912000D01*
X137500000Y-146500000D02*
X137286000Y-146286000D01*
X137500000Y-112500000D02*
X137286000Y-112286000D01*
X135750000Y-111690000D02*
X135750000Y-109912000D01*
X136346000Y-112286000D02*
X135750000Y-111690000D01*
X137286000Y-112286000D02*
X136346000Y-112286000D01*
X135750000Y-109912000D02*
X135076000Y-109238000D01*
X135076000Y-109238000D02*
X135750000Y-109912000D01*
X139150000Y-111650000D02*
X139500000Y-112000000D01*
X139500000Y-112000000D02*
X139500000Y-112650000D01*
X139500000Y-112650000D02*
X138900000Y-113250000D01*
X138900000Y-113250000D02*
X138250000Y-113250000D01*
X138250000Y-113250000D02*
X137500000Y-112500000D01*
X139150000Y-111650000D02*
X139150000Y-110450000D01*
X170700000Y-142450000D02*
X170700000Y-143550000D01*
X169250000Y-141000000D02*
X170700000Y-142450000D01*
X172500000Y-139000000D02*
X174750000Y-139000000D01*
X169250000Y-139400000D02*
X169250000Y-141000000D01*
X168850000Y-139000000D02*
X169250000Y-139400000D01*
X172000000Y-138500000D02*
X172500000Y-139000000D01*
X171000000Y-138500000D02*
X172000000Y-138500000D01*
X171000000Y-104500000D02*
X172000000Y-104500000D01*
X172000000Y-104500000D02*
X172500000Y-105000000D01*
X168850000Y-105000000D02*
X169250000Y-105400000D01*
X169250000Y-105400000D02*
X169250000Y-107000000D01*
X172500000Y-105000000D02*
X174750000Y-105000000D01*
X169250000Y-107000000D02*
X170700000Y-108450000D01*
X170700000Y-108450000D02*
X170700000Y-109550000D01*
X170700000Y-125450000D02*
X170700000Y-126550000D01*
X169250000Y-124000000D02*
X170700000Y-125450000D01*
X172500000Y-122000000D02*
X174750000Y-122000000D01*
X169250000Y-122400000D02*
X169250000Y-124000000D01*
X168850000Y-122000000D02*
X169250000Y-122400000D01*
X172000000Y-121500000D02*
X172500000Y-122000000D01*
X171000000Y-121500000D02*
X172000000Y-121500000D01*
X139500000Y-132500000D02*
X138500000Y-132500000D01*
X138500000Y-132500000D02*
X138000000Y-132000000D01*
X141650000Y-132000000D02*
X141250000Y-131600000D01*
X141250000Y-131600000D02*
X141250000Y-130000000D01*
X138000000Y-132000000D02*
X135750000Y-132000000D01*
X141250000Y-130000000D02*
X139800000Y-128550000D01*
X139800000Y-128550000D02*
X139800000Y-127450000D01*
X139800000Y-145550000D02*
X139800000Y-144450000D01*
X141250000Y-147000000D02*
X139800000Y-145550000D01*
X138000000Y-149000000D02*
X135750000Y-149000000D01*
X141250000Y-148600000D02*
X141250000Y-147000000D01*
X141650000Y-149000000D02*
X141250000Y-148600000D01*
X138500000Y-149500000D02*
X138000000Y-149000000D01*
X139500000Y-149500000D02*
X138500000Y-149500000D01*
X139500000Y-115500000D02*
X138500000Y-115500000D01*
X138500000Y-115500000D02*
X138000000Y-115000000D01*
X141650000Y-115000000D02*
X141250000Y-114600000D01*
X141250000Y-114600000D02*
X141250000Y-113000000D01*
X138000000Y-115000000D02*
X135750000Y-115000000D01*
X141250000Y-113000000D02*
X139800000Y-111550000D01*
X139800000Y-111550000D02*
X139800000Y-110450000D01*
X178083000Y-142603000D02*
X175551000Y-142603000D01*
X178083000Y-108603000D02*
X175551000Y-108603000D01*
X178083000Y-125603000D02*
X175551000Y-125603000D01*
X132417000Y-128397000D02*
X134949000Y-128397000D01*
X132417000Y-145397000D02*
X134949000Y-145397000D01*
X132417000Y-111397000D02*
X134949000Y-111397000D01*
D22*
X173300000Y-143550000D02*
X172650000Y-143550000D01*
D23*
X169250000Y-144750000D02*
X168500000Y-145500000D01*
X168500000Y-145500000D02*
X168500000Y-148765000D01*
X168500000Y-148765000D02*
X166915000Y-150350000D01*
X172356000Y-144750000D02*
X172650000Y-144456000D01*
X172650000Y-144456000D02*
X172650000Y-143550000D01*
X169250000Y-144750000D02*
X172356000Y-144750000D01*
X169250000Y-110750000D02*
X172356000Y-110750000D01*
X172650000Y-110456000D02*
X172650000Y-109550000D01*
X172356000Y-110750000D02*
X172650000Y-110456000D01*
X168500000Y-114765000D02*
X166915000Y-116350000D01*
X168500000Y-111500000D02*
X168500000Y-114765000D01*
X169250000Y-110750000D02*
X168500000Y-111500000D01*
D22*
X173300000Y-109550000D02*
X172650000Y-109550000D01*
X173300000Y-126550000D02*
X172650000Y-126550000D01*
D23*
X169250000Y-127750000D02*
X168500000Y-128500000D01*
X168500000Y-128500000D02*
X168500000Y-131765000D01*
X168500000Y-131765000D02*
X166915000Y-133350000D01*
X172356000Y-127750000D02*
X172650000Y-127456000D01*
X172650000Y-127456000D02*
X172650000Y-126550000D01*
X169250000Y-127750000D02*
X172356000Y-127750000D01*
X141250000Y-126250000D02*
X138144000Y-126250000D01*
X137850000Y-126544000D02*
X137850000Y-127450000D01*
X138144000Y-126250000D02*
X137850000Y-126544000D01*
X142000000Y-122235000D02*
X143585000Y-120650000D01*
X142000000Y-125500000D02*
X142000000Y-122235000D01*
X141250000Y-126250000D02*
X142000000Y-125500000D01*
D22*
X137200000Y-127450000D02*
X137850000Y-127450000D01*
X137200000Y-144450000D02*
X137850000Y-144450000D01*
D23*
X141250000Y-143250000D02*
X142000000Y-142500000D01*
X142000000Y-142500000D02*
X142000000Y-139235000D01*
X142000000Y-139235000D02*
X143585000Y-137650000D01*
X138144000Y-143250000D02*
X137850000Y-143544000D01*
X137850000Y-143544000D02*
X137850000Y-144450000D01*
X141250000Y-143250000D02*
X138144000Y-143250000D01*
X141250000Y-109250000D02*
X138144000Y-109250000D01*
X137850000Y-109544000D02*
X137850000Y-110450000D01*
X138144000Y-109250000D02*
X137850000Y-109544000D01*
X142000000Y-105235000D02*
X143585000Y-103650000D01*
X142000000Y-108500000D02*
X142000000Y-105235000D01*
X141250000Y-109250000D02*
X142000000Y-108500000D01*
D22*
X137200000Y-110450000D02*
X137850000Y-110450000D01*
X170700000Y-149450000D02*
X171350000Y-149450000D01*
D23*
X171350000Y-150600000D02*
X171500000Y-150750000D01*
X171350000Y-149450000D02*
X171350000Y-150600000D01*
X171350000Y-115450000D02*
X171350000Y-116600000D01*
X171350000Y-116600000D02*
X171500000Y-116750000D01*
D22*
X170700000Y-115450000D02*
X171350000Y-115450000D01*
X170700000Y-132450000D02*
X171350000Y-132450000D01*
D23*
X171350000Y-133600000D02*
X171500000Y-133750000D01*
X171350000Y-132450000D02*
X171350000Y-133600000D01*
X139150000Y-121550000D02*
X139150000Y-120400000D01*
X139150000Y-120400000D02*
X139000000Y-120250000D01*
D22*
X139800000Y-121550000D02*
X139150000Y-121550000D01*
X139800000Y-138550000D02*
X139150000Y-138550000D01*
D23*
X139150000Y-137400000D02*
X139000000Y-137250000D01*
X139150000Y-138550000D02*
X139150000Y-137400000D01*
X139150000Y-104550000D02*
X139150000Y-103400000D01*
X139150000Y-103400000D02*
X139000000Y-103250000D01*
D22*
X139800000Y-104550000D02*
X139150000Y-104550000D01*
D23*
X172549998Y-145200002D02*
X170299998Y-145200002D01*
X170299998Y-145200002D02*
X169750000Y-145750000D01*
X173950000Y-144550000D02*
X173950000Y-143550000D01*
X173950000Y-144550000D02*
X173750000Y-144750000D01*
X173750000Y-144750000D02*
X173000000Y-144750000D01*
X173000000Y-144750000D02*
X172549998Y-145200002D01*
X173000000Y-110750000D02*
X172549998Y-111200002D01*
X173750000Y-110750000D02*
X173000000Y-110750000D01*
X173950000Y-110550000D02*
X173750000Y-110750000D01*
X173950000Y-110550000D02*
X173950000Y-109550000D01*
X170299998Y-111200002D02*
X169750000Y-111750000D01*
X172549998Y-111200002D02*
X170299998Y-111200002D01*
X172549998Y-128200002D02*
X170299998Y-128200002D01*
X170299998Y-128200002D02*
X169750000Y-128750000D01*
X173950000Y-127550000D02*
X173950000Y-126550000D01*
X173950000Y-127550000D02*
X173750000Y-127750000D01*
X173750000Y-127750000D02*
X173000000Y-127750000D01*
X173000000Y-127750000D02*
X172549998Y-128200002D01*
X137500000Y-126250000D02*
X137950002Y-125799998D01*
X136750000Y-126250000D02*
X137500000Y-126250000D01*
X136550000Y-126450000D02*
X136750000Y-126250000D01*
X136550000Y-126450000D02*
X136550000Y-127450000D01*
X140200002Y-125799998D02*
X140750000Y-125250000D01*
X137950002Y-125799998D02*
X140200002Y-125799998D01*
X137950002Y-142799998D02*
X140200002Y-142799998D01*
X140200002Y-142799998D02*
X140750000Y-142250000D01*
X136550000Y-143450000D02*
X136550000Y-144450000D01*
X136550000Y-143450000D02*
X136750000Y-143250000D01*
X136750000Y-143250000D02*
X137500000Y-143250000D01*
X137500000Y-143250000D02*
X137950002Y-142799998D01*
X137500000Y-109250000D02*
X137950002Y-108799998D01*
X136750000Y-109250000D02*
X137500000Y-109250000D01*
X136550000Y-109450000D02*
X136750000Y-109250000D01*
X136550000Y-109450000D02*
X136550000Y-110450000D01*
X140200002Y-108799998D02*
X140750000Y-108250000D01*
X137950002Y-108799998D02*
X140200002Y-108799998D01*
X172000000Y-141850000D02*
X172000000Y-143550000D01*
X171750000Y-141600000D02*
X172000000Y-141850000D01*
X171750000Y-107600000D02*
X172000000Y-107850000D01*
X172000000Y-107850000D02*
X172000000Y-109550000D01*
X172000000Y-124850000D02*
X172000000Y-126550000D01*
X171750000Y-124600000D02*
X172000000Y-124850000D01*
X138750000Y-129400000D02*
X138500000Y-129150000D01*
X138500000Y-129150000D02*
X138500000Y-127450000D01*
X138500000Y-146150000D02*
X138500000Y-144450000D01*
X138750000Y-146400000D02*
X138500000Y-146150000D01*
X138750000Y-112400000D02*
X138500000Y-112150000D01*
X138500000Y-112150000D02*
X138500000Y-110450000D01*
X170050000Y-150800000D02*
X170740000Y-151490000D01*
X170740000Y-151490000D02*
X173010000Y-151490000D01*
X173010000Y-151490000D02*
X173500000Y-151000000D01*
X170050000Y-149450000D02*
X170050000Y-150800000D01*
X170050000Y-115450000D02*
X170050000Y-116800000D01*
X173010000Y-117490000D02*
X173500000Y-117000000D01*
X170740000Y-117490000D02*
X173010000Y-117490000D01*
X170050000Y-116800000D02*
X170740000Y-117490000D01*
X170050000Y-133800000D02*
X170740000Y-134490000D01*
X170740000Y-134490000D02*
X173010000Y-134490000D01*
X173010000Y-134490000D02*
X173500000Y-134000000D01*
X170050000Y-132450000D02*
X170050000Y-133800000D01*
X140450000Y-121550000D02*
X140450000Y-120200000D01*
X137490000Y-119510000D02*
X137000000Y-120000000D01*
X139760000Y-119510000D02*
X137490000Y-119510000D01*
X140450000Y-120200000D02*
X139760000Y-119510000D01*
X140450000Y-137200000D02*
X139760000Y-136510000D01*
X139760000Y-136510000D02*
X137490000Y-136510000D01*
X137490000Y-136510000D02*
X137000000Y-137000000D01*
X140450000Y-138550000D02*
X140450000Y-137200000D01*
X140450000Y-104550000D02*
X140450000Y-103200000D01*
X137490000Y-102510000D02*
X137000000Y-103000000D01*
X139760000Y-102510000D02*
X137490000Y-102510000D01*
X140450000Y-103200000D02*
X139760000Y-102510000D01*
X172000000Y-147000000D02*
X172000000Y-149450000D01*
X171500000Y-146500000D02*
X172000000Y-147000000D01*
X171500000Y-112500000D02*
X172000000Y-113000000D01*
X172000000Y-113000000D02*
X172000000Y-115450000D01*
X172000000Y-130000000D02*
X172000000Y-132450000D01*
X171500000Y-129500000D02*
X172000000Y-130000000D01*
X139000000Y-124500000D02*
X138500000Y-124000000D01*
X138500000Y-124000000D02*
X138500000Y-121550000D01*
X138500000Y-141000000D02*
X138500000Y-138550000D01*
X139000000Y-141500000D02*
X138500000Y-141000000D01*
X139000000Y-107500000D02*
X138500000Y-107000000D01*
X138500000Y-107000000D02*
X138500000Y-104550000D01*
M02*
