M48
;DRILL file {KiCad 4.0.2-stable} date 26/07/2016 9:57:11 PM
;FORMAT={-:-/ absolute / inch / decimal}
FMAT,2
INCH,TZ
T1C0.016
T2C0.040
%
G90
G05
M72
T1
X5.313Y-4.3857
X5.315Y-4.0846
X5.315Y-4.6063
X5.318Y-4.3007
X5.3248Y-4.1339
X5.3346Y-4.2323
X5.3445Y-4.5276
X5.374Y-4.2323
X5.3937Y-4.0551
X5.4626Y-4.4252
X5.4724Y-4.065
X5.4724Y-4.2323
X5.4823Y-4.1732
X5.4921Y-4.5472
X5.5413Y-4.2618
X5.5561Y-4.188
X5.5768Y-4.5276
T2
X5.653Y-4.0807
X5.653Y-4.1807
X5.653Y-4.2807
X5.653Y-4.3807
X5.653Y-4.4807
X5.653Y-4.5807
T0
M30
