G04 #@! TF.FileFunction,Copper,L1,Top,Signal*
%FSLAX46Y46*%
G04 Gerber Fmt 4.6, Leading zero omitted, Abs format (unit mm)*
G04 Created by KiCad (PCBNEW 4.0.2-stable) date 4/07/2016 2:08:19 PM*
%MOMM*%
G01*
G04 APERTURE LIST*
%ADD10C,0.100000*%
%ADD11R,0.450000X1.450000*%
%ADD12R,2.032000X1.727200*%
%ADD13O,2.032000X1.727200*%
%ADD14R,1.220000X0.910000*%
%ADD15R,4.080000X1.778000*%
%ADD16C,0.800000*%
%ADD17C,0.600000*%
%ADD18C,0.425000*%
%ADD19C,0.449000*%
%ADD20C,0.450000*%
%ADD21C,0.250000*%
G04 APERTURE END LIST*
D10*
D11*
X136550000Y-110450000D03*
X137200000Y-110450000D03*
X137850000Y-110450000D03*
X138500000Y-110450000D03*
X139150000Y-110450000D03*
X139800000Y-110450000D03*
X140450000Y-110450000D03*
X140450000Y-104550000D03*
X139800000Y-104550000D03*
X139150000Y-104550000D03*
X138500000Y-104550000D03*
X137850000Y-104550000D03*
X137200000Y-104550000D03*
X136550000Y-104550000D03*
D12*
X143585000Y-103650000D03*
D13*
X143585000Y-106190000D03*
X143585000Y-108730000D03*
X143585000Y-111270000D03*
X143585000Y-113810000D03*
X143585000Y-116350000D03*
D14*
X140000000Y-117135000D03*
X140000000Y-113865000D03*
X137000000Y-117135000D03*
X137000000Y-113865000D03*
D15*
X132417000Y-105809000D03*
X132417000Y-108603000D03*
X132417000Y-111397000D03*
X132417000Y-114191000D03*
D16*
X135000000Y-103750000D03*
X141125000Y-106375000D03*
X139250000Y-106000000D03*
D17*
X135000000Y-117000000D03*
X135250000Y-105000000D03*
X136500000Y-107500000D03*
X135500000Y-107500000D03*
X135076000Y-109238000D03*
X141650000Y-115000000D03*
X139500000Y-115500000D03*
X135750000Y-115000000D03*
X134949000Y-111397000D03*
X139000000Y-103250000D03*
X140750000Y-108250000D03*
X138750000Y-112400000D03*
X137000000Y-103000000D03*
X139000000Y-107500000D03*
D18*
X135000000Y-103750000D02*
X136250000Y-103750000D01*
X136250000Y-103750000D02*
X136550000Y-104050000D01*
X136550000Y-104050000D02*
X136550000Y-104550000D01*
X135000000Y-103750000D02*
X135250000Y-104000000D01*
X135250000Y-104000000D02*
X136000000Y-104000000D01*
D19*
X136550000Y-104550000D02*
X136000000Y-104000000D01*
X136000000Y-104000000D02*
X135750000Y-103750000D01*
D20*
X135750000Y-103750000D02*
X135000000Y-103750000D01*
D18*
X140750000Y-105750000D02*
X139287502Y-105750000D01*
X139287502Y-105750000D02*
X139250000Y-105787502D01*
X139250000Y-105787502D02*
X139250000Y-106000000D01*
X140750000Y-105750000D02*
X139500000Y-105750000D01*
X139500000Y-105750000D02*
X139250000Y-106000000D01*
X139250000Y-106000000D02*
X139250000Y-106250000D01*
X139250000Y-106250000D02*
X140000000Y-107000000D01*
X140000000Y-107000000D02*
X140000000Y-107250000D01*
X141125000Y-106375000D02*
X141125000Y-106125000D01*
X141125000Y-106125000D02*
X140750000Y-105750000D01*
X140750000Y-105750000D02*
X139750000Y-105750000D01*
X141125000Y-106375000D02*
X140875000Y-106375000D01*
X140875000Y-106375000D02*
X140250000Y-105750000D01*
X141125000Y-106375000D02*
X140500000Y-107000000D01*
X140500000Y-107000000D02*
X140500000Y-106750000D01*
X141125000Y-106375000D02*
X140500000Y-105750000D01*
X140500000Y-105750000D02*
X140250000Y-105750000D01*
X140250000Y-105750000D02*
X139750000Y-105750000D01*
X140500000Y-107250000D02*
X141125000Y-106625000D01*
X141125000Y-106625000D02*
X141125000Y-106375000D01*
D21*
X141125000Y-106375000D02*
X141250000Y-106500000D01*
D19*
X140450000Y-110450000D02*
X140650000Y-110250000D01*
X140650000Y-110250000D02*
X141750000Y-110250000D01*
X141750000Y-110250000D02*
X143270000Y-108730000D01*
X143270000Y-108730000D02*
X143585000Y-108730000D01*
D18*
X140500000Y-106500000D02*
X140500000Y-107250000D01*
X140250000Y-106250000D02*
X140500000Y-106500000D01*
X140000000Y-107750000D02*
X140250000Y-107500000D01*
X140250000Y-107500000D02*
X140250000Y-106250000D01*
X140250000Y-106250000D02*
X140250000Y-106500000D01*
X140250000Y-106500000D02*
X140250000Y-106250000D01*
X140000000Y-106750000D02*
X140000000Y-107250000D01*
X140000000Y-107250000D02*
X140000000Y-107750000D01*
X140000000Y-107750000D02*
X140000000Y-107500000D01*
X140000000Y-107500000D02*
X140000000Y-107750000D01*
X137500000Y-108250000D02*
X139500000Y-108250000D01*
X139500000Y-108250000D02*
X140000000Y-107750000D01*
X140000000Y-107750000D02*
X140500000Y-107250000D01*
X138000004Y-107750000D02*
X138500000Y-108249996D01*
X137750000Y-107750000D02*
X138000004Y-107750000D01*
X137500000Y-107750000D02*
X137750000Y-107750000D01*
X137250000Y-108000000D02*
X137500000Y-107750000D01*
X137000000Y-108250000D02*
X137250000Y-108000000D01*
X137250000Y-108000000D02*
X138250004Y-108000000D01*
X140500000Y-107250000D02*
X140500000Y-106750000D01*
X139750000Y-106000000D02*
X139250000Y-106000000D01*
X140500000Y-106750000D02*
X139750000Y-106000000D01*
X139250000Y-106000000D02*
X139500000Y-105750000D01*
X139750000Y-105750000D02*
X140250000Y-106250000D01*
X139500000Y-105750000D02*
X139750000Y-105750000D01*
D20*
X140250000Y-106750000D02*
X139500000Y-106000000D01*
X139500000Y-106000000D02*
X139250000Y-106000000D01*
X140000000Y-106750000D02*
X139250000Y-106000000D01*
X137500000Y-108250000D02*
X137000000Y-108250000D01*
X137000000Y-108250000D02*
X132770000Y-108250000D01*
X132770000Y-108250000D02*
X132417000Y-108603000D01*
D19*
X140450000Y-110450000D02*
X141865000Y-110450000D01*
X141865000Y-110450000D02*
X143585000Y-108730000D01*
X137500000Y-108250000D02*
X137250000Y-108500000D01*
D20*
X137250000Y-108500000D02*
X132520000Y-108500000D01*
X132520000Y-108500000D02*
X132417000Y-108603000D01*
D21*
X132417000Y-108603000D02*
X132544000Y-108476000D01*
X138000000Y-116000000D02*
X135500000Y-116000000D01*
X135500000Y-116000000D02*
X133691000Y-114191000D01*
X133691000Y-114191000D02*
X132417000Y-114191000D01*
X140000000Y-117135000D02*
X139135000Y-117135000D01*
X139135000Y-117135000D02*
X138000000Y-116000000D01*
X132476000Y-114250000D02*
X132417000Y-114191000D01*
X141250000Y-115750000D02*
X142000000Y-115750000D01*
X140750000Y-115000000D02*
X140750000Y-115250000D01*
X140750000Y-115250000D02*
X141250000Y-115750000D01*
X142500000Y-114750000D02*
X141750000Y-114000000D01*
X141750000Y-114000000D02*
X141750000Y-112500000D01*
X141750000Y-112500000D02*
X142980000Y-111270000D01*
X142980000Y-111270000D02*
X143585000Y-111270000D01*
X142000000Y-112220000D02*
X142000000Y-112250000D01*
X142000000Y-112250000D02*
X142000000Y-112220000D01*
X142000000Y-112220000D02*
X142696000Y-111524000D01*
X140750000Y-115000000D02*
X139949999Y-114199999D01*
X142000000Y-115750000D02*
X142500000Y-115250000D01*
X142500000Y-114750000D02*
X142500000Y-115250000D01*
X137000000Y-117135000D02*
X135135000Y-117135000D01*
X135135000Y-117135000D02*
X135000000Y-117000000D01*
X135250000Y-105000000D02*
X134441000Y-105809000D01*
X134441000Y-105809000D02*
X132417000Y-105809000D01*
X132476000Y-105750000D02*
X132417000Y-105809000D01*
X140750000Y-116250000D02*
X141000000Y-116250000D01*
X141250000Y-116500000D02*
X143435000Y-116500000D01*
X141000000Y-116250000D02*
X141250000Y-116500000D01*
X140250000Y-115250000D02*
X140250000Y-115750000D01*
X140250000Y-115750000D02*
X140750000Y-116250000D01*
X138750000Y-114750000D02*
X139750000Y-114750000D01*
X139750000Y-114750000D02*
X140250000Y-115250000D01*
X143435000Y-116500000D02*
X143585000Y-116350000D01*
X137865000Y-113865000D02*
X137000000Y-113865000D01*
X138750000Y-114750000D02*
X137865000Y-113865000D01*
X136500000Y-107500000D02*
X137850000Y-106150000D01*
X137850000Y-106150000D02*
X137850000Y-104550000D01*
X135500000Y-107500000D02*
X135500000Y-107250000D01*
X137200000Y-105550000D02*
X137200000Y-104550000D01*
X135500000Y-107250000D02*
X137200000Y-105550000D01*
X137500000Y-112500000D02*
X137286000Y-112286000D01*
X135750000Y-111690000D02*
X135750000Y-109912000D01*
X136346000Y-112286000D02*
X135750000Y-111690000D01*
X137286000Y-112286000D02*
X136346000Y-112286000D01*
X135750000Y-109912000D02*
X135076000Y-109238000D01*
X135076000Y-109238000D02*
X135750000Y-109912000D01*
X139150000Y-111650000D02*
X139500000Y-112000000D01*
X139500000Y-112000000D02*
X139500000Y-112650000D01*
X139500000Y-112650000D02*
X138900000Y-113250000D01*
X138900000Y-113250000D02*
X138250000Y-113250000D01*
X138250000Y-113250000D02*
X137500000Y-112500000D01*
X139150000Y-111650000D02*
X139150000Y-110450000D01*
X139500000Y-115500000D02*
X138500000Y-115500000D01*
X138500000Y-115500000D02*
X138000000Y-115000000D01*
X141650000Y-115000000D02*
X141250000Y-114600000D01*
X141250000Y-114600000D02*
X141250000Y-113000000D01*
X138000000Y-115000000D02*
X135750000Y-115000000D01*
X141250000Y-113000000D02*
X139800000Y-111550000D01*
X139800000Y-111550000D02*
X139800000Y-110450000D01*
X132417000Y-111397000D02*
X134949000Y-111397000D01*
X141250000Y-109250000D02*
X138144000Y-109250000D01*
X137850000Y-109544000D02*
X137850000Y-110450000D01*
X138144000Y-109250000D02*
X137850000Y-109544000D01*
X142000000Y-105235000D02*
X143585000Y-103650000D01*
X142000000Y-108500000D02*
X142000000Y-105235000D01*
X141250000Y-109250000D02*
X142000000Y-108500000D01*
D18*
X137200000Y-110450000D02*
X137850000Y-110450000D01*
D21*
X139150000Y-104550000D02*
X139150000Y-103400000D01*
X139150000Y-103400000D02*
X139000000Y-103250000D01*
D18*
X139800000Y-104550000D02*
X139150000Y-104550000D01*
D21*
X137500000Y-109250000D02*
X137950002Y-108799998D01*
X136750000Y-109250000D02*
X137500000Y-109250000D01*
X136550000Y-109450000D02*
X136750000Y-109250000D01*
X136550000Y-109450000D02*
X136550000Y-110450000D01*
X140200002Y-108799998D02*
X140750000Y-108250000D01*
X137950002Y-108799998D02*
X140200002Y-108799998D01*
X138750000Y-112400000D02*
X138500000Y-112150000D01*
X138500000Y-112150000D02*
X138500000Y-110450000D01*
X140450000Y-104550000D02*
X140450000Y-103200000D01*
X137490000Y-102510000D02*
X137000000Y-103000000D01*
X139760000Y-102510000D02*
X137490000Y-102510000D01*
X140450000Y-103200000D02*
X139760000Y-102510000D01*
X139000000Y-107500000D02*
X138500000Y-107000000D01*
X138500000Y-107000000D02*
X138500000Y-104550000D01*
M02*
