G04 #@! TF.FileFunction,Legend,Top*
%FSLAX46Y46*%
G04 Gerber Fmt 4.6, Leading zero omitted, Abs format (unit mm)*
G04 Created by KiCad (PCBNEW 4.0.2-stable) date 26/07/2016 9:56:19 PM*
%MOMM*%
G01*
G04 APERTURE LIST*
%ADD10C,0.100000*%
%ADD11C,0.150000*%
G04 APERTURE END LIST*
D10*
D11*
X135875000Y-109825000D02*
X136100000Y-109825000D01*
X135875000Y-105175000D02*
X136100000Y-105175000D01*
X141125000Y-105175000D02*
X140900000Y-105175000D01*
X141125000Y-109825000D02*
X140900000Y-109825000D01*
X135875000Y-109825000D02*
X135875000Y-105175000D01*
X141125000Y-109825000D02*
X141125000Y-105175000D01*
X136100000Y-109825000D02*
X136100000Y-111175000D01*
X144855000Y-102380000D02*
X144855000Y-104412000D01*
X142315000Y-102380000D02*
X142315000Y-104412000D01*
X142315000Y-102380000D02*
X144855000Y-102380000D01*
X144855000Y-104920000D02*
X144855000Y-117620000D01*
X144855000Y-117620000D02*
X142315000Y-117620000D01*
X142315000Y-117620000D02*
X142315000Y-104920000D01*
X144855000Y-104920000D02*
X142315000Y-104920000D01*
X140000000Y-115182500D02*
X140000000Y-114801500D01*
X140000000Y-116198500D02*
X140000000Y-115817500D01*
X140000000Y-115817500D02*
X139619000Y-115182500D01*
X139619000Y-115182500D02*
X140381000Y-115182500D01*
X140381000Y-115182500D02*
X140000000Y-115817500D01*
X139492000Y-115817500D02*
X140508000Y-115817500D01*
X140900000Y-117500000D02*
X140900000Y-113960000D01*
X139100000Y-117500000D02*
X139100000Y-113960000D01*
X137000000Y-115182500D02*
X137000000Y-114801500D01*
X137000000Y-116198500D02*
X137000000Y-115817500D01*
X137000000Y-115817500D02*
X136619000Y-115182500D01*
X136619000Y-115182500D02*
X137381000Y-115182500D01*
X137381000Y-115182500D02*
X137000000Y-115817500D01*
X136492000Y-115817500D02*
X137508000Y-115817500D01*
X137900000Y-117500000D02*
X137900000Y-113960000D01*
X136100000Y-117500000D02*
X136100000Y-113960000D01*
X134811905Y-106859524D02*
X135459524Y-106859524D01*
X135535714Y-106821429D01*
X135573810Y-106783333D01*
X135611905Y-106707143D01*
X135611905Y-106554762D01*
X135573810Y-106478571D01*
X135535714Y-106440476D01*
X135459524Y-106402381D01*
X134811905Y-106402381D01*
X135611905Y-105602381D02*
X135611905Y-106059524D01*
X135611905Y-105830953D02*
X134811905Y-105830953D01*
X134926190Y-105907143D01*
X135002381Y-105983334D01*
X135040476Y-106059524D01*
X135777381Y-110262285D02*
X135777381Y-110833714D01*
X135777381Y-110548000D02*
X134777381Y-110548000D01*
X134920238Y-110643238D01*
X135015476Y-110738476D01*
X135063095Y-110833714D01*
X141965715Y-104102381D02*
X141394286Y-104102381D01*
X141680000Y-104102381D02*
X141680000Y-103102381D01*
X141584762Y-103245238D01*
X141489524Y-103340476D01*
X141394286Y-103388095D01*
X140361905Y-112840476D02*
X139561905Y-112840476D01*
X139561905Y-112650000D01*
X139600000Y-112535714D01*
X139676190Y-112459523D01*
X139752381Y-112421428D01*
X139904762Y-112383333D01*
X140019048Y-112383333D01*
X140171429Y-112421428D01*
X140247619Y-112459523D01*
X140323810Y-112535714D01*
X140361905Y-112650000D01*
X140361905Y-112840476D01*
X140361905Y-111621428D02*
X140361905Y-112078571D01*
X140361905Y-111850000D02*
X139561905Y-111850000D01*
X139676190Y-111926190D01*
X139752381Y-112002381D01*
X139790476Y-112078571D01*
X137361905Y-112840476D02*
X136561905Y-112840476D01*
X136561905Y-112650000D01*
X136600000Y-112535714D01*
X136676190Y-112459523D01*
X136752381Y-112421428D01*
X136904762Y-112383333D01*
X137019048Y-112383333D01*
X137171429Y-112421428D01*
X137247619Y-112459523D01*
X137323810Y-112535714D01*
X137361905Y-112650000D01*
X137361905Y-112840476D01*
X136638095Y-112078571D02*
X136600000Y-112040476D01*
X136561905Y-111964285D01*
X136561905Y-111773809D01*
X136600000Y-111697619D01*
X136638095Y-111659523D01*
X136714286Y-111621428D01*
X136790476Y-111621428D01*
X136904762Y-111659523D01*
X137361905Y-112116666D01*
X137361905Y-111621428D01*
M02*
