G04 #@! TF.FileFunction,Soldermask,Top*
%FSLAX46Y46*%
G04 Gerber Fmt 4.6, Leading zero omitted, Abs format (unit mm)*
G04 Created by KiCad (PCBNEW 4.0.2-stable) date 26/07/2016 9:56:19 PM*
%MOMM*%
G01*
G04 APERTURE LIST*
%ADD10C,0.100000*%
G04 APERTURE END LIST*
D10*
G36*
X137686200Y-117666200D02*
X136313800Y-117666200D01*
X136313800Y-116603800D01*
X137686200Y-116603800D01*
X137686200Y-117666200D01*
X137686200Y-117666200D01*
G37*
G36*
X140686200Y-117666200D02*
X139313800Y-117666200D01*
X139313800Y-116603800D01*
X140686200Y-116603800D01*
X140686200Y-117666200D01*
X140686200Y-117666200D01*
G37*
G36*
X143753749Y-115410277D02*
X143753754Y-115410278D01*
X143755807Y-115410292D01*
X143938080Y-115430737D01*
X144112912Y-115486197D01*
X144273641Y-115574558D01*
X144414146Y-115692456D01*
X144529076Y-115835400D01*
X144614052Y-115997945D01*
X144665839Y-116173899D01*
X144665843Y-116173940D01*
X144665844Y-116173944D01*
X144682463Y-116356558D01*
X144664648Y-116526056D01*
X144663290Y-116538973D01*
X144609052Y-116714187D01*
X144521815Y-116875529D01*
X144404900Y-117016855D01*
X144262762Y-117132779D01*
X144100815Y-117218888D01*
X143925226Y-117271902D01*
X143742685Y-117289800D01*
X143427283Y-117289800D01*
X143416251Y-117289723D01*
X143416246Y-117289722D01*
X143414193Y-117289708D01*
X143231920Y-117269263D01*
X143057088Y-117213803D01*
X142896359Y-117125442D01*
X142755854Y-117007544D01*
X142640924Y-116864600D01*
X142555948Y-116702055D01*
X142504161Y-116526101D01*
X142504157Y-116526060D01*
X142504156Y-116526056D01*
X142487537Y-116343442D01*
X142506705Y-116161074D01*
X142506710Y-116161027D01*
X142560948Y-115985813D01*
X142648185Y-115824471D01*
X142765100Y-115683145D01*
X142907238Y-115567221D01*
X143069185Y-115481112D01*
X143244774Y-115428098D01*
X143427315Y-115410200D01*
X143742717Y-115410200D01*
X143753749Y-115410277D01*
X143753749Y-115410277D01*
G37*
G36*
X134533200Y-106774200D02*
X130400800Y-106774200D01*
X130386647Y-106776211D01*
X130373616Y-106782086D01*
X130362736Y-106791358D01*
X130354871Y-106803294D01*
X130350642Y-106816949D01*
X130350000Y-106825000D01*
X130350000Y-107587000D01*
X130352011Y-107601153D01*
X130357886Y-107614184D01*
X130367158Y-107625064D01*
X130379094Y-107632929D01*
X130392749Y-107637158D01*
X130400800Y-107637800D01*
X134533200Y-107637800D01*
X134533200Y-109568200D01*
X130400800Y-109568200D01*
X130386647Y-109570211D01*
X130373616Y-109576086D01*
X130362736Y-109585358D01*
X130354871Y-109597294D01*
X130350642Y-109610949D01*
X130350000Y-109619000D01*
X130350000Y-110381000D01*
X130352011Y-110395153D01*
X130357886Y-110408184D01*
X130367158Y-110419064D01*
X130379094Y-110426929D01*
X130392749Y-110431158D01*
X130400800Y-110431800D01*
X134533200Y-110431800D01*
X134533200Y-112362200D01*
X130400800Y-112362200D01*
X130386647Y-112364211D01*
X130373616Y-112370086D01*
X130362736Y-112379358D01*
X130354871Y-112391294D01*
X130350642Y-112404949D01*
X130350000Y-112413000D01*
X130350000Y-113175000D01*
X130352011Y-113189153D01*
X130357886Y-113202184D01*
X130367158Y-113213064D01*
X130379094Y-113220929D01*
X130392749Y-113225158D01*
X130400800Y-113225800D01*
X134533200Y-113225800D01*
X134533200Y-115156200D01*
X130300800Y-115156200D01*
X130300800Y-115150800D01*
X130298789Y-115136647D01*
X130292914Y-115123616D01*
X130283642Y-115112736D01*
X130271706Y-115104871D01*
X130260082Y-115101010D01*
X130255095Y-115100000D01*
X130250000Y-115100000D01*
X130250000Y-104900000D01*
X130254738Y-104900000D01*
X130259393Y-104899124D01*
X130272930Y-104894531D01*
X130284651Y-104886348D01*
X130293628Y-104875224D01*
X130299151Y-104862039D01*
X130300800Y-104849200D01*
X130300800Y-104843800D01*
X134533200Y-104843800D01*
X134533200Y-106774200D01*
X134533200Y-106774200D01*
G37*
G36*
X143753749Y-112870277D02*
X143753754Y-112870278D01*
X143755807Y-112870292D01*
X143938080Y-112890737D01*
X144112912Y-112946197D01*
X144273641Y-113034558D01*
X144414146Y-113152456D01*
X144529076Y-113295400D01*
X144614052Y-113457945D01*
X144665839Y-113633899D01*
X144665843Y-113633940D01*
X144665844Y-113633944D01*
X144682463Y-113816558D01*
X144664648Y-113986056D01*
X144663290Y-113998973D01*
X144609052Y-114174187D01*
X144521815Y-114335529D01*
X144404900Y-114476855D01*
X144262762Y-114592779D01*
X144100815Y-114678888D01*
X143925226Y-114731902D01*
X143742685Y-114749800D01*
X143427283Y-114749800D01*
X143416251Y-114749723D01*
X143416246Y-114749722D01*
X143414193Y-114749708D01*
X143231920Y-114729263D01*
X143057088Y-114673803D01*
X142896359Y-114585442D01*
X142755854Y-114467544D01*
X142640924Y-114324600D01*
X142555948Y-114162055D01*
X142504161Y-113986101D01*
X142504157Y-113986060D01*
X142504156Y-113986056D01*
X142487537Y-113803442D01*
X142506705Y-113621074D01*
X142506710Y-113621027D01*
X142560948Y-113445813D01*
X142648185Y-113284471D01*
X142765100Y-113143145D01*
X142907238Y-113027221D01*
X143069185Y-112941112D01*
X143244774Y-112888098D01*
X143427315Y-112870200D01*
X143742717Y-112870200D01*
X143753749Y-112870277D01*
X143753749Y-112870277D01*
G37*
G36*
X140686200Y-114396200D02*
X139313800Y-114396200D01*
X139313800Y-113333800D01*
X140686200Y-113333800D01*
X140686200Y-114396200D01*
X140686200Y-114396200D01*
G37*
G36*
X137686200Y-114396200D02*
X136313800Y-114396200D01*
X136313800Y-113333800D01*
X137686200Y-113333800D01*
X137686200Y-114396200D01*
X137686200Y-114396200D01*
G37*
G36*
X143753749Y-110330277D02*
X143753754Y-110330278D01*
X143755807Y-110330292D01*
X143938080Y-110350737D01*
X144112912Y-110406197D01*
X144273641Y-110494558D01*
X144414146Y-110612456D01*
X144529076Y-110755400D01*
X144614052Y-110917945D01*
X144665839Y-111093899D01*
X144665843Y-111093940D01*
X144665844Y-111093944D01*
X144682463Y-111276558D01*
X144664648Y-111446056D01*
X144663290Y-111458973D01*
X144609052Y-111634187D01*
X144521815Y-111795529D01*
X144404900Y-111936855D01*
X144262762Y-112052779D01*
X144100815Y-112138888D01*
X143925226Y-112191902D01*
X143742685Y-112209800D01*
X143427283Y-112209800D01*
X143416251Y-112209723D01*
X143416246Y-112209722D01*
X143414193Y-112209708D01*
X143231920Y-112189263D01*
X143057088Y-112133803D01*
X142896359Y-112045442D01*
X142755854Y-111927544D01*
X142640924Y-111784600D01*
X142555948Y-111622055D01*
X142504161Y-111446101D01*
X142504157Y-111446060D01*
X142504156Y-111446056D01*
X142487537Y-111263442D01*
X142506705Y-111081074D01*
X142506710Y-111081027D01*
X142560948Y-110905813D01*
X142648185Y-110744471D01*
X142765100Y-110603145D01*
X142907238Y-110487221D01*
X143069185Y-110401112D01*
X143244774Y-110348098D01*
X143427315Y-110330200D01*
X143742717Y-110330200D01*
X143753749Y-110330277D01*
X143753749Y-110330277D01*
G37*
G36*
X140751200Y-111251200D02*
X136248800Y-111251200D01*
X136248800Y-109648800D01*
X140751200Y-109648800D01*
X140751200Y-111251200D01*
X140751200Y-111251200D01*
G37*
G36*
X143753749Y-107790277D02*
X143753754Y-107790278D01*
X143755807Y-107790292D01*
X143938080Y-107810737D01*
X144112912Y-107866197D01*
X144273641Y-107954558D01*
X144414146Y-108072456D01*
X144529076Y-108215400D01*
X144614052Y-108377945D01*
X144665839Y-108553899D01*
X144665843Y-108553940D01*
X144665844Y-108553944D01*
X144682463Y-108736558D01*
X144664648Y-108906056D01*
X144663290Y-108918973D01*
X144609052Y-109094187D01*
X144521815Y-109255529D01*
X144404900Y-109396855D01*
X144262762Y-109512779D01*
X144100815Y-109598888D01*
X143925226Y-109651902D01*
X143742685Y-109669800D01*
X143427283Y-109669800D01*
X143416251Y-109669723D01*
X143416246Y-109669722D01*
X143414193Y-109669708D01*
X143231920Y-109649263D01*
X143057088Y-109593803D01*
X142896359Y-109505442D01*
X142755854Y-109387544D01*
X142640924Y-109244600D01*
X142555948Y-109082055D01*
X142504161Y-108906101D01*
X142504157Y-108906060D01*
X142504156Y-108906056D01*
X142487537Y-108723442D01*
X142506705Y-108541074D01*
X142506710Y-108541027D01*
X142560948Y-108365813D01*
X142648185Y-108204471D01*
X142765100Y-108063145D01*
X142907238Y-107947221D01*
X143069185Y-107861112D01*
X143244774Y-107808098D01*
X143427315Y-107790200D01*
X143742717Y-107790200D01*
X143753749Y-107790277D01*
X143753749Y-107790277D01*
G37*
G36*
X143753749Y-105250277D02*
X143753754Y-105250278D01*
X143755807Y-105250292D01*
X143938080Y-105270737D01*
X144112912Y-105326197D01*
X144273641Y-105414558D01*
X144414146Y-105532456D01*
X144529076Y-105675400D01*
X144614052Y-105837945D01*
X144665839Y-106013899D01*
X144665843Y-106013940D01*
X144665844Y-106013944D01*
X144682463Y-106196558D01*
X144664648Y-106366056D01*
X144663290Y-106378973D01*
X144609052Y-106554187D01*
X144521815Y-106715529D01*
X144404900Y-106856855D01*
X144262762Y-106972779D01*
X144100815Y-107058888D01*
X143925226Y-107111902D01*
X143742685Y-107129800D01*
X143427283Y-107129800D01*
X143416251Y-107129723D01*
X143416246Y-107129722D01*
X143414193Y-107129708D01*
X143231920Y-107109263D01*
X143057088Y-107053803D01*
X142896359Y-106965442D01*
X142755854Y-106847544D01*
X142640924Y-106704600D01*
X142555948Y-106542055D01*
X142504161Y-106366101D01*
X142504157Y-106366060D01*
X142504156Y-106366056D01*
X142487537Y-106183442D01*
X142506705Y-106001074D01*
X142506710Y-106001027D01*
X142560948Y-105825813D01*
X142648185Y-105664471D01*
X142765100Y-105523145D01*
X142907238Y-105407221D01*
X143069185Y-105321112D01*
X143244774Y-105268098D01*
X143427315Y-105250200D01*
X143742717Y-105250200D01*
X143753749Y-105250277D01*
X143753749Y-105250277D01*
G37*
G36*
X140751200Y-105351200D02*
X136248800Y-105351200D01*
X136248800Y-103748800D01*
X140751200Y-103748800D01*
X140751200Y-105351200D01*
X140751200Y-105351200D01*
G37*
G36*
X144677200Y-104589800D02*
X142492800Y-104589800D01*
X142492800Y-102710200D01*
X144677200Y-102710200D01*
X144677200Y-104589800D01*
X144677200Y-104589800D01*
G37*
M02*
