G04 #@! TF.FileFunction,Legend,Bot*
%FSLAX46Y46*%
G04 Gerber Fmt 4.6, Leading zero omitted, Abs format (unit mm)*
G04 Created by KiCad (PCBNEW 4.0.2-stable) date 26/07/2016 9:56:19 PM*
%MOMM*%
G01*
G04 APERTURE LIST*
%ADD10C,0.100000*%
%ADD11C,0.150000*%
G04 APERTURE END LIST*
D10*
D11*
X139400000Y-105000000D02*
X139400000Y-104000000D01*
X141100000Y-104000000D02*
X141100000Y-105000000D01*
X136400000Y-112125000D02*
X137600000Y-112125000D01*
X137600000Y-110375000D02*
X136400000Y-110375000D01*
X136400000Y-109625000D02*
X137600000Y-109625000D01*
X137600000Y-107875000D02*
X136400000Y-107875000D01*
X136400000Y-107125000D02*
X137600000Y-107125000D01*
X137600000Y-105375000D02*
X136400000Y-105375000D01*
X136400000Y-117125000D02*
X137600000Y-117125000D01*
X137600000Y-115375000D02*
X136400000Y-115375000D01*
X136400000Y-114625000D02*
X137600000Y-114625000D01*
X137600000Y-112875000D02*
X136400000Y-112875000D01*
X141125000Y-108850000D02*
X141125000Y-107650000D01*
X139375000Y-107650000D02*
X139375000Y-108850000D01*
X139375000Y-114900000D02*
X139375000Y-116100000D01*
X141125000Y-116100000D02*
X141125000Y-114900000D01*
X137600000Y-102875000D02*
X136400000Y-102875000D01*
X136400000Y-104625000D02*
X137600000Y-104625000D01*
X139375000Y-111400000D02*
X139375000Y-112600000D01*
X141125000Y-112600000D02*
X141125000Y-111400000D01*
X142035714Y-104366667D02*
X142073810Y-104328572D01*
X142111905Y-104214286D01*
X142111905Y-104138096D01*
X142073810Y-104023810D01*
X141997619Y-103947619D01*
X141921429Y-103909524D01*
X141769048Y-103871429D01*
X141654762Y-103871429D01*
X141502381Y-103909524D01*
X141426190Y-103947619D01*
X141350000Y-104023810D01*
X141311905Y-104138096D01*
X141311905Y-104214286D01*
X141350000Y-104328572D01*
X141388095Y-104366667D01*
X142111905Y-105128572D02*
X142111905Y-104671429D01*
X142111905Y-104900000D02*
X141311905Y-104900000D01*
X141426190Y-104823810D01*
X141502381Y-104747619D01*
X141540476Y-104671429D01*
X138633333Y-112861905D02*
X138900000Y-112480952D01*
X139090476Y-112861905D02*
X139090476Y-112061905D01*
X138785714Y-112061905D01*
X138709523Y-112100000D01*
X138671428Y-112138095D01*
X138633333Y-112214286D01*
X138633333Y-112328571D01*
X138671428Y-112404762D01*
X138709523Y-112442857D01*
X138785714Y-112480952D01*
X139090476Y-112480952D01*
X137871428Y-112861905D02*
X138328571Y-112861905D01*
X138100000Y-112861905D02*
X138100000Y-112061905D01*
X138176190Y-112176190D01*
X138252381Y-112252381D01*
X138328571Y-112290476D01*
X138633333Y-110361905D02*
X138900000Y-109980952D01*
X139090476Y-110361905D02*
X139090476Y-109561905D01*
X138785714Y-109561905D01*
X138709523Y-109600000D01*
X138671428Y-109638095D01*
X138633333Y-109714286D01*
X138633333Y-109828571D01*
X138671428Y-109904762D01*
X138709523Y-109942857D01*
X138785714Y-109980952D01*
X139090476Y-109980952D01*
X138328571Y-109638095D02*
X138290476Y-109600000D01*
X138214285Y-109561905D01*
X138023809Y-109561905D01*
X137947619Y-109600000D01*
X137909523Y-109638095D01*
X137871428Y-109714286D01*
X137871428Y-109790476D01*
X137909523Y-109904762D01*
X138366666Y-110361905D01*
X137871428Y-110361905D01*
X138633333Y-107861905D02*
X138900000Y-107480952D01*
X139090476Y-107861905D02*
X139090476Y-107061905D01*
X138785714Y-107061905D01*
X138709523Y-107100000D01*
X138671428Y-107138095D01*
X138633333Y-107214286D01*
X138633333Y-107328571D01*
X138671428Y-107404762D01*
X138709523Y-107442857D01*
X138785714Y-107480952D01*
X139090476Y-107480952D01*
X138366666Y-107061905D02*
X137871428Y-107061905D01*
X138138095Y-107366667D01*
X138023809Y-107366667D01*
X137947619Y-107404762D01*
X137909523Y-107442857D01*
X137871428Y-107519048D01*
X137871428Y-107709524D01*
X137909523Y-107785714D01*
X137947619Y-107823810D01*
X138023809Y-107861905D01*
X138252381Y-107861905D01*
X138328571Y-107823810D01*
X138366666Y-107785714D01*
X138633333Y-117861905D02*
X138900000Y-117480952D01*
X139090476Y-117861905D02*
X139090476Y-117061905D01*
X138785714Y-117061905D01*
X138709523Y-117100000D01*
X138671428Y-117138095D01*
X138633333Y-117214286D01*
X138633333Y-117328571D01*
X138671428Y-117404762D01*
X138709523Y-117442857D01*
X138785714Y-117480952D01*
X139090476Y-117480952D01*
X137947619Y-117328571D02*
X137947619Y-117861905D01*
X138138095Y-117023810D02*
X138328571Y-117595238D01*
X137833333Y-117595238D01*
X138633333Y-115361905D02*
X138900000Y-114980952D01*
X139090476Y-115361905D02*
X139090476Y-114561905D01*
X138785714Y-114561905D01*
X138709523Y-114600000D01*
X138671428Y-114638095D01*
X138633333Y-114714286D01*
X138633333Y-114828571D01*
X138671428Y-114904762D01*
X138709523Y-114942857D01*
X138785714Y-114980952D01*
X139090476Y-114980952D01*
X137909523Y-114561905D02*
X138290476Y-114561905D01*
X138328571Y-114942857D01*
X138290476Y-114904762D01*
X138214285Y-114866667D01*
X138023809Y-114866667D01*
X137947619Y-114904762D01*
X137909523Y-114942857D01*
X137871428Y-115019048D01*
X137871428Y-115209524D01*
X137909523Y-115285714D01*
X137947619Y-115323810D01*
X138023809Y-115361905D01*
X138214285Y-115361905D01*
X138290476Y-115323810D01*
X138328571Y-115285714D01*
X142111905Y-108116667D02*
X141730952Y-107850000D01*
X142111905Y-107659524D02*
X141311905Y-107659524D01*
X141311905Y-107964286D01*
X141350000Y-108040477D01*
X141388095Y-108078572D01*
X141464286Y-108116667D01*
X141578571Y-108116667D01*
X141654762Y-108078572D01*
X141692857Y-108040477D01*
X141730952Y-107964286D01*
X141730952Y-107659524D01*
X141311905Y-108802381D02*
X141311905Y-108650000D01*
X141350000Y-108573810D01*
X141388095Y-108535715D01*
X141502381Y-108459524D01*
X141654762Y-108421429D01*
X141959524Y-108421429D01*
X142035714Y-108459524D01*
X142073810Y-108497619D01*
X142111905Y-108573810D01*
X142111905Y-108726191D01*
X142073810Y-108802381D01*
X142035714Y-108840477D01*
X141959524Y-108878572D01*
X141769048Y-108878572D01*
X141692857Y-108840477D01*
X141654762Y-108802381D01*
X141616667Y-108726191D01*
X141616667Y-108573810D01*
X141654762Y-108497619D01*
X141692857Y-108459524D01*
X141769048Y-108421429D01*
X142111905Y-115616667D02*
X141730952Y-115350000D01*
X142111905Y-115159524D02*
X141311905Y-115159524D01*
X141311905Y-115464286D01*
X141350000Y-115540477D01*
X141388095Y-115578572D01*
X141464286Y-115616667D01*
X141578571Y-115616667D01*
X141654762Y-115578572D01*
X141692857Y-115540477D01*
X141730952Y-115464286D01*
X141730952Y-115159524D01*
X141311905Y-115883334D02*
X141311905Y-116416667D01*
X142111905Y-116073810D01*
X138633333Y-105361905D02*
X138900000Y-104980952D01*
X139090476Y-105361905D02*
X139090476Y-104561905D01*
X138785714Y-104561905D01*
X138709523Y-104600000D01*
X138671428Y-104638095D01*
X138633333Y-104714286D01*
X138633333Y-104828571D01*
X138671428Y-104904762D01*
X138709523Y-104942857D01*
X138785714Y-104980952D01*
X139090476Y-104980952D01*
X138176190Y-104904762D02*
X138252381Y-104866667D01*
X138290476Y-104828571D01*
X138328571Y-104752381D01*
X138328571Y-104714286D01*
X138290476Y-104638095D01*
X138252381Y-104600000D01*
X138176190Y-104561905D01*
X138023809Y-104561905D01*
X137947619Y-104600000D01*
X137909523Y-104638095D01*
X137871428Y-104714286D01*
X137871428Y-104752381D01*
X137909523Y-104828571D01*
X137947619Y-104866667D01*
X138023809Y-104904762D01*
X138176190Y-104904762D01*
X138252381Y-104942857D01*
X138290476Y-104980952D01*
X138328571Y-105057143D01*
X138328571Y-105209524D01*
X138290476Y-105285714D01*
X138252381Y-105323810D01*
X138176190Y-105361905D01*
X138023809Y-105361905D01*
X137947619Y-105323810D01*
X137909523Y-105285714D01*
X137871428Y-105209524D01*
X137871428Y-105057143D01*
X137909523Y-104980952D01*
X137947619Y-104942857D01*
X138023809Y-104904762D01*
X142111905Y-111866667D02*
X141730952Y-111600000D01*
X142111905Y-111409524D02*
X141311905Y-111409524D01*
X141311905Y-111714286D01*
X141350000Y-111790477D01*
X141388095Y-111828572D01*
X141464286Y-111866667D01*
X141578571Y-111866667D01*
X141654762Y-111828572D01*
X141692857Y-111790477D01*
X141730952Y-111714286D01*
X141730952Y-111409524D01*
X142111905Y-112247619D02*
X142111905Y-112400000D01*
X142073810Y-112476191D01*
X142035714Y-112514286D01*
X141921429Y-112590477D01*
X141769048Y-112628572D01*
X141464286Y-112628572D01*
X141388095Y-112590477D01*
X141350000Y-112552381D01*
X141311905Y-112476191D01*
X141311905Y-112323810D01*
X141350000Y-112247619D01*
X141388095Y-112209524D01*
X141464286Y-112171429D01*
X141654762Y-112171429D01*
X141730952Y-112209524D01*
X141769048Y-112247619D01*
X141807143Y-112323810D01*
X141807143Y-112476191D01*
X141769048Y-112552381D01*
X141730952Y-112590477D01*
X141654762Y-112628572D01*
M02*
